<svg width="21" height="20" viewBox="0 0 21 20" fill="none" xmlns="http://www.w3.org/2000/svg">
<path fill-rule="evenodd" clip-rule="evenodd" d="M8.61414 20H11.9252C12.5017 20.0001 13.0553 19.7739 13.4668 19.3701C13.8783 18.9663 14.1149 18.4171 14.1257 17.8406C14.1253 17.7205 14.1572 17.6026 14.2181 17.4991C14.2791 17.3956 14.3668 17.3105 14.472 17.2526C14.5772 17.1948 14.696 17.1663 14.8161 17.1702C14.9361 17.1742 15.0528 17.2104 15.154 17.2751C15.4022 17.4228 15.6776 17.5189 15.9638 17.5578C16.2501 17.5967 16.5412 17.5774 16.8198 17.5013C17.3822 17.3456 17.8618 16.9767 18.1565 16.473L19.8121 13.6041C20.1027 13.0966 20.1804 12.4946 20.0282 11.9299C19.8759 11.3652 19.5061 10.8839 18.9997 10.5913C18.8989 10.5355 18.8151 10.4535 18.7571 10.3539C18.6992 10.2543 18.6693 10.1409 18.6707 10.0257C18.6696 9.90794 18.7006 9.7921 18.7604 9.69064C18.8201 9.58918 18.9065 9.50594 19.01 9.44987C19.5139 9.15751 19.8814 8.67724 20.0317 8.11438C20.1821 7.55152 20.1031 6.952 19.8121 6.4473L18.1565 3.5784C17.8618 3.0747 17.3822 2.70581 16.8198 2.55013C16.5394 2.47428 16.2467 2.45522 15.9589 2.49407C15.6711 2.53291 15.3939 2.62889 15.1437 2.77635C15.0448 2.83731 14.9308 2.86959 14.8146 2.86959C14.6984 2.86959 14.5845 2.83731 14.4856 2.77635C14.384 2.71892 14.2997 2.63509 14.2418 2.53373C14.1839 2.43237 14.1544 2.31724 14.1565 2.20051C14.1565 1.6169 13.9247 1.05719 13.512 0.644515C13.0994 0.231839 12.5396 1.31156e-10 11.956 1.31156e-10H8.64498C8.35514 -3.16425e-06 8.06815 0.0572537 7.8005 0.168482C7.53285 0.279711 7.28981 0.44272 7.08534 0.648147C6.88087 0.853574 6.71899 1.09737 6.60901 1.36554C6.49904 1.6337 6.44312 1.92096 6.44447 2.2108C6.44489 2.33087 6.41296 2.44884 6.35203 2.55231C6.29109 2.65578 6.20341 2.74092 6.0982 2.79879C5.99299 2.85665 5.87413 2.88511 5.75412 2.88116C5.63411 2.87721 5.51738 2.84101 5.41619 2.77635C5.17167 2.61998 4.898 2.51477 4.6117 2.46705C4.3254 2.41933 4.03241 2.4301 3.75039 2.49871C3.18793 2.6544 2.70837 3.02329 2.41363 3.52699L0.758099 6.39588C0.467454 6.9034 0.389752 7.5054 0.542004 8.07009C0.694256 8.63477 1.06406 9.11612 1.57044 9.40873C1.67127 9.46447 1.75511 9.5465 1.81305 9.64608C1.87099 9.74566 1.90086 9.85908 1.89949 9.97429C1.90061 10.092 1.86961 10.2079 1.80982 10.3093C1.75003 10.4108 1.66371 10.494 1.56016 10.5501C1.05623 10.8425 0.688799 11.3227 0.538446 11.8856C0.388092 12.4485 0.467084 13.048 0.758099 13.5527L2.41363 16.4216C2.70837 16.9253 3.18793 17.2942 3.75039 17.4499C4.03074 17.5257 4.32343 17.5448 4.61126 17.5059C4.89909 17.4671 5.17626 17.3711 5.42648 17.2236C5.52541 17.1627 5.63932 17.1304 5.75553 17.1304C5.87173 17.1304 5.98564 17.1627 6.08457 17.2236C6.18622 17.2811 6.27046 17.3649 6.32838 17.4663C6.3863 17.5676 6.41575 17.6828 6.41362 17.7995C6.41362 18.3831 6.64546 18.9428 7.05814 19.3555C7.47081 19.7682 8.03052 20 8.61414 20ZM6.85578 15.8869C6.5214 15.693 6.14204 15.5902 5.75553 15.5887C5.36241 15.5895 4.97623 15.6922 4.6347 15.8869C4.56149 15.9314 4.48005 15.9608 4.39525 15.9731C4.31044 15.9855 4.22402 15.9807 4.14113 15.9589C3.9722 15.9126 3.82819 15.8018 3.7401 15.6504L2.08458 12.7815C2.04068 12.706 2.01223 12.6226 2.00088 12.5361C1.98954 12.4495 1.99552 12.3616 2.01849 12.2774C2.04145 12.1932 2.08095 12.1144 2.13466 12.0455C2.18837 11.9767 2.25524 11.9193 2.33136 11.8766C2.66671 11.6837 2.94527 11.4058 3.13897 11.0709C3.33267 10.736 3.43466 10.356 3.43466 9.96915C3.43466 9.58228 3.33267 9.20225 3.13897 8.86737C2.94527 8.53249 2.66671 8.25459 2.33136 8.06169C2.25645 8.01911 2.19078 7.96201 2.13821 7.89374C2.08563 7.82546 2.04721 7.74738 2.02519 7.66407C2.00316 7.58076 1.99798 7.4939 2.00994 7.40856C2.02191 7.32322 2.05078 7.24113 2.09486 7.16709L3.75039 4.2982C3.79396 4.22293 3.85202 4.15705 3.92122 4.10436C3.99041 4.05167 4.06936 4.01322 4.1535 3.99123C4.23765 3.96923 4.32531 3.96414 4.41144 3.97623C4.49756 3.98833 4.58044 4.01738 4.65527 4.06169C4.98838 4.25895 5.36839 4.36302 5.75553 4.36302C6.14266 4.36302 6.52267 4.25895 6.85578 4.06169C7.19203 3.86878 7.47105 3.59009 7.66435 3.25407C7.85765 2.91805 7.95831 2.53675 7.95604 2.1491C7.95604 1.97456 8.02537 1.80717 8.14879 1.68375C8.27221 1.56034 8.4396 1.491 8.61414 1.491H11.9252C12.1007 1.4937 12.268 1.56531 12.3912 1.69036C12.5143 1.81542 12.5833 1.98388 12.5833 2.15938C12.5859 2.54566 12.6898 2.9245 12.8844 3.25816C13.0791 3.59182 13.3577 3.86866 13.6927 4.0611C14.0276 4.25353 14.4071 4.35485 14.7934 4.35496C15.1797 4.35506 15.5593 4.25395 15.8943 4.06169C15.9675 4.01714 16.049 3.9878 16.1338 3.97543C16.2186 3.96306 16.305 3.96792 16.3879 3.98971C16.5568 4.03602 16.7008 4.14679 16.7889 4.2982L18.4959 7.16709C18.5402 7.24192 18.5692 7.3248 18.5813 7.41092C18.5934 7.49705 18.5883 7.58471 18.5663 7.66886C18.5444 7.753 18.5059 7.83195 18.4532 7.90114C18.4005 7.97034 18.3346 8.0284 18.2594 8.07197C17.924 8.26487 17.6455 8.54277 17.4518 8.87765C17.2581 9.21253 17.1561 9.59256 17.1561 9.97943C17.1561 10.3663 17.2581 10.7463 17.4518 11.0812C17.6455 11.4161 17.924 11.694 18.2594 11.8869C18.3343 11.9295 18.4 11.9866 18.4525 12.0548C18.5051 12.1231 18.5435 12.2012 18.5656 12.2845C18.5876 12.3678 18.5928 12.4547 18.5808 12.54C18.5688 12.6253 18.54 12.7074 18.4959 12.7815L16.7889 15.6504C16.7454 15.7256 16.6873 15.7915 16.6181 15.8442C16.5489 15.8969 16.47 15.9354 16.3858 15.9573C16.3017 15.9793 16.214 15.9844 16.1279 15.9723C16.0418 15.9602 15.9589 15.9312 15.8841 15.8869C15.5509 15.6896 15.1709 15.5856 14.7838 15.5856C14.3967 15.5856 14.0167 15.6896 13.6835 15.8869C13.3473 16.0798 13.0683 16.3585 12.875 16.6945C12.6817 17.0305 12.581 17.4118 12.5833 17.7995C12.5833 17.974 12.514 18.1414 12.3905 18.2648C12.2671 18.3882 12.0997 18.4576 11.9252 18.4576H8.61414C8.43866 18.4549 8.27128 18.3833 8.14815 18.2582C8.02502 18.1332 7.95602 17.9647 7.95604 17.7892C7.95755 17.4031 7.85647 17.0235 7.66316 16.6893C7.46984 16.355 7.19122 16.0781 6.85578 15.8869ZM8.12735 13.1805C8.76148 13.6042 9.507 13.8303 10.2697 13.8303C11.2923 13.8303 12.2731 13.4241 12.9963 12.7009C13.7194 11.9778 14.1257 10.997 14.1257 9.9743C14.1257 9.21165 13.8995 8.46612 13.4758 7.832C13.0521 7.19788 12.4499 6.70364 11.7453 6.41179C11.0407 6.11993 10.2654 6.04357 9.51738 6.19236C8.76938 6.34114 8.0823 6.70839 7.54302 7.24767C7.00375 7.78695 6.63649 8.47403 6.48771 9.22203C6.33892 9.97002 6.41528 10.7453 6.70714 11.4499C6.99899 12.1545 7.49323 12.7568 8.12735 13.1805ZM8.98427 8.05059C9.36475 7.79637 9.81206 7.66068 10.2697 7.66068C10.8833 7.66068 11.4717 7.90443 11.9056 8.33832C12.3395 8.77221 12.5833 9.36069 12.5833 9.9743C12.5833 10.4319 12.4476 10.8792 12.1934 11.2597C11.9391 11.6402 11.5778 11.9367 11.155 12.1118C10.7323 12.2869 10.2671 12.3327 9.81829 12.2435C9.36949 12.1542 8.95724 11.9338 8.63368 11.6103C8.31011 11.2867 8.08976 10.8745 8.00049 10.4257C7.91122 9.97687 7.95703 9.51168 8.13215 9.08892C8.30726 8.66616 8.6038 8.30482 8.98427 8.05059Z" fill="#232F3F"/>
</svg>
