<?xml version="1.0" encoding="UTF-8"?>
<svg id="Layer_1" data-name="Layer 1" xmlns="http://www.w3.org/2000/svg" viewBox="0 0 80 80">
  <defs>
    <style>
      .cls-1 {
        fill: #000;
        stroke-width: 0px;
      }
    </style>
  </defs>
  <path class="cls-1" d="M40.03,7.49c-17.89-.02-32.51,14.57-32.53,32.48-.02,17.89,14.57,32.52,32.47,32.54,17.89.02,32.51-14.57,32.53-32.48.02-17.9-14.56-32.51-32.47-32.54ZM39.95,69.91c-16.49-.04-29.91-13.53-29.84-30.01.07-16.48,13.51-29.85,29.95-29.81,16.5.04,29.92,13.53,29.85,30-.07,16.48-13.51,29.86-29.95,29.81Z"/>
  <path class="cls-1" d="M57.69,38.78c-.14-.08-.28-.16-.43-.24-8.29-4.46-16.57-8.91-24.86-13.36-.3-.16-.64-.26-.84-.34-.79.07-1.22.39-1.34,1.04-.05.29-.05.59-.05.89,0,8.83,0,17.65,0,26.48,0,.24,0,.49.02.73.12.93.88,1.41,1.76,1.1.23-.08.44-.21.65-.32,6.21-3.34,12.43-6.68,18.64-10.03,2.14-1.15,4.29-2.29,6.42-3.47,1.15-.64,1.14-1.8,0-2.48ZM32.79,51.68v-23.36c7.22,3.89,14.36,7.74,21.67,11.68-7.31,3.94-14.44,7.78-21.67,11.68Z"/>
</svg>