<?xml version="1.0" encoding="UTF-8"?>
<svg xmlns="http://www.w3.org/2000/svg" viewBox="0 0 512.45 171.33">
  <defs>
    <style>
      .cls-1 {
        mix-blend-mode: multiply;
        opacity: .4;
      }

      .cls-2 {
        isolation: isolate;
      }
    </style>
  </defs>
  <g class="cls-2">
    <g id="Layer_1" data-name="Layer 1">
      <g>
        <path d="m510.91,74.4c-1.84-6.21-5.05-11.93-8.5-17.41,2.18-.11,4.35-.72,6.53-.84-4.68-5.19-10.96-10.23-15.64-15.41-1.49,2.64-3.14,5.14-4.63,7.79,5.1,13,10.21,26.02,14.28,39.39.66,2.17,1.3,4.41,1.13,6.68-.17,2.27-1.32,4.6-3.39,5.54-11.77,5.36-19.49-8.28-22.19-12.88-.43,1.99-.86,4.01-1.73,5.86-.87,1.85-2.22,3.54-4.05,4.42-1.84.89-4.2.83-5.78-.47-1.57-1.3-2.32-4-2.11-7.12-1.1,3.94-4.17,7.28-8.01,8.71-3.84,1.43-8.34.92-11.76-1.34-2.94-1.94-4.95-4.96-7.33-7.56-2.38-2.6-5.53-4.94-9.05-4.74-4.79.26-8.07,5.03-9.41,9.63-2.04,6.99-1.54,14.43,1.73,20.94-8.73.15-16.92,4.4-23.83,9.74-6.91,5.34-12.86,11.81-19.55,17.42-1.66,1.39-3.42,2.76-5.49,3.43-2.07.67-4.52.51-6.16-.92-2.55-2.22-2.09-6.27-1.14-9.51,1.78-6.12,4.45-11.72,8.02-16.92,2.89,1.39,6.32,1.8,9.44,1.01,5.63-1.42,10.09-6.16,12.03-11.64,1.94-5.48,1.59-11.57-.05-17.14-1.65-5.57-4.53-10.7-7.62-15.61,1.96-.1,3.9-.65,5.85-.75-4.2-4.65-9.83-9.17-14.03-13.83-1.34,2.37-2.81,4.61-4.15,6.98,4.58,11.66,9.16,23.34,12.81,35.33.59,1.95,1.17,3.96,1.01,5.99-.15,2.03-1.19,4.12-3.04,4.97-6.19,2.85-10.44-4.78-12.3-9.41-4.91-12.25-8.19-25.15-9.74-38.25-3.66.2-6.17,4.11-6.29,7.77-.12,3.66,1.46,7.12,2.77,10.55,1.64,4.3,2.88,8.75,3.71,13.27.57,3.13.95,6.36.36,9.48-.59,3.13-2.28,6.17-5.02,7.78-4.78,2.8-11.36.22-14.42-4.4-3.06-4.62-3.28-10.58-2.46-16.07.82-5.48,2.56-10.81,3.09-16.33.22-2.31-.03-5.12-2.06-6.24-1.55-.85-3.58-.28-4.87.92s-2,2.9-2.56,4.57c-3.36,10-2.95,20.85-5.04,31.19-.83,4.12-2.53,8.67-6.44,10.19-6.54,2.53-10.04-6.11-10.75-11.15-.51-3.56-.21-7.15.32-10.72.16-1.04-1.28-1.48-1.72-.53-2.74,5.85-3.33,12.72-1.52,18.93.59,2.88,1.64,5.67,3.16,8.19,1.75,2.92,4.57,5.72,7.96,5.54,4.04-.22,6.56-4.37,8.14-8.09,3.43-8.02,5.91-16.44,7.44-25.03-.68,6.32-.34,13.05,1.32,18.92,1.11,3.93,2.87,7.91,6.17,10.3,4.23,3.06,10.28,2.76,14.81.17,4.11-2.35,7.08-6.28,9.11-10.58.71.95,1.56,1.77,2.52,2.47-4.75,6.07-8.04,13.29-9.46,20.87-.64,3.42-.84,7.21,1.07,10.12,2.9,4.41,9.29,4.83,14.38,3.46,7.7-2.08,14.27-7.04,20.47-12.06,6.2-5.02,12.4-10.31,19.8-13.27,7.41-2.96,16.97-2.06,23.39,2.69,2.22-2.89,4.56-6.54,3.2-9.92-1.34-3.35-5.45-4.37-8.91-5.4-3.19-.95-6.36-2.32-8.66-4.72-2.3-2.4-3.56-6.01-2.45-9.15,1.11-3.13,5-5.22,7.99-3.76,2.69,1.32,3.64,4.59,5.25,7.12,2.67,4.17,7.87,6.56,12.78,5.87,4.9-.69,9.82-1.93,11.24-6.68,1.19,4.75,6.39,8.11,11.22,7.25,4.82-.86,9.3-5.5,8.77-10.37,3,5.74,10.38,8.45,16.66,6.86,6.28-1.59,11.25-6.87,13.41-12.97,2.17-6.11,1.78-12.9-.06-19.12Z"/>
        <path d="m486.43,111.78c-1.75,2.63-3.18,5.47-4.25,8.44,2.7,1.21,5.26,3.23,7.96,4.45,1.8-2.76,3.75-5.26,5.55-8.02-2.51-1.68-6.36-4.01-9.25-4.87Z"/>
        <path d="m212.04,91.43c-2.51-1.68-6.36-4.01-9.25-4.87-1.75,2.63-3.18,5.47-4.25,8.44,2.7,1.21,5.26,3.23,7.96,4.45,1.8-2.76,3.75-5.26,5.55-8.02Z"/>
        <path d="m47.47,143.34c2.7,1.21,5.26,3.23,7.96,4.45,1.8-2.76,3.75-5.26,5.55-8.02-2.51-1.68-6.36-4.01-9.25-4.87-1.75,2.63-3.18,5.47-4.25,8.44Z"/>
        <path d="m63.26,139.18c2.7,1.21,5.26,3.23,7.96,4.44,1.8-2.76,3.75-5.26,5.55-8.02-2.51-1.68-6.36-4.01-9.25-4.87-1.75,2.63-3.18,5.47-4.25,8.44Z"/>
        <path d="m405.16,114.4c.99,0,1.79.23,2.78.23,3.67-29.27,1.68-60.37-6.39-88.75,1.94,2.91,5.19,4.38,8.51,5.49-1.52-7.98-3.8-19.17-8.74-25.62-1.4-1.83-3.94-3.66-5.97-4.74-1.33,6.15-4.97,12.24-3.98,18.46,4.29,27.01,13.47,63.63,13.78,94.94Z"/>
        <path d="m321.24,108.73c3.08-27.38,1.41-56.47-5.37-83.01,1.63,2.73,4.36,4.09,7.15,5.13-1.28-7.47-3.19-17.93-7.34-23.96-1.17-1.71-3.31-3.43-5.02-4.43-1.11,5.75-4.17,11.45-3.34,17.26,3.61,25.26,11.32,59.52,11.58,88.8.83,0,1.51.22,2.34.22Z"/>
        <path d="m181.03,118.56c.18.31.38.61.63.89,5.96-6.33,6.03-15.48,5.27-23.61-.86-9.13-2.01-18.18-2.67-27.34-.56-7.78-1.28-15.55-2.33-23.27-.82-6.06-.86-16.23-4.04-21.54,1.63,2.73,4.36,4.09,7.15,5.13-1.28-7.47-3.19-17.93-7.34-23.96-1.17-1.71-3.31-3.43-5.02-4.43-1.11,5.75-4.17,11.45-3.34,17.27,2.33,16.34,4.74,32.67,6.79,49.05,1.17,9.31,2.24,18.63,3.11,27.98.42,4.47.79,8.95,1.08,13.43.21,3.17-.94,7.49.71,10.42Z"/>
        <path d="m245.35,41.41c-1.53,4.29-2.09,8.91-1.62,13.44.13,1.29.36,2.6.94,3.76.59,1.16,1.59,2.17,2.84,2.5,1.52.4,3.16-.25,4.34-1.29,1.18-1.04,1.98-2.43,2.76-3.79.53,1.88,3.29,2.92,5.24,2.77,1.95-.15,3.69-1.45,4.73-3.11s1.44-3.65,1.55-5.6c.23-4.26-.89-8.59-3.17-12.2-1.11,1.74-2.17,3.75-3.29,5.49,1.74,1.57,3,4.42,2.7,6.74-.18,1.41-1.01,2.93-2.41,3.14-.87.13-1.76-.3-2.35-.95-.59-.65-.93-1.49-1.17-2.34-.81-2.88-.6-5.94-.39-8.93-.98.96-1.86,2.57-2.22,3.89-.31,1.14-.26,2.61-.21,3.79.05,1.18.02,2.39-.42,3.49-.44,1.09-1.36,2.06-2.53,2.26-1.35.24-2.72-.61-3.43-1.78-.71-1.17-.86-2.6-.8-3.97.1-2.27.73-4.52,1.83-6.51-.72-.5-2.19-.3-2.91-.8Z"/>
        <path d="m347.49,62.5c.59,1.16,1.59,2.17,2.84,2.5,1.52.4,3.16-.25,4.34-1.29,1.18-1.04,1.98-2.43,2.76-3.79.53,1.88,3.29,2.92,5.24,2.77,1.95-.15,3.69-1.45,4.73-3.11,1.03-1.66,1.44-3.65,1.55-5.6.23-4.26-.89-8.59-3.17-12.2-1.11,1.74-2.17,3.75-3.29,5.49,1.74,1.57,3,4.42,2.7,6.74-.18,1.41-1.01,2.93-2.41,3.14-.87.13-1.76-.3-2.35-.95-.59-.65-.93-1.49-1.17-2.34-.81-2.88-.6-5.94-.39-8.93-.98.96-1.86,2.57-2.22,3.89-.31,1.14-.26,2.61-.21,3.79.05,1.18.02,2.39-.42,3.49-.44,1.09-1.37,2.06-2.53,2.26-1.35.24-2.72-.61-3.43-1.78-.71-1.17-.86-2.6-.8-3.97.1-2.27.73-4.52,1.83-6.51-.72-.5-2.19-.3-2.91-.8-1.53,4.29-2.09,8.91-1.62,13.44.13,1.29.36,2.6.94,3.76Z"/>
        <path d="m451.75,70.62c-1.09-2.17,1.09-5.27,3.03-6.73,1.94-1.46,4.5-1.82,6.92-1.75,1.48.05,3.05.28,4.2,1.22,1.48,1.22,1.88,3.38,1.49,5.26-.39,1.88-.96,4.02-1.98,5.64,3.56-2.93,6.17-6.99,7.36-11.44.51-1.9.71-4.07-.4-5.69-1.15-1.68-3.34-2.24-5.35-2.54-3.35-.49-6.83-.57-10.05.45-3.23,1.02-6.18,3.27-7.44,6.41-1.26,3.14-.5,7.15,2.22,9.17Z"/>
        <path d="m217.75,22.31c-1.09-2.17,1.09-5.27,3.03-6.73,1.94-1.46,4.5-1.82,6.92-1.75,1.48.05,3.05.28,4.2,1.22,1.48,1.22,1.88,3.38,1.49,5.26-.39,1.88-.96,4.02-1.98,5.64,3.56-2.93,6.17-6.99,7.36-11.44.51-1.9.71-4.07-.39-5.69-1.15-1.68-3.34-2.24-5.35-2.54-3.35-.49-6.83-.57-10.05.45-3.23,1.02-6.18,3.27-7.44,6.41-1.26,3.14-.5,7.15,2.22,9.17Z"/>
        <path d="m60.17,43.87c-1.09-2.17,1.09-5.27,3.03-6.73,1.94-1.46,4.5-1.82,6.92-1.75,1.48.05,3.05.28,4.2,1.22,1.48,1.22,1.88,3.38,1.49,5.26-.39,1.88-.96,4.02-1.98,5.64,3.56-2.93,6.17-6.99,7.36-11.44.51-1.9.71-4.07-.39-5.69-1.15-1.68-3.34-2.24-5.35-2.54-3.35-.49-6.83-.57-10.05.45-3.23,1.02-6.18,3.27-7.44,6.41-1.26,3.14-.5,7.15,2.22,9.17Z"/>
        <path d="m465.1,150.32c18.79-11.65,23.83-14.29,38.12-19.03v-1.35c.18-1.68.13-3.78.31-5.45-14.8,5.87-28.83,13.67-41.64,23.14,1.15.71,2.07,1.99,3.21,2.7Z"/>
        <path d="m407.15,158.41c19.62-12.16,24.88-14.92,39.8-19.87v-1.41c.18-1.75.14-3.94.32-5.7-15.45,6.13-30.11,14.27-43.47,24.16,1.2.74,2.16,2.08,3.36,2.82Z"/>
        <path d="m301.74,158.41c19.62-12.16,24.88-14.92,39.8-19.87v-1.41c.18-1.75.14-3.94.32-5.7-15.45,6.13-30.11,14.27-43.47,24.16,1.2.74,2.16,2.08,3.36,2.82Z"/>
        <path d="m240.39,37.14c18.79-11.65,23.83-14.29,38.12-19.03v-1.35c.18-1.68.13-3.78.31-5.45-14.8,5.87-28.83,13.67-41.64,23.14,1.15.71,2.07,1.99,3.21,2.7Z"/>
        <path d="m180.93,169.51c18.79-11.65,23.83-14.29,38.12-19.03v-1.35c.18-1.68.13-3.78.31-5.45-14.8,5.87-28.83,13.67-41.64,23.14,1.15.71,2.07,1.99,3.21,2.7Z"/>
        <path d="m90.13,171.33c18.79-11.65,23.83-14.29,38.12-19.03v-1.35c.18-1.68.13-3.78.31-5.45-14.8,5.87-28.83,13.67-41.64,23.14,1.15.71,2.07,1.99,3.21,2.7Z"/>
        <path d="m112.69,38c-1.53,4.29-2.09,8.91-1.62,13.44.13,1.29.36,2.6.94,3.76.59,1.16,1.59,2.17,2.84,2.5,1.52.4,3.16-.25,4.34-1.29,1.18-1.04,1.98-2.43,2.76-3.79.53,1.88,3.29,2.92,5.24,2.77s3.69-1.45,4.73-3.11c1.03-1.66,1.44-3.65,1.55-5.6.23-4.26-.89-8.59-3.17-12.2-1.11,1.74-2.17,3.75-3.29,5.49,1.74,1.57,3,4.42,2.7,6.74-.18,1.41-1.01,2.93-2.41,3.14-.87.13-1.76-.3-2.35-.95-.59-.65-.93-1.49-1.17-2.34-.81-2.88-.6-5.94-.39-8.93-.98.96-1.86,2.57-2.22,3.89-.31,1.14-.26,2.61-.21,3.79.05,1.18.02,2.39-.42,3.49-.44,1.09-1.36,2.06-2.53,2.26-1.35.24-2.72-.61-3.43-1.78-.71-1.17-.86-2.6-.8-3.97.1-2.27.73-4.52,1.83-6.51-.72-.5-2.19-.3-2.91-.8Z"/>
        <path d="m142.71,6.8v-1.35C142.89,3.78,142.84,1.68,143.02,0c-14.8,5.87-28.83,13.67-41.64,23.14,1.15.71,2.07,1.99,3.21,2.7,18.79-11.65,23.83-14.29,38.12-19.03Z"/>
        <path d="m357.59,40.42c2.22-10.89-1.77-23.66-4.21-34.5-1.7,2.03-3.4,4.06-5.1,6.09,3.74,9.43,7.16,20.38,7.98,30.49.65-.36,1.17-1.35,1.32-2.09Z"/>
        <path d="m211.39,35.05c2.22-10.89-1.77-23.66-4.21-34.5-1.7,2.03-3.4,4.06-5.1,6.09,3.74,9.43,7.16,20.38,7.98,30.49.65-.36,1.17-1.35,1.32-2.09Z"/>
        <path d="m294.97,23.68c1.63,2.73,4.36,4.09,7.15,5.13-1.28-7.47-3.19-17.93-7.34-23.96-1.17-1.71-3.31-3.43-5.02-4.43-1.11,5.75-4.17,11.45-3.34,17.26,1.86,13.02,4.31,25.96,6.41,38.94,1.29,7.98,2.73,15.94,3.72,23.97.75,6.06,2.12,12.69.5,18.8-1.94,7.35-9.07,11.45-14.98,15.44-7.85,5.3-15.69,10.6-23.54,15.91-37.57,23.11-20.67-20.76-18.97-25,.41-.92.82-1.85,1.26-2.76,4.61,3.66,9.75,7.76,14.29,11.36,2-5.9-3.84-11.02-7.62-14.89,9.51-4.24,26.1-12.27,35.6-16.51,1.69-3.71,3.81-7.55,5.49-11.26-16.96-1.93-33.9-3.97-50.87-5.9-5.95-.68-12.84-1.03-16.97,3.3-4.05,4.25-3.35,11.46.06,16.23.56.78,1.14,1.53,1.75,2.28,2.77,3.4,5.97,6.24,9.9,8.24l.92.76c-9.68,7.35-18.07,13.59-27.82,20.9-4.84,3.63-9.61,7.42-14.58,10.86-6.51,4.5-11.89,10.16-19.9,12-3.21.74-6.9.79-9.9-.7-.37-.27-.88-.59-1.57-.98-.64-.5-1.24-1.06-1.78-1.65-2.66-3.7-2.94-11.28-2.66-17.3.42-2.29.51-3.99.47-5.33,2.13-2.05,3.99-4.32,5.36-6.96,2.08-4.02,2.79-8.38,2.7-12.86-.77-23.47-1.46-44.35-8.24-70.89,1.63,2.73,4.36,4.09,7.15,5.13-1.28-7.47-3.19-17.93-7.34-23.96-1.17-1.71-3.31-3.43-5.02-4.43-1.11,5.75-4.17,11.45-3.34,17.26,3.31,23.2,10.08,53.98,11.37,81.52-.28.65-.6,1.29-.95,1.91-3.32,5.92-9.14,9.93-14.76,13.72-7.85,5.3-15.69,10.6-23.54,15.91-37.57,23.11-20.67-20.76-18.97-25,.88-1.98,1.82-3.94,2.81-5.86,2.08-.68,4.13-1.51,6.16-2.34,11.19-4.61,23.53-4.5,32.62-12.49,3.89-3.42,5.24-8.03,4.97-13.2-10.53.66-21.22-1.4-30.75-5.92-6-2.85-12.36-6.77-18.8-5.13-6.49,1.66-10.38,8.63-11.01,15.31-.01,0-.02.01-.03.02,2.29,2.08,4.67,4.21,7.59,5.21,2.92,1.01,6.54.18,8.5-2.21-1.01-1.29-2.03-2.59-3.04-3.88-.14-.18-.29-.33-.45-.48.56-.85,1.33-1.59,2.21-2.09,1.95-1.09,4.31-1.21,6.51-.85,2.2.36,4.3,1.18,6.42,1.88,5.16,1.72,13.39,4.34,18.8,4.8-7.71,3.25-18.89,5.21-26.6,8.45-5.24,2.21-11.31,4.4-16.4,1.86-3.77-1.88-5.91-5.86-8.23-9.38-2.32-3.52-5.63-7.06-9.84-7.08-3.79-.02-7.01,2.89-8.98,6.13-5.62,9.25-4.56,21.36-2.14,31.91-8.19.86-15.41,5.66-21.74,10.92-6.33,5.26-12.25,11.19-19.52,15.03-2.74,1.45-6,2.59-8.87,1.43-2.49-1-4.08-3.59-4.51-6.25s.15-5.36.96-7.92c2.11-6.72,6.21-12.6,11.14-17.63-.42-.94-.8-2.05-1.83-2.05-8.54,7.12-14.27,17.51-15.75,28.53-.67,5.04-.27,10.71,3.29,14.34,2.26,2.31,5.53,3.44,8.76,3.59,7.16.33,13.78-3.79,19.09-8.61,5.3-4.82,9.87-10.51,15.81-14.52,6.76-4.57,14.64-6.72,22.18-2.94,5.43,2.72,9.98,5.15,13.2-1.89,1.36-2.96,3.54-6.06,3.78-9.31-4.67-5.76-14.35-5.84-18.26-12.14-2.66-4.28-1.17-10.6,3.12-13.24,2.23-1.38,5.29-1.72,7.42-.18,2.46,1.77,2.86,5.21,4.36,7.84,2.37,4.15,7.5,6.07,12.27,5.92,1.4-.04,2.77-.24,4.13-.53-4.55,10.48-8.05,21.73-10.63,32.81-.71,3.02-1.34,6.13-.97,9.21s1.9,6.18,4.61,7.7c4.78,2.67,10.62-.42,15.19-3.44,12.48-8.24,24.96-16.48,37.44-24.73,2.39-1.58,4.81-3.2,7.08-4.97-2.1,7.21-3.54,15.51-2.8,21.33,1.21,9.52,9.38,18.84,18.92,17.79,5.3-.58,9.77-4.08,13.91-7.43,18.43-14.91,36.85-29.82,55.28-44.73-3.83,9.45-6.85,19.43-9.14,29.27-.71,3.02-1.34,6.13-.97,9.21.37,3.08,1.9,6.18,4.61,7.7,4.78,2.67,10.62-.42,15.19-3.44,12.48-8.24,24.96-16.48,37.44-24.73,6.14-4.06,12.54-8.39,15.93-14.93,2.08-4.02,2.79-8.38,2.7-12.86-.77-23.47-1.46-44.35-8.24-70.89Zm-68.99,54.14c.41-1.66,2.63-1.92,4.33-1.82,12.24.72,24.64,2.11,36.73,4.15-8.76,4.02-17.51,8.03-26.27,12.05-4.29-3.59-8.6-7.37-12.89-10.95-1.06-.89-2.23-2.09-1.9-3.43Z"/>
        <path class="cls-1" d="m421.01,115.58c-3.76.07-7.42.89-10.92,2.24l3.84,10.33c1.03-.52,2.08-1.01,3.16-1.45,4.76-1.9,10.41-2.2,15.54-.92h0c-6.58-2.75-11.62-10.21-11.62-10.21Z"/>
        <path class="cls-1" d="m368.3,115.11c-2.29-5.04-3.77-10.63-4.63-14.61.31,2.35.4,4.72-.04,7.04-.59,3.13-2.28,6.17-5.02,7.78-1.86,1.09-4,1.36-6.09,1.01l-.46,4.83,1.61,6.42c1.94-.27,3.83-.92,5.52-1.88,4.11-2.35,7.08-6.28,9.11-10.58Z"/>
        <path class="cls-1" d="m240.77,92.21s4.76,5.25,6.73,7.24c2.06-.92,4.47-2.02,7.05-3.22l-6.18-7.51c-2.53,1.16-5.06,2.32-7.6,3.48Z"/>
        <path class="cls-1" d="m233.39,96.6c-2.69,2.04-5.27,3.99-7.81,5.91l4.29,7.99c2.53-2.05,5.06-4.1,7.6-6.15l1.54-1.94-5.61-5.81Z"/>
        <path class="cls-1" d="m155.17,119.72c.42-2.29.51-3.99.47-5.33l-3.49,3c-2,6.85-3.37,14.68-2.87,20.44l7-4.15c-1.21-3.98-1.32-9.41-1.11-13.95Z"/>
        <path class="cls-1" d="m60.39,110.4c-6.06.63-11.59,3.43-16.62,6.97l3.81,9.67c6.68-4.4,14.41-6.42,21.82-2.7.74.37,1.47.74,2.18,1.07-8.96-4.35-11.19-15.01-11.19-15.01Z"/>
      </g>
    </g>
  </g>
</svg>