<?xml version="1.0" encoding="UTF-8"?>
<svg id="Layer_1" data-name="Layer 1" xmlns="http://www.w3.org/2000/svg" viewBox="0 0 80 80">
  <defs>
    <style>
      .cls-1 {
        fill: #000;
        stroke-width: 0px;
      }
    </style>
  </defs>
  <path class="cls-1" d="M75.91,18.01l-26.33-10.15c-1.39-.53-2.95-.47-4.29.16l-6.28,2.99c-2.23-.44-4.48-.19-6.63.77-2.67,1.19-4.7,3.21-5.96,5.31-1.26-2.1-3.29-4.12-5.96-5.32-3.79-1.69-7.92-1.18-11.64,1.44-4.06,2.87-6.1,7.43-5.59,12.5.91,9.1,9.33,18,22.51,23.81.02.01.05.02.07.03l.09.04c.17.06.34.09.52.09s.35-.03.52-.09l.09-.04s.05-.02.07-.03c7.4-3.26,13.29-7.5,17.21-12.2.12.42.43.79.87.96l7.21,2.78c.59.23,1.28.35,2.03.35,2.25,0,5-1,6.76-2.61.09-.09.2-.14.32-.18l.58.06,5.1,1.96c.75.29,1.59-.08,1.88-.84.29-.75-.08-1.59-.84-1.88l-5.2-2c-1.31-.51-2.77-.23-3.81.73-.71.65-1.67,1.14-2.61,1.44-1.27.41-2.52.5-3.15.25l-2.14-.82-5.1-1.96c-.16-.06-.33-.09-.5-.1,1.47-2.08,2.55-4.24,3.21-6.43l7.24,2.79c1.76.68,3.82.68,5.67.01,1.99-.72,3.46-2.11,4.15-3.9.29-.75-.08-1.59-.84-1.88-.59-.23-1.23-.05-1.62.4-.11.12-.2.27-.26.43-.78,2.04-3.73,3.11-6.05,2.22l-7.26-2.8c-.14-.05-.28-.1-.42-.14-.47-.13-.96-.18-1.44-.15-.52.03-1.04.15-1.53.37,0,0-.01,0-.02,0l-8.3,3.68c-.8.36-1.71.32-2.5-.1-1.11-.59-1.69-1.91-1.39-3.13.21-.86.8-1.56,1.58-1.91l10.22-4.37,1.34-.57,1.33-.57,3.78-1.62c.21-.09.38-.22.52-.38.24-.27.37-.63.36-.99,0-.18-.04-.36-.12-.53-.32-.74-1.17-1.08-1.91-.77l-1.84.79-2.12.91c-.3-.46-.63-.9-1-1.32-.72-.84-1.56-1.61-2.52-2.29-.41-.29-.82-.55-1.24-.78l3.76-1.79c.62-.3,1.35-.32,1.99-.08l20.66,7.96,5.67,2.19c.17.07.35.1.52.1.58,0,1.14-.35,1.36-.93.29-.75-.08-1.59-.84-1.88ZM44.81,18.01l-10.01,4.28c-1.63.72-2.81,2.14-3.25,3.88-.62,2.49.58,5.18,2.84,6.39.86.46,1.8.69,2.73.69.79,0,1.58-.16,2.32-.5l6-2.66c-.93,2.13-2.34,4.26-4.18,6.3-3.59,3.99-8.59,7.43-14.84,10.26-6.26-2.82-11.25-6.27-14.84-10.26-3.2-3.55-5.09-7.34-5.45-10.96-.41-4.06,1.15-7.55,4.38-9.83,2-1.41,3.84-1.89,5.43-1.89,1.31,0,2.44.33,3.34.73,3.23,1.44,5.44,4.67,5.7,6.95.09.73.71,1.29,1.45,1.29s1.36-.55,1.45-1.29c.26-2.28,2.47-5.51,5.7-6.95.28-.12.58-.24.9-.34.67-.21,1.42-.36,2.25-.38.81-.02,1.68.08,2.61.37.53.16,1.08.39,1.65.68.44.23.9.51,1.36.83.98.69,1.8,1.5,2.47,2.4Z"/>
  <path class="cls-1" d="M58.43,54.37c-.85-1.31-2.17-2.21-3.69-2.53-1.53-.32-3.09-.03-4.4.82l-6.32,4.11c-.11-.42-.29-.82-.53-1.19-.83-1.28-2.31-2-3.85-1.89l-9.44.73-7.65-1.68c-4.09-.9-8.45-.1-11.96,2.19l-5.12,3.33c-.67.44-.86,1.34-.43,2.01.44.67,1.34.86,2.01.43l1.49-.97,3.63-2.36c2.86-1.86,6.41-2.51,9.75-1.78l7.86,1.72c.14.03.28.04.42.03l9.65-.75c.49-.04.94.18,1.19.57.19.29.25.63.18.97-.07.34-.27.63-.56.82-.17.11-.37.18-.6.2l-13.73,1.07c-.71.06-1.26.61-1.33,1.3,0,.09-.01.18,0,.27.06.76.7,1.34,1.45,1.34.04,0,.08,0,.11,0l8.44-.66,5.31-.41c.72-.07,1.37-.29,1.94-.66.1-.06.19-.13.28-.2.06-.03.12-.06.18-.1l9.21-6c.66-.43,1.44-.57,2.21-.41.65.14,1.22.48,1.65.99l-19.92,13.02c-1.2.79-2.64,1.07-4.05.8l-10.27-1.98-1.95-.38c-1.78-.34-3.59.01-5.11,1l-1.82,1.19c-.67.44-.86,1.34-.43,2.01.44.67,1.34.87,2.01.43l1.82-1.19c.88-.57,1.94-.78,2.97-.58l12.22,2.36c.53.1,1.07.15,1.61.15,1.62,0,3.21-.47,4.59-1.37l21.15-13.83c.67-.44.86-1.34.42-2.01l-.6-.92Z"/>
</svg>