<?xml version="1.0" encoding="UTF-8"?>
<svg id="Layer_1" data-name="Layer 1" xmlns="http://www.w3.org/2000/svg" viewBox="0 0 80 80">
  <defs>
    <style>
      .cls-1 {
        fill: #000;
        stroke-width: 0px;
      }
    </style>
  </defs>
  <path class="cls-1" d="M33.91,28.6l5.59,5.36c.49.47,1.27.45,1.75-.04l10.73-11.19c7.51-8.23-3.28-20.01-12.12-13.19-9.11-6.42-19.44,5.78-11.54,13.7l5.59,5.36ZM29.82,12.25h0c2.48-2.54,6.54-2.65,9.16-.25.23.25.56.4.9.4.34,0,.67-.13.91-.38,6.14-6.05,15.16,2.6,9.4,9l-9.86,10.29-10.29-9.86c-2.59-2.49-2.68-6.6-.21-9.21Z"/>
  <path class="cls-1" d="M74.37,40.9h0s-6.33-8.49-6.33-8.49c-.17-.2-.39-.36-.64-.44l-11.57-3.41h0c-.65-.18-1.32.19-1.51.84-.19.65.17,1.33.81,1.53l7.42,2.18-22.63,6.25-22.64-6.25,7.58-2.23h0c.65-.19,1.03-.88.83-1.53-.19-.65-.88-1.03-1.53-.84l-11.72,3.45h0c-.26.1-.49.27-.66.48l-6.16,8.82c-.22.32-.28.73-.16,1.1.12.37.41.66.78.78l5.31,1.77v15.37c0,.51.31.96.78,1.15l26.7,10.69h0c.27.3.67.43,1.06.36.21.05.43.03.63-.06l26.8-10.81h0c.47-.19.77-.64.77-1.15v-15.74l5.5-1.9c.37-.13.66-.43.77-.81.11-.38.05-.78-.19-1.1ZM8.59,41.33l4.71-6.75,24.48,6.76-6.12,7.68c-3.48-1.16-19.97-6.66-23.08-7.69ZM38.68,69.32l-24.66-9.87v-13.71s17.69,5.9,17.69,5.9h0c.49.17,1.04,0,1.36-.4l5.62-7.05v25.14ZM41.15,69.57v-25.45l5.79,7.12h0c.33.4.87.56,1.36.39l17.5-6.06v14.05s-24.65,9.95-24.65,9.95ZM48.32,49.01l-6.24-7.68,24.49-6.76,4.8,6.45-23.05,7.99Z"/>
</svg>