<?xml version="1.0" encoding="UTF-8"?>
<svg id="Layer_1" data-name="Layer 1" xmlns="http://www.w3.org/2000/svg" viewBox="0 0 80 80">
  <defs>
    <style>
      .cls-1 {
        fill: #000;
        stroke-width: 0px;
      }
    </style>
  </defs>
  <path class="cls-1" d="M78.72,65.81c-.38-.72-1-1.29-1.57-1.86-.64-.65-1.29-1.3-1.93-1.94-3.15-3.16-6.3-6.31-9.46-9.46-.19-.19-.37-.4-.55-.59,6.81-9.04,4.6-20.99-3.35-27.24-7.82-6.15-18.88-5.5-25.89,1.51-6.98,6.98-7.61,18.1-1.52,25.84,6.22,7.9,18.2,10.24,27.38,3.3.16.2.31.44.5.64,4.11,4.12,8.22,8.23,12.33,12.34.76.76,1.89,1.17,2.92.71.71-.32,1.19-.92,1.36-1.6.13-.53.08-1.1-.21-1.64ZM49.72,54.64c-8.1-.04-14.62-6.65-14.58-14.76.04-8.01,6.63-14.52,14.67-14.49,8.08.03,14.6,6.58,14.58,14.66-.02,8.04-6.65,14.63-14.67,14.59Z"/>
  <path class="cls-1" d="M2.74,9c.36.11.75.12,1.12.12,8.78,0,17.57,0,26.35,0s17.52,0,26.28,0c.25,0,.51.01.76,0,1.15-.09,2.1-1,2.24-2.14.14-1.14-.56-2.26-1.68-2.59-.43-.12-.9-.14-1.35-.14-17.47,0-34.94,0-52.4,0-.25,0-.51,0-.76,0-1.2.08-2.16,1-2.28,2.18-.12,1.15.58,2.23,1.72,2.56Z"/>
  <path class="cls-1" d="M56.57,70.87c-17.54,0-35.09,0-52.63,0-.35,0-.71.02-1.06.09-1.52.34-2.32,2.01-1.63,3.4.53,1.05,1.43,1.39,2.58,1.39,8.81-.02,17.62,0,26.43,0,8.71,0,17.42,0,26.12,0,.33,0,.66,0,.99-.02,1.46-.15,2.46-1.65,2.03-3.06-.36-1.21-1.28-1.79-2.84-1.79Z"/>
  <path class="cls-1" d="M29.56,24.64c.7-.75.93-1.64.52-2.6-.43-1-1.21-1.53-2.33-1.53-4.01,0-8.02,0-12.03,0-4.01,0-8.02,0-12.03,0-1.16,0-2.03.44-2.49,1.52-.7,1.65.53,3.34,2.44,3.35,3.15.02,6.3,0,9.44,0,4.8,0,9.6,0,14.39,0,.79,0,1.52-.16,2.08-.75Z"/>
  <path class="cls-1" d="M2.52,59.29c.44.16.94.22,1.41.22,6.93.01,13.86,0,20.79,0,.99,0,1.98,0,2.97,0,1.12-.02,1.96-.51,2.39-1.56.67-1.63-.54-3.3-2.4-3.31-4.01-.02-8.02,0-12.03,0h0c-4.06,0-8.12,0-12.18,0-1.26,0-2.21.83-2.43,2-.2,1.09.41,2.24,1.48,2.64Z"/>
  <path class="cls-1" d="M12.35,37.58c-2.92,0-5.83,0-8.75,0-1.21,0-2.07.58-2.44,1.58-.61,1.65.59,3.27,2.46,3.29,3.02.02,6.03,0,9.05,0,2.81,0,5.63.01,8.44,0,1.56,0,2.62-1.03,2.62-2.45,0-1.38-1.03-2.4-2.49-2.41-2.97-.02-5.93,0-8.9,0Z"/>
</svg>