<?xml version="1.0" encoding="UTF-8"?>
<svg id="Layer_1" data-name="Layer 1" xmlns="http://www.w3.org/2000/svg" viewBox="0 0 80 80">
  <path d="m16.01,50.13c5.19,0,10.38,0,15.57,0,3.8,0,6.39-2.59,6.4-6.4,0-9.24,0-18.48,0-27.72,0-3.8-2.59-6.39-6.39-6.4-5.19,0-10.38,0-15.57,0-3.8,0-6.39,2.59-6.4,6.4,0,4.62,0,9.24,0,13.86s0,9.24,0,13.86c0,3.8,2.6,6.4,6.4,6.4Zm-2.34-34.12c0-1.56.78-2.34,2.32-2.34,5.21,0,10.42,0,15.64,0,1.5,0,2.3.8,2.3,2.31,0,9.26,0,18.53,0,27.79,0,1.52-.79,2.31-2.29,2.31-5.23,0-10.47,0-15.7,0-1.45,0-2.26-.82-2.27-2.28,0-4.64,0-9.28,0-13.93s0-9.24,0-13.86Z"/>
  <path d="m64.02,29.88c-5.21,0-10.42,0-15.63,0-3.76,0-6.36,2.61-6.36,6.37,0,9.26,0,18.52,0,27.78,0,3.75,2.61,6.36,6.37,6.36,5.19,0,10.38,0,15.57,0,3.84,0,6.42-2.58,6.42-6.44,0-4.6,0-9.2,0-13.8,0-4.64,0-9.28,0-13.92,0-3.76-2.6-6.35-6.37-6.36Zm2.32,34.07c0,1.63-.76,2.39-2.41,2.39-5.15,0-10.3,0-15.45,0-1.64,0-2.4-.76-2.4-2.39,0-9.22,0-18.44,0-27.66,0-1.59.77-2.36,2.37-2.36,5.17,0,10.34,0,15.51,0,1.59,0,2.37.78,2.37,2.36,0,4.62,0,9.24,0,13.86s0,9.2,0,13.8Z"/>
  <path d="m47.84,25.8c5.59.05,11.18.05,16.77,0,2.8-.03,5.28-2.2,5.64-4.97.21-1.62.14-3.28.14-4.92,0-3.67-2.63-6.28-6.31-6.29-2.62,0-5.23,0-7.85,0h0c-2.74,0-5.48-.02-8.23,0-2.94.03-5.49,2.15-5.84,5.05-.23,1.91-.25,3.89-.06,5.8.3,3.03,2.8,5.29,5.73,5.32Zm-1.76-10c.01-1.3.85-2.13,2.15-2.13,2.68,0,5.36,0,8.04,0,2.6,0,5.19,0,7.79,0,1.46,0,2.27.81,2.28,2.26,0,1.22,0,2.45,0,3.67,0,1.34-.84,2.16-2.19,2.17-5.3,0-10.59,0-15.89,0-1.34,0-2.17-.84-2.18-2.17,0-1.27,0-2.53,0-3.8Z"/>
  <path d="m32.15,54.2c-5.57-.05-11.14-.05-16.71,0-2.82.02-5.33,2.19-5.69,4.99-.21,1.6-.13,3.24-.13,4.86,0,3.71,2.61,6.32,6.33,6.33,2.59,0,5.19,0,7.78,0,2.7,0,5.4,0,8.1,0,.06,0,.13,0,.19,0,2.93-.07,5.46-2.16,5.82-5.07.22-1.83.2-3.71.09-5.55-.17-3.04-2.76-5.53-5.79-5.55Zm1.77,9.92c0,1.39-.82,2.21-2.2,2.21-2.64,0-5.28,0-7.91,0-2.62,0-5.23,0-7.85,0-1.5,0-2.29-.81-2.29-2.31,0-1.2,0-2.41,0-3.61,0-1.35.83-2.18,2.17-2.18,5.3,0,10.59,0,15.89,0,1.37,0,2.19.83,2.2,2.22,0,1.22,0,2.45,0,3.67Z"/>
</svg>