<?xml version="1.0" encoding="UTF-8"?>
<svg id="Layer_1" data-name="Layer 1" xmlns="http://www.w3.org/2000/svg" viewBox="0 0 80 80">
  <path d="m64.47,12.74C56.67,4.01,46.83.41,35.25,1.97c-8.04,1.08-14.83,4.83-19.95,11.12-8.44,10.37-10.07,21.83-4.71,34.15,2.6,5.98,6.55,11.07,10.93,15.84,4.27,4.64,9.05,8.75,13.73,12.97,1.18,1.07,2.4,2.04,4.02,2.34h1.5c1.02-.5,2.21-.81,3.03-1.53,5.08-4.44,10.19-8.85,14.77-13.83,4.38-4.77,8.25-9.9,10.93-15.84,1.89-4.19,3.03-8.57,2.99-13.19-.08-8.05-2.64-15.23-8.03-21.25Zm.64,33.23c-2.96,6.22-7.2,11.51-12.07,16.29-3.9,3.83-8.02,7.44-12.05,11.14-.71.65-1.16.67-1.84.06-5.56-4.98-11.28-9.81-16.16-15.51-3.72-4.35-6.97-8.99-9.06-14.38-1.8-4.65-2.4-9.44-1.42-14.34,2.06-10.36,8.05-17.5,17.88-21.39,3.1-1.23,6.35-1.69,10.71-1.77,10.37.54,18.98,5.61,24.09,15.92,3.93,7.92,3.72,15.99-.08,23.97Z"/>
  <path d="m40.04,18.54c-7.88-.01-14.29,6.38-14.31,14.29-.02,7.86,6.41,14.32,14.28,14.34,7.85.02,14.3-6.42,14.32-14.31.02-7.87-6.4-14.31-14.28-14.32Zm.02,24.13c-5.39.03-9.82-4.39-9.84-9.81-.01-5.41,4.39-9.82,9.8-9.82,5.42,0,9.82,4.42,9.8,9.83-.02,5.39-4.38,9.77-9.77,9.8Z"/>
</svg>