<?xml version="1.0" encoding="UTF-8"?>
<svg id="Layer_1" data-name="Layer 1" xmlns="http://www.w3.org/2000/svg" viewBox="0 0 80 80">
  <path d="m71.61,32.42c-2.94-12.49-13.39-22.32-26.01-24.45-1.18-.2-2.38-.33-3.57-.49h-4.06c-1.17.16-2.34.29-3.5.49-7.39,1.28-13.59,4.74-18.61,10.28-4.48,4.95-7.14,10.77-8.07,17.38-.11.77-.19,1.55-.28,2.32v4.06c.04.18.09.37.11.55.58,7.03,3.07,13.32,7.77,18.56,8.79,9.79,19.78,13.41,32.55,10.32,17.37-4.21,27.77-21.63,23.68-39.02Zm-31.63,36.8c-16.16,0-29.26-13.13-29.22-29.29.03-16.16,13.11-29.21,29.25-29.2,16.18.01,29.27,13.13,29.23,29.28-.04,16.15-13.13,29.21-29.26,29.2Z"/>
  <path d="m36.27,27.45c-.77-.67-1.77-.6-2.37.12-.59.69-.5,1.63.24,2.32.56.52,1.14,1.01,1.72,1.51,3.25,2.84,6.49,5.68,9.8,8.58-.22.2-.38.36-.55.51-3.64,3.19-7.29,6.37-10.93,9.57-.79.69-.87,1.65-.26,2.36.61.71,1.6.77,2.37.1,4.29-3.74,8.57-7.48,12.84-11.24.88-.78.88-1.81,0-2.59-4.27-3.75-8.55-7.5-12.84-11.23Z"/>
</svg>