<?xml version="1.0" encoding="UTF-8"?>
<svg id="Layer_1" data-name="Layer 1" xmlns="http://www.w3.org/2000/svg" viewBox="0 0 80 80">
  <path d="m69.94,50.47c-.21-1.32-.97-2.5-2.09-3.24-1.85-1.26-4.33-1.04-5.93.53l-.12.11c.14-.88.22-1.78.22-2.67,0-5.74-5.74-12.31-10.79-16.98.45-.73.53-1.62.24-2.42.94-.83,2.32-.92,3.36-.22.78.54,1.5,1.16,2.14,1.86,1.27,1.3,2.48,2.54,5.16,2.54.81,0,1.62-.1,2.42-.26.61-.11,1.01-.69.9-1.3-.11-.61-.69-1.01-1.3-.9-.02,0-.04,0-.05.01-3.29.67-4.14-.2-5.54-1.64-.75-.82-1.6-1.55-2.52-2.17-1.3-.87-2.94-1.07-4.4-.53,0-.14-.02-.28-.04-.41,1.03-1,2.44-1.99,3.68-1.55.89.34,1.73.78,2.52,1.31.55.37,1.13.69,1.73.97.57.23,1.22-.05,1.45-.62.22-.55-.03-1.17-.56-1.42-.5-.24-.98-.51-1.44-.81-.92-.62-1.92-1.13-2.96-1.52-1.24-.44-3.18-.46-5.6,1.71-.24-.17-.5-.3-.78-.39l3.22-3.37c.95-1.03.89-2.65-.15-3.6-.22-.21-.48-.37-.77-.49l-1.5-.63.37-.84c.43-1.09-.1-2.32-1.19-2.75-.25-.1-.53-.15-.8-.15h-9.37c-1.17,0-2.13.93-2.14,2.1,0,.27.05.54.15.8l.37.84-1.51.63c-1.3.53-1.93,2.02-1.4,3.32.12.28.28.54.49.77l3.21,3.37c-1.51.48-2.35,2.09-1.87,3.6.11.34.28.66.5.93-.75.93-.84,2.23-.22,3.25-5.05,4.67-10.79,11.23-10.79,16.98,0,1.43.17,2.84.51,4.23-.45.23-.88.5-1.27.83-1.37,1.08-2.9,1.92-4.55,2.5v-.84c0-1.85-1.5-3.35-3.35-3.35h-6.46c-.62,0-1.12.5-1.12,1.12v20.57c0,.62.5,1.12,1.12,1.12h6.47c1.85,0,3.35-1.5,3.35-3.35v-.41l3.48-.28c2.19-.17,4.39.04,6.5.64.08.02,7.61,1.56,10.08,2.14,1.73.41,3.51.63,5.29.64,2.98.09,5.91-.79,8.34-2.51,4.02-3,13.91-13.62,14.4-14.15.8-1.03,1.13-2.35.92-3.64Zm-31.09-23.7c0-.37.3-.67.67-.67h9.21c.37,0,.67.3.67.67s-.3.67-.67.67h-9.21c-.37,0-.67-.3-.67-.67h0Zm0-3.57c0-.37.3-.67.67-.67h9.21c.37,0,.67.3.67.67s-.3.67-.67.67h-9.21c-.37,0-.67-.3-.67-.67,0,0,0,0,0,0h0Zm-1.9-7.9c.03-.11.11-.21.22-.25l1.55-.64.96,2.19c.25.56.91.81,1.47.57.56-.25.82-.91.57-1.47l-1.35-3.06s-.03-.04-.04-.06,0-.05-.02-.07l-.73-1.65,9.08-.05-.75,1.7-1.41,3.19c-.25.56,0,1.22.57,1.47.56.24,1.22-.01,1.47-.57l.96-2.19,1.55.65c.2.08.33.31.15.49l-4.53,4.76h-5.14l-4.53-4.76c-.06-.06-.09-.15-.07-.24h0Zm-8.48,29.92c0-3.96,3.69-9.5,10.38-15.63.22.05.44.08.67.08h9.21c.23,0,.45-.03.67-.08,6.7,6.12,10.38,11.66,10.38,15.63,0,1.96-.37,3.91-1.09,5.73l-4.21,4.15c-.92-.96-2.78-2.01-6.57-2.2-3.32-.16-6.56-1.08-9.47-2.68-1.19-.71-2.49-1.21-3.84-1.49-1.89-.39-3.84-.4-5.73-.03-.26-1.14-.39-2.31-.39-3.48h0Zm-9.77,22.83c0,.62-.5,1.12-1.12,1.12h-5.35v-18.34h5.35c.62,0,1.12.5,1.12,1.12v16.11Zm48.61-15.37c-.1.11-10.18,10.92-14.04,13.8-3.55,2.66-8.37,2.27-11.79,1.48-2.5-.58-9.82-2.09-10.06-2.13-2.34-.66-4.78-.89-7.2-.7l-3.3.26v-10.22c2.17-.72,4.2-1.81,6-3.21.7-.6,2.8-1.9,7.23-1.05,1.11.24,2.18.66,3.15,1.24,3.22,1.77,6.8,2.79,10.47,2.97,4.81.24,5.34,1.88,5.35,1.88.14.48.04,1-.26,1.41-.45.68-1.8,1.9-5.87,2.39-1.6.19-3.23-.07-4.69-.75-2.21-.97-4.65-1.32-7.05-1.02-.61.04-1.08.58-1.04,1.19s.58,1.08,1.19,1.04c.03,0,.05,0,.08,0,2.05-.26,4.13.04,6.02.88,1.81.77,3.79,1.08,5.76.88,3.8-.46,6.31-1.6,7.47-3.39.46-.69.69-1.5.67-2.33l8.06-7.94c.86-.83,2.2-.93,3.17-.22,1.16.8,1.45,2.38.66,3.54Z"/>
</svg>