<?xml version="1.0" encoding="UTF-8"?>
<svg id="Layer_1" data-name="Layer 1" xmlns="http://www.w3.org/2000/svg" viewBox="0 0 80 80">
  <path d="m70.46,37.62c-1.28-.98-2.58-1.91-3.85-2.9-.26-.2-.5-.54-.58-.86-.86-3.54-2.35-6.79-4.51-9.71-.23-.32-.26-.57-.12-.93.68-1.69,1.34-3.38,2-5.07.2-.5.33-.99-.11-1.43-.44-.44-.93-.31-1.43-.11-1.69.67-3.39,1.32-5.07,2.01-.35.14-.61.11-.93-.12-2.93-2.16-6.17-3.65-9.72-4.51-.32-.08-.66-.31-.86-.57-1.36-1.76-2.68-3.56-4.02-5.34-.27-.35-.58-.67-.87-1h-.77c-.29.33-.61.65-.87,1-1.33,1.76-2.64,3.54-3.99,5.28-.21.28-.57.53-.91.61-2.79.67-5.4,1.77-7.86,3.25-.33.2-.81.28-1.2.23-2.25-.29-4.5-.64-6.74-.96-1.31-.19-1.75.27-1.57,1.58.32,2.25.67,4.49.96,6.74.05.35,0,.79-.18,1.08-1.51,2.49-2.63,5.14-3.32,7.97-.08.33-.33.69-.61.9-1.85,1.43-3.73,2.81-5.59,4.22-.92.7-.92,1.35,0,2.05,1.85,1.39,3.71,2.76,5.54,4.18.31.24.58.64.67,1.01.68,2.77,1.77,5.36,3.24,7.8.2.33.29.81.24,1.2-.29,2.25-.64,4.49-.96,6.74-.19,1.31.26,1.76,1.57,1.57,2.25-.32,4.49-.67,6.74-.96.39-.05.86.04,1.2.24,2.46,1.48,5.07,2.57,7.86,3.25.33.08.69.34.91.61,1.43,1.85,2.82,3.73,4.22,5.59.7.93,1.35.93,2.05,0,1.38-1.83,2.76-3.66,4.12-5.51.3-.41.63-.64,1.12-.75,2.76-.63,5.32-1.74,7.74-3.2.32-.19.77-.29,1.13-.25,2.25.29,4.5.63,6.74.96,1.38.2,1.84-.25,1.64-1.62-.33-2.25-.67-4.49-.97-6.74-.04-.33,0-.75.18-1.02,1.53-2.51,2.65-5.18,3.34-8.03.07-.3.29-.62.54-.81,1.59-1.23,3.22-2.42,4.83-3.64.52-.4,1.01-.84,1.51-1.26v-.77c-.83-.67-1.65-1.35-2.49-1.99Zm-57.16,4.99c-1.15-.86-2.27-1.7-3.49-2.61,1.17-.88,2.3-1.73,3.49-2.62v5.23Zm47.46-23.36c-1.59,4.06-3.13,8.01-4.74,12.12-.61-1.53-1.2-2.91-1.71-4.31-.26-.71-.68-1.12-1.39-1.37-1.21-.43-2.39-.94-3.58-1.41-.19-.08-.38-.17-.67-.3,4.05-1.58,7.99-3.13,12.09-4.73Zm-2.02,21.77c.58,0,1.15,0,1.73,0-.12,9.66-8.49,19.08-19.42,19.45,0-.6,0-1.19,0-1.78-.01-.75-.43-1.21-1.05-1.19-.6.02-.99.46-1,1.18,0,.6,0,1.19,0,1.79-10.45-.28-19.22-9.29-19.44-19.44h1.08c1.38,0,1.87-.26,1.88-1.01.01-.77-.49-1.04-1.91-1.04h-1.02c0-9.02,7.86-18.96,19.41-19.47,0,.65,0,1.25,0,1.84.01.7.43,1.15,1.03,1.15.6,0,1.01-.45,1.02-1.16.01-.62,0-1.23,0-1.88,2.85.15,5.47.84,8.09,2.12-1.09.43-2.05.81-3.02,1.19-.6.23-1.3.39-1.3,1.21,0,.83.71.98,1.3,1.22,1.91.77,3.82,1.52,5.71,2.31.27.11.56.4.67.67.84,2.01,1.65,4.04,2.45,6.07.2.52.48.94,1.08.94.61,0,.89-.42,1.08-.94.41-1.08.83-2.15,1.26-3.24.97,1.16,2.21,5.62,2.15,7.96-.59,0-1.19,0-1.78,0-.76,0-1.22.4-1.22,1.03,0,.62.46,1.02,1.22,1.03Zm-18.73-31.22c.89,1.19,1.74,2.32,2.62,3.49h-5.24c.88-1.17,1.72-2.29,2.62-3.49Zm-17.22,9.43c-1.17,1.17-2.36,2.35-3.54,3.52-.18-1.21-.38-2.6-.6-4.1,1.46.2,2.86.4,4.14.57Zm-4.12,42.11c.21-1.48.41-2.88.59-4.11,1.18,1.19,2.36,2.38,3.5,3.53-1.21.17-2.6.37-4.09.59Zm21.35,8.84c-.9-1.2-1.74-2.32-2.62-3.49h5.23c-.87,1.16-1.71,2.28-2.62,3.49Zm17.24-9.43c1.17-1.17,2.35-2.37,3.52-3.53.18,1.23.38,2.61.6,4.11-1.45-.2-2.86-.4-4.11-.57Zm.63-3.73c-9.26,9.79-25.01,10.25-34.74,1.02-9.99-9.49-10.49-25.16-1.14-34.96,9.47-9.94,23.66-9.52,31.91-3.37-.72.29-1.4.59-2.11.81-.19.06-.48-.11-.69-.23-3.84-2.15-7.95-3.13-12.34-2.92-10.13.48-18.8,7.78-21.02,17.68-2.92,13.02,5.85,25.69,19.06,27.55,12.38,1.74,23.91-6.97,25.62-19.36.7-5.08-.21-9.85-2.71-14.31-.23-.42-.28-.76-.07-1.19.24-.48.4-.99.6-1.49.01-.03.06-.06.09-.09,5.69,7.45,6.78,21.11-2.44,30.86Zm8.83-14.41v-5.24c1.18.88,2.3,1.72,3.49,2.62-1.19.89-2.32,1.74-3.49,2.62Z"/>
  <path d="m52.24,33.75c-3.92-.98-7.84-1.96-11.77-2.92-.3-.07-.64-.07-.94,0-3.95.97-7.89,1.96-11.83,2.95-.86.22-1.07.47-1.07,1.33,0,5.31,0,10.63,0,15.94,0,.82.22,1.1,1.03,1.3,3.96.99,7.93,1.99,11.9,2.97.28.07.6.08.88.01,3.97-.98,7.93-1.97,11.89-2.97.88-.22,1.07-.49,1.07-1.4,0-2.64,0-5.27,0-7.91s0-5.23,0-7.84c0-.98-.18-1.23-1.15-1.47Zm-23.53,1.9c3.4-.85,6.79-1.7,10.23-2.56v2.15c-3.38.84-6.78,1.7-10.23,2.56v-2.15Zm10.22,17.42c-3.41-.85-6.81-1.7-10.22-2.55v-6.33c3.38-.85,6.77-1.69,10.22-2.56v11.44Zm.03-13.57c-3.4.85-6.8,1.7-10.24,2.56v-2.14c3.38-.85,6.78-1.69,10.24-2.56v2.14Zm2.1-6.41c3.43.85,6.82,1.7,10.24,2.55v2.15c-3.43-.86-6.83-1.71-10.24-2.56v-2.14Zm-.02,4.26c3.45.86,6.83,1.7,10.27,2.56v2.14c-2.14-.53-4.26-1.06-6.37-1.58-1.14-.28-2.28-.58-3.42-.85-.35-.08-.51-.21-.48-.59.03-.53,0-1.06,0-1.68Zm10.3,13.17c-3.44.86-6.83,1.71-10.27,2.56v-11.46c.9.22,1.76.44,2.63.66,2.35.58,4.69,1.18,7.04,1.74.44.11.62.27.61.76-.03,1.88-.01,3.77-.01,5.74Z"/>
</svg>