<?xml version="1.0" encoding="UTF-8"?>
<svg id="Layer_1" data-name="Layer 1" xmlns="http://www.w3.org/2000/svg" viewBox="0 0 80 80">
  <path d="m71.11,36.61c-.35-.45-.73-.88-1.1-1.31-.4-.47-.79-.94-1.2-1.39-.84-.92-1.05-1.99-.81-3.18.23-1.14.45-2.28.64-3.43.44-2.7-.5-4.49-3.01-5.62-.84-.38-1.72-.73-2.62-.94-2.04-.48-3.23-1.7-3.76-3.74-.32-1.21-.83-2.4-1.42-3.51-.78-1.48-2.11-2.27-3.8-2.18-1.34.08-2.69.28-4,.58-1.75.4-3.24.14-4.53-1.19-.62-.63-1.31-1.2-2.01-1.75-2.46-1.94-4.47-1.94-6.95-.03-.18.14-.36.29-.54.44-.72.62-1.45,1.24-2.16,1.87-.89.79-1.93.99-3.07.77-1.16-.22-2.32-.46-3.49-.65-2.67-.44-4.46.51-5.58,2.98-.35.77-.68,1.56-.86,2.38-.51,2.29-1.89,3.59-4.16,4.15-1.15.28-2.27.81-3.32,1.38-1.38.76-2.11,2.03-2.05,3.62.04,1.17.15,2.38.46,3.5.63,2.22.2,4.03-1.5,5.63-1.25,1.17-2.28,2.54-2.78,4.23v1.52c.51,1.71,1.56,3.09,2.82,4.28,1.66,1.57,2.07,3.35,1.47,5.52-.31,1.13-.43,2.33-.48,3.5-.07,1.66.7,2.97,2.15,3.76,1.01.55,2.1,1.04,3.21,1.31,2.27.55,3.67,1.83,4.17,4.13.17.8.5,1.57.83,2.32,1.15,2.58,2.92,3.52,5.71,3.05,1.17-.2,2.33-.43,3.49-.64,1.08-.2,2.06-.01,2.9.72.4.35.82.67,1.21,1.03,1.26,1.16,2.56,2.26,4.25,2.76h1.52c1.69-.49,2.99-1.6,4.25-2.76.36-.33.75-.62,1.11-.95.9-.82,1.96-1.02,3.13-.79,1.14.22,2.28.44,3.43.63,2.72.45,4.49-.48,5.64-2.98.18-.4.34-.82.49-1.24.3-.84.59-1.67.87-2.51.37-1.12,1.11-1.87,2.24-2.24.6-.2,1.21-.39,1.79-.63.96-.38,1.94-.73,2.84-1.22,1.44-.8,2.24-2.09,2.15-3.75-.08-1.36-.26-2.74-.58-4.07-.42-1.77-.11-3.24,1.2-4.52.65-.63,1.23-1.34,1.78-2.06,1.87-2.41,1.87-4.38.02-6.79Zm-1.87,4.93c-.58.78-1.21,1.53-1.89,2.22-1.89,1.93-2.45,4.17-1.78,6.76.24.92.39,1.86.52,2.8.19,1.33-.15,1.99-1.38,2.53-1.01.43-2.05.8-3.1,1.12-2.36.71-3.87,2.23-4.6,4.57-.32,1.03-.66,2.05-1.08,3.04-.56,1.32-1.17,1.66-2.6,1.46-1.38-.19-2.75-.47-4.12-.7-1.66-.27-3.15.15-4.45,1.19-.86.69-1.67,1.43-2.51,2.14-.24.21-.49.41-.75.59-1.16.81-1.88.84-3.01,0-.8-.59-1.57-1.23-2.27-1.93-1.91-1.88-4.13-2.42-6.71-1.79-.94.23-1.9.4-2.86.54-1.34.19-1.98-.14-2.52-1.38-.44-1-.81-2.04-1.12-3.09-.71-2.36-2.23-3.87-4.57-4.6-1.03-.32-2.05-.66-3.04-1.08-1.31-.55-1.66-1.18-1.46-2.6.19-1.38.47-2.75.7-4.12.28-1.69-.16-3.19-1.23-4.51-.68-.84-1.41-1.64-2.11-2.46-.21-.24-.4-.49-.59-.75-.81-1.15-.84-1.88,0-3.01.6-.81,1.26-1.6,1.97-2.32,1.86-1.9,2.38-4.11,1.75-6.66-.23-.92-.39-1.86-.53-2.8-.21-1.4.12-2.04,1.43-2.62.89-.39,1.81-.72,2.74-.98,2.58-.72,4.24-2.33,4.98-4.92.29-1.01.66-2.01,1.09-2.97.51-1.15,1.13-1.48,2.38-1.31,1.4.2,2.79.47,4.18.71,1.76.3,3.31-.18,4.67-1.3.81-.67,1.6-1.38,2.4-2.07.22-.19.46-.38.7-.55,1.18-.82,1.9-.84,3.06.03.78.58,1.53,1.21,2.22,1.89,1.92,1.9,4.17,2.44,6.76,1.78.92-.23,1.86-.39,2.8-.52,1.34-.19,1.99.14,2.53,1.38.42.97.78,1.97,1.07,2.98.72,2.45,2.28,4.03,4.74,4.76,1.07.32,2.12.72,3.15,1.15.88.37,1.38,1.04,1.34,2.06-.22,1.18-.39,2.38-.67,3.55-.6,2.49.06,4.58,1.81,6.4.69.72,1.34,1.48,1.93,2.27.89,1.18.89,1.93.01,3.11Z"/>
  <path d="m40.02,17.91c-12.17-.01-22.09,9.87-22.12,22.05-.03,12.17,9.86,22.1,22.03,22.13,12.17.04,22.11-9.85,22.15-22.02.04-12.2-9.87-22.15-22.07-22.16Zm-.01,41.6c-10.71.03-19.5-8.75-19.52-19.49-.02-10.72,8.74-19.49,19.49-19.52,10.71-.03,19.49,8.74,19.52,19.49.03,10.71-8.74,19.49-19.49,19.52Z"/>
</svg>