<?xml version="1.0" encoding="UTF-8"?>
<svg id="Layer_1" data-name="Layer 1" xmlns="http://www.w3.org/2000/svg" viewBox="0 0 80 80">
  <path d="m39.97,23.62c8.58.13,15.59,6.62,16.22,15.37.6,8.29-5.31,15.61-13.4,17-9.37,1.6-17.98-4.97-18.93-14.44-.18-1.78-.04-3.52.34-5.26.29-1.32,1.47-2.08,2.77-1.81,1.19.25,1.99,1.41,1.72,2.69-.76,3.58-.14,6.88,2.04,9.83,2.75,3.72,7.62,5.41,12.14,4.25,4.53-1.16,7.99-5.02,8.62-9.62,1.11-8.02-5.98-14.64-13.91-13.01-.55.11-1.16.16-1.7.03-.99-.23-1.63-1.16-1.63-2.15,0-.97.62-1.95,1.6-2.18,1.36-.31,2.75-.48,4.13-.71Zm2.34-13.72c-.02-1.37-1-2.39-2.29-2.41-1.32-.01-2.32,1.02-2.32,2.44-.01,2.22-.01,4.44,0,6.67,0,1.43.98,2.47,2.29,2.48,1.33.01,2.32-1.04,2.33-2.51,0-1.09,0-2.17,0-3.26,0-1.14.01-2.27,0-3.41Zm-25.68,32.41c1.42-.01,2.46-1,2.45-2.31,0-1.31-1.04-2.3-2.46-2.3-2.22-.01-4.44-.01-6.67,0-1.42,0-2.45.99-2.45,2.31,0,1.31,1.04,2.29,2.46,2.31,1.11.01,2.22,0,3.33,0,1.11,0,2.22,0,3.33,0Zm46.69-4.61c-1.38.02-2.39,1-2.4,2.29-.01,1.28,1.01,2.31,2.37,2.32,2.27.02,4.54.02,6.81,0,1.37,0,2.39-1,2.4-2.29.01-1.31-1.03-2.31-2.44-2.32-1.11-.01-2.22,0-3.33,0-1.14,0-2.27-.01-3.41,0Zm-21.01,25.65c-.02-1.38-.99-2.4-2.28-2.42-1.32-.02-2.33,1.01-2.34,2.43-.01,2.25-.01,4.49,0,6.74,0,1.37.99,2.4,2.27,2.42,1.31.02,2.32-1.02,2.34-2.43.01-1.11,0-2.22,0-3.33,0-1.14.01-2.27,0-3.41ZM16.96,20.17c1.67,1.75,3.37,3.46,5.11,5.13.89.86,2.29.76,3.14-.11.83-.85.94-2.22.11-3.09-1.7-1.78-3.45-3.52-5.23-5.22-.68-.66-1.57-.71-2.44-.3-.83.4-1.25,1.1-1.33,2.32.13.27.27.88.64,1.27Zm45.29-3.64c-.95-.38-1.81-.21-2.54.5-1.63,1.61-3.26,3.23-4.87,4.87-.97.99-.96,2.39-.04,3.31.92.92,2.31.9,3.31-.08,1.62-1.59,3.24-3.18,4.8-4.83.4-.43.6-1.05.89-1.58-.16-1-.71-1.86-1.56-2.19ZM24.48,54.31c-.95-.38-1.81-.21-2.54.5-1.63,1.61-3.26,3.23-4.87,4.87-.97.99-.97,2.39-.04,3.31.92.91,2.32.9,3.31-.07,1.62-1.59,3.24-3.18,4.8-4.83.41-.43.6-1.05.89-1.59-.15-.98-.71-1.85-1.55-2.19Zm38.64,5.61c-1.72-1.8-3.47-3.57-5.27-5.28-.85-.81-2.2-.67-3.03.14-.85.83-.99,2.21-.17,3.08,1.71,1.8,3.48,3.56,5.27,5.28.66.63,1.53.69,2.38.3.84-.38,1.28-1.07,1.38-2.27-.12-.27-.21-.89-.56-1.25ZM31.5,27.81c-.86-.44-1.7-.33-2.43.29-.42.36-.82.76-1.16,1.19-.55.71-.63,1.5-.22,2.31.37.75.98,1.18,1.82,1.23,1.42.09,3.18-1.55,3.2-2.97.02-.93-.38-1.63-1.21-2.05Z"/>
</svg>