<?xml version="1.0" encoding="UTF-8"?>
<svg id="Layer_1" data-name="Layer 1" xmlns="http://www.w3.org/2000/svg" viewBox="0 0 80 80">
  <path d="m62.16,23.86c0-5.88-4.57-10.43-10.46-10.44-7.8,0-15.6,0-23.4,0-.73,0-1.48.06-2.2.22-4.91,1.05-8.25,5.19-8.26,10.22,0,7.71,0,15.41,0,23.12,0,7.73,0,15.46,0,23.19,0,.16,0,.32,0,.48,0,.96.3,1.5.95,1.74.77.28,1.32-.06,1.83-.61,5.25-5.61,10.51-11.21,15.76-16.82,2.2-2.36,5.01-2.36,7.22,0,5.25,5.61,10.51,11.21,15.76,16.82.51.55,1.07.88,1.83.61.66-.23.95-.78.95-1.74,0-15.6,0-31.2,0-46.79Zm-2.94,43.19c-.05.02-.11.05-.16.07-.28-.3-.56-.6-.84-.9-4.2-4.48-8.39-8.96-12.6-13.43-3.24-3.44-8-3.44-11.23,0-4.34,4.63-8.68,9.26-13.02,13.89-.14.15-.25.33-.37.5-.06-.03-.11-.06-.17-.08-.01-.19-.04-.38-.04-.57,0-14.17-.01-28.34,0-42.51,0-4.45,3.19-7.64,7.64-7.66,7.71-.02,15.42-.02,23.13,0,4.45.01,7.65,3.2,7.65,7.65.02,14.19,0,28.39,0,42.58v.46Z"/>
  <path d="m26.76,10.47c.21.01.42,0,.62,0,4.2,0,8.4,0,12.59,0s8.53,0,12.8,0c.3,0,.6-.01.89-.08.66-.16,1.11-.75,1.11-1.41,0-.66-.45-1.25-1.12-1.4-.31-.07-.64-.08-.96-.08-8.47,0-16.93,0-25.4,0-.18,0-.37,0-.55,0-.91.07-1.52.67-1.51,1.49,0,.81.62,1.41,1.53,1.48Z"/>
</svg>