<?xml version="1.0" encoding="UTF-8"?>
<svg id="Layer_1" data-name="Layer 1" xmlns="http://www.w3.org/2000/svg" viewBox="0 0 80 80">
  <path d="m40,68.7c-15.85,0-28.7-12.84-28.7-28.7s12.84-28.7,28.7-28.7,28.7,12.84,28.7,28.7-12.84,28.7-28.7,28.7Zm0-54.67c-14.35,0-25.97,11.62-25.97,25.97s11.62,25.97,25.97,25.97,25.97-11.62,25.97-25.97-11.62-25.97-25.97-25.97Zm12.7,13.56l-16.21,8.9,1.87,1.87c.93-.93,2.44-.93,3.3,0,.93.93.93,2.44,0,3.3l1.87,1.87,9.18-15.93Zm-9.18,15.93l-1.87-1.87c-.93.93-2.44.93-3.3,0-.93-.93-.93-2.44,0-3.3l-1.87-1.87-8.9,16.21,15.93-9.18Z"/>
</svg>