<?xml version="1.0" encoding="UTF-8"?>
<svg id="Layer_1" data-name="Layer 1" xmlns="http://www.w3.org/2000/svg" viewBox="0 0 80 80">
  <path d="m24.2,31.25c.35.34.76.38,1.15.1.4-.28.46-.69.25-1.13-.08-.17-.21-.31-.32-.47-1.99-2.85-2.78-6.01-2.25-9.44,1.15-7.41,8.03-12.19,15.41-10.78,6.65,1.27,11.31,7.94,10.23,14.6-.34,2.13-1.13,4.06-2.39,5.8-.45.62-.39,1.17.13,1.47.46.26.91.1,1.33-.47,5.72-7.7,2.4-19.05-6.58-22.42-1.27-.48-2.64-.69-3.97-1.02h-2.67c-.43.08-.87.17-1.3.24-10.63,1.79-15.76,14.62-9.28,23.21.08.1.15.21.24.29Z"/>
  <path d="m57.35,40.14c-.93.01-1.85.36-2.81.56-.1-1.61-.86-2.98-2.45-3.79-1.6-.82-3.17-.57-4.68.35-.29-1.72-1.12-2.95-2.66-3.63-1.52-.68-2.99-.43-4.46.46,0-.37,0-.62,0-.87,0-3.74.05-7.49-.03-11.23-.06-2.88-2.96-4.84-5.71-3.98-1.97.61-3.15,2.3-3.15,4.55,0,8.84,0,17.68,0,26.52v.75c-.07.05-.14.09-.22.14-.16-.22-.31-.46-.5-.65-1.23-1.23-2.41-2.5-3.71-3.65-2.05-1.82-4.77-1.95-6.82-.42-2.08,1.54-2.36,4.1-.77,6.06,1.14,1.41,2.25,2.86,3.19,4.4,1.9,3.1,3.55,6.35,5.53,9.39,4.07,6.28,13.38,9.86,21.53,5.45,3.95-2.14,6.62-5.46,8.51-9.45,2.5-5.28,3.37-10.92,3.51-16.69.06-2.35-1.94-4.3-4.29-4.27Zm-.81,20.16c-1.68,3.58-4.02,6.61-7.54,8.57-6.73,3.75-15.65,1.45-19.67-5.12-1.88-3.06-3.57-6.24-5.45-9.3-.92-1.51-2.04-2.9-3.13-4.29-.87-1.1-.84-2.31.18-3.27,1.19-1.11,3.03-1.22,4.44-.22.46.33.87.74,1.28,1.14,1.59,1.58,3.18,3.17,4.76,4.76.34.34.68.66,1.21.43.53-.23.54-.69.54-1.18,0-4.89,0-9.77,0-14.66,0-4.89,0-9.77,0-14.66,0-1.52.81-2.58,2.18-2.86,1.49-.32,2.99.78,3.14,2.3.03.31.03.63.03.95,0,7.7,0,15.4,0,23.1,0,.27,0,.56.07.82.12.45.49.72.9.59.3-.09.56-.43.76-.71.1-.14.04-.41.04-.62,0-2.73,0-5.46,0-8.19,0-1.57,1.03-2.72,2.44-2.82,1.56-.11,2.81.96,2.88,2.54.06,1.27.02,2.54.02,3.81,0,1.57,0,3.13,0,4.7,0,.45.08.85.54,1.05.63.28,1.22-.16,1.23-.97.02-1.65,0-3.3.01-4.95,0-.4.03-.81.14-1.19.37-1.23,1.53-1.95,2.85-1.83,1.17.11,2.2,1.04,2.29,2.27.1,1.41.05,2.83.07,4.25,0,.57-.01,1.14,0,1.71.02.6.35.97.85.99.52.02.89-.37.92-1,.02-.65,0-1.31.02-1.97.05-1.16.73-2.1,1.8-2.44,1.11-.35,2.14-.12,2.86.79.36.45.66,1.11.64,1.66-.17,5.47-.97,10.82-3.32,15.83Z"/>
  <path d="m42.13,26.95c-.21.46-.07.83.33,1.1.38.26.78.2,1.09-.13.2-.21.36-.47.51-.73,1.81-3.2,1.92-6.45.12-9.66-1.79-3.18-4.64-4.74-8.31-4.9-.49.05-1.02.05-1.54.15-5.09.92-8.39,5.14-8.03,10.31.12,1.7.71,3.25,1.69,4.65.34.49.83.6,1.26.32.42-.28.51-.78.22-1.28-.07-.13-.16-.25-.24-.37-.99-1.58-1.37-3.32-1.13-5.16.41-3.21,2.75-5.81,5.88-6.59,3.07-.77,6.33.42,8.2,2.99,1.9,2.61,2,6.06.26,8.82-.1.16-.21.32-.29.49Z"/>
  <path d="m55.72,53.2c-.49-.15-.88.03-1.09.51-.08.19-.12.4-.18.61-.68,2.32-1.57,4.55-2.89,6.59-1.42,2.19-3.17,4.01-5.62,5.05-1.76.75-3.6.88-5.47.6-.66-.1-1.12.18-1.22.71-.09.5.26.95.87,1.03.67.09,1.34.14,2.02.2,3.04-.03,5.67-1.08,7.92-3.09,3.35-3.01,5.08-6.94,6.26-11.17.14-.5-.1-.89-.59-1.04Z"/>
</svg>