<?xml version="1.0" encoding="UTF-8"?>
<svg id="Layer_1" data-name="Layer 1" xmlns="http://www.w3.org/2000/svg" viewBox="0 0 80 80">
  <path d="m72.48,29.07c0-1.63-.11-3.28-.31-4.9-.88-7.19-5.35-12.32-12.33-14.19-1.3-.35-2.64-.53-4.03-.81,0-.69.02-1.39,0-2.08-.01-.41-.02-.84-.14-1.23-.38-1.15-1.48-1.8-2.7-1.65-1.16.14-2.07,1.14-2.14,2.42-.04.82,0,1.65,0,2.51h-21.64c0-.35,0-.65,0-.95-.01-.62.03-1.26-.06-1.87-.19-1.34-1.31-2.2-2.65-2.12-1.26.08-2.23,1.1-2.28,2.43-.02.62-.04,1.25,0,1.87.04.58-.13.84-.75.88-.72.04-1.45.17-2.16.32-5.63,1.2-9.84,4.19-12.14,9.6-1.22,2.87-1.64,5.9-1.64,8.99,0,9.47-.02,18.95.02,28.42,0,1.71.16,3.44.48,5.12,1.01,5.3,3.71,9.44,8.65,11.9,2.92,1.45,6.05,2.05,9.29,2.06,9.27.02,18.53.03,27.8-.01,1.65,0,3.34-.17,4.96-.5,5.64-1.13,9.85-4.17,12.14-9.58,1.25-2.95,1.65-6.05,1.65-9.23,0-9.14.01-18.27-.01-27.41ZM24.18,14.4c0,.68,0,1.38,0,2.07.02,1.57,1.09,2.73,2.51,2.7,1.39-.02,2.45-1.15,2.48-2.68.02-.73,0-1.45,0-2.24h21.65c0,.83-.04,1.65,0,2.47.07,1.29.99,2.26,2.23,2.43,1.1.15,2.25-.56,2.61-1.68.13-.41.12-.87.14-1.31.02-.59,0-1.18,0-1.76,6.58-.44,12.07,5.9,11.63,13.35H12.56c-.5-7.38,5.01-13.74,11.63-13.35Zm43.31,19.21c0,7.68.04,15.36-.03,23.04-.02,1.83-.21,3.71-.65,5.48-1.2,4.81-4.48,7.46-9.27,8.32-1.17.21-2.38.34-3.57.34-9.32.03-18.64.06-27.96-.02-1.87-.02-3.81-.32-5.6-.86-4.51-1.37-6.82-4.71-7.58-9.22-.21-1.25-.32-2.53-.32-3.8-.03-7.78-.02-15.57-.02-23.35v-.67h54.99v.75Z"/>
  <path d="m39.96,48.31c1.86.02,3.33-1.41,3.35-3.27.02-1.88-1.4-3.34-3.26-3.35-1.88-.02-3.34,1.4-3.36,3.26-.02,1.86,1.41,3.33,3.27,3.35Z"/>
  <path d="m51.65,59.99c1.82,0,3.34-1.49,3.35-3.32,0-1.83-1.47-3.32-3.32-3.35-1.8-.03-3.34,1.5-3.35,3.32-.01,1.81,1.5,3.34,3.32,3.35Z"/>
  <path d="m28.34,48.31c1.84,0,3.32-1.47,3.33-3.32,0-1.85-1.46-3.3-3.34-3.29-1.88,0-3.32,1.44-3.33,3.3,0,1.83,1.49,3.31,3.34,3.31Z"/>
  <path d="m51.64,48.31c1.85.02,3.34-1.44,3.36-3.28.02-1.85-1.44-3.33-3.29-3.34-1.87,0-3.35,1.43-3.37,3.27-.02,1.83,1.47,3.33,3.31,3.35Z"/>
  <path d="m28.35,59.99c1.81,0,3.33-1.52,3.33-3.33,0-1.86-1.45-3.28-3.35-3.27-1.91,0-3.32,1.4-3.32,3.29,0,1.81,1.52,3.32,3.34,3.32Z"/>
  <path d="m40,59.99c1.84,0,3.31-1.48,3.31-3.32,0-1.9-1.39-3.28-3.31-3.28-1.92,0-3.31,1.38-3.31,3.28,0,1.85,1.47,3.32,3.31,3.32Z"/>
</svg>