<?xml version="1.0" encoding="UTF-8"?>
<svg id="Layer_1" data-name="Layer 1" xmlns="http://www.w3.org/2000/svg" viewBox="0 0 80 80">
  <path d="m69.95,69.05l-6.67-17.1c-.12-.3-.41-.5-.73-.5h-21.52l-3.12-1.49c.18-1.33.28-2.63.34-3.9,2.15-1.1,4.81-2.89,8.13-5.45.19-.15.31-.38.31-.62,0-.36-.06-.68-.1-1.01l2.67-1.85c3.15-2.07,4.9-9.01,4.98-9.34.15-.73-.16-1.47-.77-1.89-.46-.31-1.03-.4-1.55-.25-.53.15-.96.53-1.17,1l-1.61,3.26c-.46-.12-.96-.05-1.36.24l-.37.27c-.71.55-1.49,1.03-2.17,1.44-.79.48-1.36,1.15-1.71,1.93-.34-.27-.58-.42-.61-.44-.34-.2-.78-.13-1.02.19-1.37,1.76-2.91,3-4.24,3.85-1.16-5.82-3.5-9-4.17-9.8l-.29-2.38.53-1.92c.07,0,.13.01.2.01.63,0,1.24-.27,1.64-.75.55-.64.66-1.51.32-2.45-.09-.25-.14-.51-.15-.76v-.45c.38-.08.72-.3.9-.66.24-.46.19-1.02-.06-1.33l-.83-1.46c.18-.51.14-1.08-.14-1.65l-1.15-1.82s-.04-.04-.06-.06c-.03-.04-.06-.07-.09-.1-.01,0-.02-.02-.03-.03,0,0-.01,0-.02-.01,0,0-.02-.01-.03-.02-1.47-1.12-3.28-1.76-5.12-1.8-1.09-.03-2.09-.03-2.17-.05-.41.01-.71.3-1.06.77-.72.96-2.47,3.98-1.86,6.36,0,.03.91,3.26,2.33,4.89-.03.18-.09.49-.19.91l-.19.38c-1.2.8-6.34,4.98-3.8,16.66.48,2.18.81,4.15,1,5.85.02.14.01.28,0,.41-.02.13-.04.25-.08.37l-1.38,4.07s-.14.38-.27.89h-3.97c-.32,0-.61.2-.73.5l-6.66,17.1c-.09.24-.06.51.08.73s.39.34.65.34h58.44c.26,0,.5-.13.65-.34s.18-.49.08-.73Zm-23.91-35.85c.71-.43,1.53-.94,2.29-1.52l.43-.16-1.55,1.52c-.31.3-.31.8,0,1.11.3.31.8.32,1.11,0l1.55-1.52c.34-.33.51-.79.48-1.26,0-.09-.05-.16-.07-.24l1.89-3.81c.05-.11.13-.14.18-.16.05-.01.14-.02.24.04.09.06.14.18.12.26-.46,1.84-2.12,6.94-4.33,8.39l-2.2,1.52c-.37-.96-.89-1.74-1.42-2.36.19-.94.78-1.5,1.28-1.8Zm-11.18-15.76s-.08.02-.12.03c-.05.01-.11.02-.15.05-.04.02-.08.05-.12.08-.04.03-.08.06-.12.1-.03.04-.05.08-.08.12-.03.04-.06.08-.07.13-.02.05-.02.09-.03.14,0,.04-.03.09-.02.13l.02,1.14c0,.42.09.85.24,1.27.1.28.17.65-.04.91-.13.15-.32.22-.55.19-.69-.09-1.32-.2-1.86-.35-.46-.12-.85-.45-1.08-.89-.19-.39-.67-.53-1.05-.34-.38.2-.54.67-.34,1.05.42.83,1.18,1.45,2.06,1.69.19.05.4.09.61.14l-.32,1.16-4.17-1.01s0,0,0-.02c.27-1.16.32-1.58.02-2.07-.47-.51-.89-1.27-1.24-2.02,2-3.04,5.63-5,7.04-5.69l.74,1.17c.06.12.06.25.02.37-.16.46-.08.97.15,1.26l.67,1.24-.22.02Zm-7.64-5.98c.38,0,1.09.02,1.84.04,1.07.02,2.13.31,3.09.8-1.64.85-4.43,2.54-6.4,5.05-.1-.3-.19-.56-.24-.74-.44-1.7,1.11-4.46,1.7-5.15Zm-4.05,39.62l1.39-4.09c.08-.23.13-.46.16-.7.03-.25.03-.5,0-.76-.19-1.75-.54-3.78-1.03-6.01-2.28-10.48,1.97-14.21,3.04-14.96l4.94,1.19.28,2.26c.02.16.09.32.21.44.03.03,2.87,3.2,4.06,9.77-.46.24-.86.42-1.15.54-.67-1.35-1.59-4.54-2.08-6.5-.11-.42-.53-.68-.95-.57-.42.11-.68.53-.57.95.16.63,1.55,6.19,2.66,7.57.2.25.53.36.84.26.18-.05,4.25-1.34,7.67-5.37.83.69,2.32,2.23,2.47,4.53-5.08,3.9-8.6,5.94-10.74,6.21,0,0-.01,0-.02,0,0,0-.01,0-.02,0-.96.17-3.69-2.5-7.67-8.77-.44-.7-.66-1.5-.63-2.33l.08-2.27c.02-.43-.32-.79-.75-.81-.42-.07-.79.32-.81.75l-.08,2.27c-.04,1.14.26,2.26.87,3.22,4,6.3,7.02,9.49,8.97,9.49.06,0,.11-.01.16-.02,0,0,0,0,0,0,.03,0,.07,0,.1,0,0,0,.02,0,.03,0,0,0,.01,0,.02,0,0,0,0,0,0,0,.6-.08,1.27-.27,2.01-.56-.07,1.14-.18,2.3-.35,3.5-.05.34.13.67.44.82l13.94,6.66c.65.3,1.06.96,1.02,1.7l-.03,1.99c-1.59-.19-4-.03-5.93.15-.95.1-1.89-.07-2.73-.46-2.57-1.24-5.47-1.84-8.37-1.72l-1.51.06c-.6.02-1.19.06-1.79.11-1.32.11-2.59.11-3.78.02-2.02-.17-3.44-.87-4.22-2.08-1.59-2.48-.17-6.42-.15-6.47Zm-6.27,13.74c-.2,0-.36-.17-.36-.43,0-.18.16-.28.31-.3,2.55-.26,5.13-2.04,5.95-2.94.27-.29.62-.48,1-.53.13,0,.4-.05.71.41.18.26.28.6.3.98l.02.46c.02.42.36.75.78.75h1.08v1.6h-9.8Zm9.8-3.17h-.34c-.03-.23-.09-.45-.16-.66.16.03.33.06.5.08v.58Zm1.57-.43c1.03.04,2.08.04,3.18-.05.57-.04,1.15-.09,1.72-.11l1.51-.06c2.64-.1,5.29.44,7.64,1.58.9.42,1.89.63,2.89.63.22,0,.44,0,.66-.03,2.58-.25,4.58-.3,5.69-.15-.14.53-.51.98-1.03,1.19l-2.09.85c-.55.22-1.12.37-1.74.32h-18.43v-4.17Zm-16.33,7.32l6.06-15.53h3.14c-.22,1.6-.21,3.67.88,5.37.22.35.5.65.79.93-.43.18-.83.42-1.15.78-.68.74-2.97,2.24-4.95,2.43-.98.1-1.72.9-1.72,1.92s.86,1.92,1.92,1.93h9.86c.09.33.38.57.74.57h19.28c.78,0,1.54-.15,2.26-.44l2.09-.85c1.2-.49,2.01-1.64,2.07-2.96l.06-3.18c.06-1.36-.7-2.6-1.92-3.17l-7.01-3.35h17.71l6.06,15.53H11.93Z"/>
  <path d="m59.93,25.54c.57.13,1.14.19,1.71.19,1.41,0,2.79-.4,4.02-1.16,2.21-1.39,3.54-3.77,3.55-6.39,0,0,0,0,0-.01,0-.01,0-.03,0-.04,0-.04-.02-.08-.02-.12,0-.05-.01-.11-.03-.16-.02-.05-.05-.08-.07-.12-.03-.04-.05-.09-.09-.13-.04-.04-.08-.07-.13-.1-.03-.02-.06-.05-.1-.07,0,0-.01,0-.02,0-.05-.02-.1-.03-.15-.04-.05-.01-.1-.03-.16-.03,0,0-.01,0-.02,0-.03,0-.06.01-.09.02-.06,0-.13.01-.19.04-.04.02-.07.04-.11.06-.05.03-.1.05-.14.09-.04.04-.07.08-.1.13-.02.03-.05.06-.07.09-.38.77-.96,1.42-1.69,1.87-2.16,1.35-5.02.7-6.38-1.46-1.27-2.02-.81-4.65,1.07-6.11.03-.02.05-.06.07-.09.04-.04.08-.08.11-.13.03-.04.04-.09.06-.14.02-.05.04-.09.05-.14,0-.06,0-.11,0-.17,0-.04,0-.07,0-.11,0,0,0-.01,0-.02-.01-.05-.04-.09-.06-.14-.02-.05-.04-.11-.08-.15,0,0,0-.01,0-.02-.02-.02-.04-.03-.06-.05-.05-.05-.1-.1-.16-.14-.03-.02-.07-.03-.1-.04-.06-.02-.11-.05-.18-.06-.06,0-.12,0-.18,0-.03,0-.07,0-.1,0,0,0-.02,0-.02,0-.02,0-.03,0-.04.01-.86.19-1.68.51-2.43.98-1.72,1.08-2.91,2.76-3.36,4.73s-.11,4.01.97,5.73c1.08,1.72,2.76,2.91,4.73,3.36Zm-4.18-8.74c.3-1.31,1.03-2.43,2.04-3.27-.67,1.76-.53,3.79.54,5.5,1.17,1.87,3.19,2.9,5.26,2.9,1.12,0,2.26-.3,3.28-.94.03-.02.06-.05.09-.08-.49.94-1.2,1.75-2.14,2.34-1.36.86-2.98,1.13-4.54.77-1.57-.36-2.9-1.31-3.76-2.67s-1.13-2.98-.77-4.55Z"/>
  <path d="m64.01,29.82c.43,0,.78-.35.78-.78v-1.21c0-.43-.35-.78-.78-.78s-.78.35-.78.78v1.21c0,.43.35.78.78.78Z"/>
  <path d="m64.01,33.38c.43,0,.78-.35.78-.78v-1.21c0-.43-.35-.78-.78-.78s-.78.35-.78.78v1.21c0,.43.35.78.78.78Z"/>
  <path d="m66.4,30.99c.43,0,.78-.35.78-.78s-.35-.78-.78-.78h-1.21c-.43,0-.78.35-.78.78s.35.78.78.78h1.21Z"/>
  <path d="m62.84,30.99c.43,0,.78-.35.78-.78s-.35-.78-.78-.78h-1.21c-.43,0-.78.35-.78.78s.35.78.78.78h1.21Z"/>
  <path d="m58.16,39.13c.43,0,.78-.35.78-.78v-1.21c0-.43-.35-.78-.78-.78s-.78.35-.78.78v1.21c0,.43.35.78.78.78Z"/>
  <path d="m58.16,42.7c.43,0,.78-.35.78-.78v-1.21c0-.43-.35-.78-.78-.78s-.78.35-.78.78v1.21c0,.43.35.78.78.78Z"/>
  <path d="m60.55,40.31c.43,0,.78-.35.78-.78s-.35-.78-.78-.78h-1.21c-.43,0-.78.35-.78.78s.35.78.78.78h1.21Z"/>
  <path d="m55.77,38.74c-.43,0-.78.35-.78.78s.35.78.78.78h1.21c.43,0,.78-.35.78-.78s-.35-.78-.78-.78h-1.21Z"/>
  <path d="m44.78,15.42c.43,0,.78-.35.78-.78v-1.21c0-.43-.35-.78-.78-.78s-.78.35-.78.78v1.21c0,.43.35.78.78.78Z"/>
  <path d="m44.78,16.21c-.43,0-.78.35-.78.78v1.21c0,.43.35.78.78.78s.78-.35.78-.78v-1.21c0-.43-.35-.78-.78-.78Z"/>
  <path d="m45.18,15.82c0,.43.35.78.78.78h1.21c.43,0,.78-.35.78-.78s-.35-.78-.78-.78h-1.21c-.43,0-.78.35-.78.78Z"/>
  <path d="m42.39,16.6h1.21c.43,0,.78-.35.78-.78s-.35-.78-.78-.78h-1.21c-.43,0-.78.35-.78.78s.35.78.78.78Z"/>
</svg>