<?xml version="1.0" encoding="UTF-8"?>
<svg id="Layer_1" data-name="Layer 1" xmlns="http://www.w3.org/2000/svg" viewBox="0 0 80 80">
  <path d="m40,7.07C21.81,7.07,7.07,21.81,7.07,40s14.75,32.93,32.93,32.93,32.93-14.75,32.93-32.93S58.19,7.07,40,7.07Zm-20.65,12.28c5.7-5.7,13.18-8.55,20.65-8.55s14.24,2.62,19.83,7.81L18.61,59.83c-5.19-5.59-7.81-12.7-7.81-19.83s2.85-14.95,8.55-20.65Zm41.3,41.3c-5.7,5.7-13.18,8.55-20.65,8.55-6.55,0-13.1-2.19-18.46-6.57L62.63,21.54c4.38,5.36,6.57,11.91,6.57,18.46,0,7.47-2.85,14.95-8.55,20.65Z"/>
</svg>