<?xml version="1.0" encoding="UTF-8"?>
<svg id="Layer_1" data-name="Layer 1" xmlns="http://www.w3.org/2000/svg" viewBox="0 0 80 80">
  <path d="m17,35.13v-1.9l16.1,3.6c2.4.5,4.8.8,7.3.9.4,1,1.2,1.7,2.2,1.9l.1.7c-.8.6-1.3,1.5-1.3,2.4,0,.3,0,.6.1.9.4,1.3,1.6,2.1,2.9,2.1h0l.4.8c-1.9,2.4.7,5.7,3.5,4.6l1.1.9c.2,1.1.9,2,2,2.3.1,2.6-.1,7.4-1.8,9.7-.4-.2-.8-.2-1.2-.2h-.1c-.8,0-1.6.3-2.1.9-.6.6-.9,1.3-.9,2.1s.3,1.6.9,2.1c.6.6,1.3.9,2.1.9h.1c1.7,0,3-1.4,3-3.1,0-.5-.2-.9-.4-1.3,2.3-3,2.4-8.8,2.3-11.1,1.3-.4,2.1-1.7,2-3.1l.5-.5c2.9,1.8,6-1.7,4-4.4l.3-.8h0c2.9,0,4.1-3.7,1.8-5.4l.3-.8c2.7-.7,3.1-4.4.5-5.6v-.7c.8-.3,1.5-.9,1.7-1.7h0c.1-.2.1-.4.2-.6,2.5-1.6,7.3-2.1,7.3-6.4,0-.6-.1-1.2-.4-1.8-1-2.3-3.6-3.4-6-2.5l-3.4,1.3c-.3-.2-.6-.2-1-.3l-.2-.8c2.1-2,.6-5.5-2.4-5.2l-.6-1.1c1-3.7-4.5-5.4-5.7-1.7h-.2c-1.4-3.8-7-1.6-5.6,2.1l-.6.9c-1.4-.2-2.6.5-3.1,1.7-.2.4-.3.8-.3,1.3h-1.2l-4-2.2c-3.9-2.1-8.5-3-13-2.5l-7.2.7v-2c0-.6-.4-1-1-1h-6.9c-.6,0-1,.4-1,1v22.9c0,.6.4,1,1,1h6.9c.6,0,1-.5,1-1Zm31.5,32.7h-.1c-.3,0-.5-.1-.7-.3s-.3-.4-.3-.7.1-.5.3-.7.4-.3.8-.3h0c.5,0,1,.4,1,1s-.5,1-1,1Zm-4.6-37.5c0,.9-1.1,1.3-1.7.7-.2-.2-.3-.5-.3-.7,0-1.3,2-1.3,2,0Zm-.8,5.3c1.1,0,1.6,1.7,0,2-.5,0-.9-.4-1-.9,0-.6.5-1.1,1-1.1Zm.4,7.5c-.3-.9.7-1.6,1.4-1.2.3.2.5.5.5.9.1,1.1-1.6,1.3-1.9.3Zm2.9,5.9c-.3-.4-.2-1.1.2-1.4.5-.3,1.1-.2,1.4.2.8,1.1-.8,2.2-1.6,1.2Zm4.9,2.5c0-.5.4-1,1.1-1h0c.5,0,1,.4,1,1,.1,1.4-2.1,1.3-2.1,0Zm-1.4-1.7h0c.6-1.1.5-2.3-.2-3.3h0c-.7-1-2-1.4-3.1-1.1l-.2-.4c.7-.6,1.1-1.4,1.1-2.3,0-1.1-.6-2.2-1.6-2.7-.4-.2-.8-.3-1.2-.3l-.1-.5c.7-.4,1.3-1.1,1.5-1.9,7.8-.9,12.7-3.9,14.3-4.6l.6.3v.5c-2.8.7-3.1,4.5-.5,5.6l-.1.4c-2.8.1-3.9,3.6-1.8,5.3l-.2.4c-2.2-.5-4.3,1.5-3.5,3.9l-.2.1c-1.5-1.2-3.8-1-4.8.6Zm6.7-1.5c0-1.3,2-1.4,2,0,0,1.3-2,1.3-2,0Zm2.7-5.6c0-1.3,2-1.3,2,0s-2,1.3-2,0Zm2.2-5.2c-1.3-.2-1.1-2.2.2-2,1.4.2,1.1,2.1-.2,2Zm5-15.7c1.3-.5,2.8.1,3.4,1.4.6,1.3,0,2.8-1.3,3.4-.1,0-8.7,4.1-8.6,4-.7.3-3.3,1.6-3.2,1.5-3.5,1.7-7.2,2.7-11,3.2-.4-.9-1.1-1.5-2-1.7v-.5c2-.7,2.7-3,1.4-4.7h4.6c1.4,0,2.7-.6,3.7-1.5l13-5.1Zm-16.6-3.7h-1.3c0-.8-.3-1.5-.8-2l.2-.2c1.6.9,3.7.2,4.3-1.7h.2c.2.6.6,1.1,1.2,1.5,1,.7,2.3.6,3.2,0l.1.2c-1.9,1.9-.5,5.3,2.3,5.1l.1.5c-.5.3-.9.8-1.2,1.4l-3.3,1.3c.1-.3.1-.6.1-.9.1-2.9-2.3-5.2-5.1-5.2Zm10.2,0c0,1-1.4,1.4-1.9.5-.3-.6,0-1.2.5-1.4.6-.4,1.4.1,1.4.9Zm-3.8-4.9c0,.8-.9,1.3-1.6.8-.3-.2-.4-.5-.4-.8,0-1.3,2-1.4,2,0Zm-6.1-.5h0c.3.5.2,1.1-.3,1.4-.7.5-1.6-.1-1.6-.8.1-.9,1.3-1.6,1.9-.6Zm-3.6,5.4h-2c0-1.3,2-1.3,2,0Zm-21.9-2.7c4-.4,8.2.4,11.8,2.3l4.2,2.3c.1.1.3.1.5.1h8.7c1.8,0,3.2,1.4,3.2,3.2s-1.4,3.2-3.2,3.2h-14.6v2h5.2c-.4.5-.6,1.2-.6,1.9,0,1.2.7,2.4,2,2.8v.7c-.8.4-1.4,1-1.6,1.8-2.3-.1-4.5-.3-6.8-.8l-16.5-3.8v-14.9l7.7-.8Zm-9.7,18.7h-4.9V13.23h4.9v20.9Z"/>
</svg>