<?xml version="1.0" encoding="UTF-8"?>
<svg id="Layer_1" data-name="Layer 1" xmlns="http://www.w3.org/2000/svg" viewBox="0 0 80 80">
  <path d="m68.85,17.96c0-1.39,0-2.77,0-4.16,0-1.3-.02-2.6.01-3.89.03-.99.83-1.74,1.79-1.74.93,0,1.69.71,1.78,1.67.02.19.02.38.02.57.02,4.01.03,8.02.05,12.03,0,1.13-.82,1.97-1.96,1.97-4.03,0-8.07-.01-12.1-.04-.37,0-.76-.05-1.1-.19-.77-.3-1.2-1.18-1.04-1.97.18-.87.88-1.46,1.83-1.46,2.43-.01,4.86,0,7.29,0,.22,0,.45,0,.82,0-2.4-2.52-4.75-4.85-7.58-6.64-5.94-3.77-12.42-5.34-19.41-4.8-13.32,1.04-24.69,11.08-27.43,24.19-2.74,13.09,2.89,26.01,14.35,32.97,11.07,6.72,25.96,5.47,35.72-3,.59-.51,1.15-1.05,1.73-1.57.91-.83,1.94-.86,2.7-.08.74.77.68,1.84-.19,2.7-4.75,4.66-10.38,7.69-16.87,9.12-14.93,3.3-30.41-3.83-37.66-17.33C2.24,38.9,9.5,17.05,27.39,8.77c13.29-6.15,28.76-3.32,39.21,7.17.7.7,1.38,1.41,2.08,2.11.06-.03.11-.06.17-.09Z"/>
</svg>