<?xml version="1.0" encoding="UTF-8"?>
<svg id="Layer_1" data-name="Layer 1" xmlns="http://www.w3.org/2000/svg" viewBox="0 0 80 80">
  <path d="m58.28,8.66H21.72c-2.03,0-3.73,1.7-3.73,3.73v49.89c0,2.03,1.71,3.73,3.73,3.73h6.93v.64c0,2.56,2.13,4.69,4.69,4.69s4.69-2.13,4.69-4.69v-.64h20.26c2.03,0,3.73-1.71,3.73-3.73V12.39c0-2.03-1.6-3.73-3.73-3.73Zm0,2.66c.64,0,1.07.43,1.07,1.07v5.65c-3.62,0-6.72-2.99-6.72-6.72h5.65Zm-22.92,53.41v1.92c0,1.07-.85,2.02-2.03,2.02s-2.03-.85-2.03-2.02v-3.31h4.05v1.39Zm23.99-2.45c0,.64-.43,1.07-1.07,1.07h-5.65c0-3.62,2.99-6.72,6.72-6.72v5.65Zm.11-8.32c-5.22,0-9.38,4.26-9.38,9.38h-12.05v-1.39c0-.75-.64-1.39-1.39-1.39h-6.72c-.75,0-1.39.64-1.39,1.39v1.39h-6.93c-.64,0-1.07-.43-1.07-1.07V12.39c0-.64.43-1.07,1.07-1.07h2.98v45.31c0,.75.64,1.39,1.39,1.39s1.39-.64,1.39-1.39V19.32h18.66c.75,0,1.39-.64,1.39-1.39s-.64-1.39-1.39-1.39h-18.66v-5.33h22.71c0,5.12,4.16,9.38,9.38,9.38v33.37Z"/>
  <path d="m49.33,36.69v-2.99c0-.75-.64-1.39-1.39-1.39h-2.98l-1.49-1.49c1.39-.64,2.45-2.03,2.45-3.73,0-2.24-1.81-4.05-4.05-4.05s-4.05,1.81-4.05,4.05c0,1.6.96,3.09,2.45,3.73l-1.49,1.49h-2.98c-.75,0-1.39.64-1.39,1.39v2.99l-2.03,2.03c-.53.53-.53,1.39,0,1.92l2.03,2.03v2.98c0,.75.64,1.39,1.39,1.39h2.98l1.81,1.81c-1.6.53-2.77,2.02-2.77,3.84,0,2.24,1.81,4.05,4.05,4.05s4.05-1.81,4.05-4.05c0-1.81-1.17-3.3-2.77-3.84l1.81-1.81h3.09c.75,0,1.39-.64,1.39-1.39v-2.98l2.03-2.03c.53-.53.53-1.39,0-1.92l-2.13-2.03Zm-7.25-10.66c.75,0,1.39.64,1.39,1.39s-.64,1.39-1.39,1.39-1.39-.64-1.39-1.39.64-1.39,1.39-1.39Zm1.39,26.55c0,.75-.64,1.39-1.39,1.39s-1.39-.64-1.39-1.39.64-1.39,1.39-1.39,1.39.64,1.39,1.39Zm3.62-11.3c-.21.21-.43.64-.43.96v2.13h-2.13c-.32,0-.64.11-.96.43l-1.49,1.49-1.6-1.49c-.21-.21-.64-.43-.96-.43h-2.13v-2.13c0-.32-.11-.64-.43-.96l-1.49-1.49,1.49-1.49c.21-.21.43-.64.43-.96v-2.13h2.13c.32,0,.64-.11.96-.43l1.49-1.49,1.49,1.49c.21.21.64.43.96.43h2.13v2.13c0,.32.11.64.43.96l1.49,1.49-1.39,1.49Z"/>
</svg>