<?xml version="1.0" encoding="UTF-8"?>
<svg id="Layer_1" data-name="Layer 1" xmlns="http://www.w3.org/2000/svg" viewBox="0 0 80 80">
  <path d="m18.08,23.63c4.48.03,8.11-3.56,8.12-8.03.01-4.44-3.57-8.07-7.99-8.1-4.46-.03-8.13,3.6-8.14,8.04-.01,4.43,3.58,8.07,8.01,8.09Zm.06-13.96c3.25,0,5.89,2.64,5.9,5.9,0,3.27-2.62,5.9-5.89,5.9-3.26,0-5.91-2.64-5.91-5.89,0-3.25,2.65-5.9,5.9-5.91Z"/>
  <path d="m18.15,31.92c-4.44,0-8.08,3.66-8.07,8.11.01,4.41,3.66,8.04,8.07,8.04,4.45,0,8.07-3.65,8.06-8.11-.01-4.43-3.63-8.04-8.06-8.04Zm.02,13.98c-3.23.02-5.92-2.65-5.93-5.88,0-3.24,2.62-5.9,5.88-5.93,3.24-.03,5.91,2.63,5.91,5.88,0,3.26-2.61,5.91-5.87,5.93Z"/>
  <path d="m18.16,56.37c-4.46,0-8.09,3.62-8.08,8.08,0,4.41,3.64,8.04,8.06,8.05,4.46,0,8.08-3.63,8.07-8.09,0-4.44-3.6-8.03-8.05-8.04Zm.01,13.96c-3.25,0-5.92-2.64-5.93-5.88-.01-3.25,2.62-5.91,5.88-5.92,3.27-.01,5.91,2.6,5.92,5.87.01,3.26-2.62,5.92-5.87,5.93Z"/>
  <path d="m69.05,59.41c-.21-.05-.45-.04-.67-.04-11.62,0-23.24,0-34.85,0-.27,0-.55,0-.8.08-.55.17-.79.58-.73,1.15.06.54.39.85.92.92.22.03.45.01.68.01,5.78,0,11.55,0,17.33,0s11.6,0,17.39,0c.2,0,.41.01.61,0,.6-.06.96-.41,1-1,.04-.6-.3-.98-.87-1.12Z"/>
  <path d="m69.05,37.09c.57-.14.91-.53.86-1.12-.05-.59-.4-.94-1.01-.99-.22-.02-.45-.01-.68-.01-5.77,0-11.55,0-17.32,0s-11.5,0-17.26,0c-.25,0-.5-.01-.74.02-.53.07-.86.39-.92.93-.06.56.18.98.74,1.14.25.07.53.08.8.08,11.62,0,23.23,0,34.85,0,.22,0,.46.01.67-.04Z"/>
  <path d="m32.9,12.66c.24.03.5.02.74.02,5.75,0,11.5,0,17.26,0s11.55,0,17.32,0c.25,0,.5.01.74-.02.58-.06.9-.42.95-.98.04-.56-.25-.95-.8-1.1-.23-.06-.49-.07-.74-.07-11.62,0-23.23,0-34.85,0-.27,0-.55,0-.8.08-.56.16-.8.57-.74,1.13.05.54.38.86.91.93Z"/>
  <path d="m61.02,42.58c-9.16,0-18.32,0-27.48,0-.23,0-.5-.07-.66.04-.32.2-.75.47-.81.78-.07.34.13.83.38,1.11.17.2.62.23.94.23,4.65.01,9.3,0,13.94,0,4.67,0,9.34,0,14.01,0,.78,0,1.28-.45,1.26-1.1-.01-.62-.51-1.04-1.24-1.06-.11,0-.23,0-.34,0Z"/>
  <path d="m60.95,67.01c-9.11,0-18.23,0-27.34,0-.29,0-.6,0-.87.07-.52.14-.77.53-.75,1.07.02.51.29.85.79.97.26.06.54.05.81.05,4.58,0,9.16,0,13.74,0s9.07,0,13.6,0c1.15,0,1.69-.36,1.67-1.1-.02-.72-.55-1.06-1.65-1.06Z"/>
  <path d="m33.46,20.33c9.2,0,18.41,0,27.61,0,.25,0,.5,0,.73-.07.52-.14.8-.54.77-1.06-.03-.55-.34-.93-.91-1.01-.24-.03-.5-.02-.74-.02-4.53,0-9.07,0-13.6,0s-8.93,0-13.4,0c-.32,0-.63-.01-.95.02-.66.06-1.06.56-.98,1.2.08.65.53.95,1.47.95Z"/>
</svg>