<?xml version="1.0" encoding="UTF-8"?>
<svg id="Layer_1" data-name="Layer 1" xmlns="http://www.w3.org/2000/svg" viewBox="0 0 80 80">
  <path d="m40.91,72.5c-16.1-.1-29.63-11.22-32.76-26.76C4.85,29.38,14.39,12.96,30.26,7.69c1.89-.63,3.22.36,3.38,2.37,1.24,15.68,9.01,26.83,23.32,33.36,4.14,1.89,8.56,2.72,13.09,2.95,1.85.1,2.89,1.53,2.27,3.28-3.5,9.98-10.16,16.92-20.01,20.76-3.73,1.45-7.62,2.06-11.4,2.09ZM29.13,13.24c-9.94,4.17-18.79,15.83-16.57,30.37,2.08,13.59,13.47,23.6,26.99,24.14,14.65.59,24.29-9.44,27.15-16.89-19.48-2.01-35.64-18.6-37.57-37.63Z"/>
</svg>