<?xml version="1.0" encoding="UTF-8"?>
<svg id="Layer_1" data-name="Layer 1" xmlns="http://www.w3.org/2000/svg" viewBox="0 0 80 80">
  <defs>
    <style>
      .cls-1 {
        fill: #000;
        stroke-width: 0px;
      }
    </style>
  </defs>
  <path class="cls-1" d="M64.87,32.89c-1.22-8.92-5.81-15.59-13.78-19.85-.38-.2-.5-.42-.49-.83.03-1.16.02-2.33,0-3.49,0-.9-.34-1.21-1.24-1.21-2.01,0-4.02,0-6.03,0-.93,0-1.24.31-1.25,1.26,0,.54,0,1.08,0,1.59-.14.04-.18.07-.21.06-.36,0-.72-.02-1.08-.03-7.94-.15-14.5,2.84-19.68,8.82-3.73,4.31-5.75,9.37-6.15,15.05-.42,5.98.9,11.52,4.38,16.45,1.51,2.14,3.15,4.19,4.86,6.18,4.79,5.55,10.02,10.65,15.41,15.61h.63c.25-.19.52-.35.75-.57,3.9-3.78,7.8-7.57,11.7-11.37.25-.25.49-.53.68-.83.23-.39.17-.78-.18-1.09-.36-.31-.76-.36-1.17-.09-.17.11-.31.28-.46.43-2.56,2.55-5.11,5.12-7.69,7.65-1.25,1.23-2.55,2.4-3.84,3.62-.17-.14-.3-.25-.41-.36-2.43-2.36-4.89-4.68-7.28-7.08-3.87-3.91-7.62-7.93-10.89-12.38-3.94-5.35-5.4-11.37-4.37-17.87,1.33-8.44,5.91-14.61,13.68-18.3,3.43-1.63,7.09-2.18,10.87-1.92.16.01.42.22.44.36.05.58.02,1.17.02,1.81-.7,0-1.31,0-1.92,0-.86.01-1.18.34-1.19,1.2,0,.69,0,1.38,0,2.06-.72.1-1.35.17-1.97.27-1.74.28-3.4.83-4.97,1.64-.55.28-.71.76-.48,1.27.24.51.7.67,1.28.44.18-.07.34-.16.52-.24,1.76-.81,3.61-1.3,5.59-1.42v13.64h-2.53c0-1.2,0-2.36,0-3.52,0-1.48.01-2.96,0-4.44,0-.78-.48-1.18-1.16-1.05-.6.12-.74.54-.74,1.08,0,2.41,0,4.82,0,7.24v.7h-2c0-1.32,0-2.61,0-3.89,0-.46-.13-.84-.6-1.01-.69-.25-1.29.16-1.3.91-.02,1.33,0,2.65,0,4.03-1.06,0-2.05,0-3.04,0-.98,0-1.27.3-1.27,1.29,0,3.26,0,6.52,0,9.77,0,.2-.02.39-.04.71-.16-.23-.24-.35-.31-.47-1.96-3.58-2.61-7.39-1.87-11.4.67-3.65,2.36-6.76,5.06-9.31.21-.19.49-.49.46-.71-.03-.35-.21-.78-.47-1-.43-.37-.86-.08-1.23.26-7.04,6.43-8.03,17.53-2.23,25.2,5.29,6.99,14.7,9.27,22.25,5.39,10.57-5.44,13.54-19.12,6.19-28.47-.21-.27-.35-.67-.36-1.02-.03-2.03-.02-4.06-.01-6.09,0-.18.02-.35.04-.6.22.16.38.26.52.38,9.34,7.49,11.75,21.25,5.41,31.43-1.46,2.34-3.25,4.48-4.91,6.69-.29.38-.5.74-.25,1.21.33.64,1.13.72,1.62.11,1.27-1.58,2.57-3.15,3.75-4.8,4.11-5.72,5.94-12.08,4.98-19.09ZM38.88,53.03c-1.95-.11-3.77-.6-5.51-1.4-1.84-.85-3.47-2.01-4.87-3.48-.17-.18-.31-.46-.31-.7-.02-3.91-.01-7.82-.01-11.74,0-.1.01-.21.02-.36h10.69v17.68ZM44.03,9.43h4.63v5.04h-4.63v-5.04ZM51.8,17.12c0,10.05,0,20.1-.01,30.14,0,.27-.08.6-.24.79-2.48,2.83-6.86,4.88-10.63,4.98V16.44h10.88v.68ZM53.75,27.62c3.32,5.25,3.21,12.52,0,17.5v-17.5Z"/>
  <path class="cls-1" d="M44.46,23.42c1.25.03,2.49.03,3.74,0,.61-.01.95-.42.92-.98-.02-.54-.35-.87-.94-.89-.61-.02-1.22,0-1.84,0-.61,0-1.23-.02-1.84,0-.62.02-.96.39-.96.95,0,.54.33.91.91.93Z"/>
  <path class="cls-1" d="M48.14,43.76c-1.2-.02-2.41-.02-3.61,0-.63.01-.97.36-.98.92,0,.56.33.93.95.96.59.03,1.18,0,1.77,0,.63,0,1.27.02,1.9,0,.62-.03.96-.39.95-.96,0-.57-.35-.91-.98-.92Z"/>
  <path class="cls-1" d="M44.52,38.23c.59.02,1.18,0,1.78,0,.61,0,1.23.01,1.84,0,.62-.01.98-.36.99-.92.01-.56-.34-.96-.94-.97-1.23-.02-2.45-.02-3.68,0-.6.01-.96.4-.96.96,0,.56.36.92.97.93Z"/>
  <path class="cls-1" d="M44.49,30.84c1.23.02,2.45.02,3.68,0,.6-.01.96-.41.95-.96,0-.56-.37-.91-.98-.93-.59-.01-1.18,0-1.78,0-.61,0-1.23-.01-1.84,0-.62.01-.97.36-.98.92,0,.55.35.96.95.97Z"/>
  <path class="cls-1" d="M30.46,41.22c.04.51.34.81.85.85.51.04.92-.21.97-.7.08-.79.08-1.59,0-2.38-.04-.49-.45-.77-.95-.74-.52.03-.85.34-.89.89-.02.34,0,.67,0,1.01h0c0,.36-.02.72,0,1.07Z"/>
  <path class="cls-1" d="M34.65,41.2c.03.51.32.82.82.87.54.06.96-.21,1.01-.73.08-.77.08-1.56,0-2.32-.05-.52-.46-.81-.99-.76-.52.05-.83.38-.86.92-.01.31,0,.63,0,.95h0c0,.36-.02.72,0,1.07Z"/>
  <path class="cls-1" d="M31.31,48.95c.53.05.94-.25.99-.76.07-.77.06-1.56,0-2.33-.05-.49-.45-.77-.95-.74-.52.03-.85.34-.89.89-.02.34,0,.67,0,1.01,0,.34-.01.67,0,1.01.02.55.33.87.86.92Z"/>
  <path class="cls-1" d="M35.52,45.13c-.52.04-.85.35-.88.9-.02.34,0,.67,0,1.01,0,.34-.01.67,0,1.01.02.55.34.87.86.91.53.04.94-.25.99-.77.07-.75.07-1.51,0-2.26-.05-.52-.44-.83-.97-.79Z"/>
</svg>