<?xml version="1.0" encoding="UTF-8"?>
<svg id="Layer_1" data-name="Layer 1" xmlns="http://www.w3.org/2000/svg" viewBox="0 0 80 80">
  <path d="m39.99,7.5c-17.92,0-32.47,14.54-32.49,32.48-.02,17.92,14.52,32.48,32.46,32.53,17.88.04,32.5-14.53,32.54-32.45.04-17.94-14.55-32.55-32.51-32.56Zm-.01,61.6c-16.06-.03-29.12-13.14-29.07-29.18.05-16.03,13.14-29.07,29.14-29.02,16.03.05,29.1,13.16,29.04,29.13-.06,16.04-13.14,29.11-29.11,29.07Z"/>
  <path d="m43.33,51.97c-.5-.02-1.01,0-1.63,0v-.97c0-4.7,0-9.4,0-14.11,0-1.37-.63-2.02-2-2.04-.99-.02-1.98-.03-2.96,0-1.14.03-1.91.77-1.88,1.76.03.97.77,1.64,1.88,1.68.5.02.99,0,1.5,0v13.68c-.59,0-1.12-.02-1.65,0-1.02.05-1.75.8-1.72,1.74.02.92.72,1.64,1.72,1.65,2.27.03,4.54.03,6.81,0,1.06-.01,1.73-.73,1.71-1.71-.01-.96-.72-1.64-1.77-1.68Z"/>
  <path d="m39.98,31.43c1.88,0,3.43-1.53,3.43-3.41,0-1.87-1.55-3.43-3.42-3.43-1.87,0-3.42,1.54-3.42,3.42,0,1.88,1.53,3.42,3.41,3.42Z"/>
</svg>