<svg width="290" height="201" viewBox="0 0 290 201" fill="none" xmlns="http://www.w3.org/2000/svg">
<path fill-rule="evenodd" clip-rule="evenodd" d="M16.6796 197.525C16.6796 197.523 16.6796 197.521 16.6893 197.519C80.4315 134.975 126.871 128.923 143.734 129.258C144.925 129.403 145.824 130.405 145.824 131.605V177.013C145.824 181.681 148.431 185.96 152.581 188.113C156.731 190.267 161.73 189.937 165.558 187.258C191.385 169.192 253.145 125.978 282.36 105.538C287.281 102.097 290.142 96.4294 289.996 90.4366C289.859 84.4448 286.715 78.9217 281.637 75.7212C252.1 57.1097 190.545 18.319 165.06 2.25616C161.193 -0.177574 156.311 -0.322748 152.307 1.87716C148.304 4.07804 145.824 8.27618 145.824 12.8348C145.824 25.6884 145.824 44.4061 145.814 53.6373C145.814 53.6393 145.814 53.6413 145.814 53.6432C145.814 54.6828 145.13 55.5986 144.134 55.8967C144.134 55.8967 144.135 55.8977 144.125 55.8977C37.9368 87.6794 8.43837 157.011 0.294832 188.171C0.285068 188.209 0.275275 188.246 0.265511 188.284C-0.740226 192.525 1.18321 196.918 4.99134 199.06C8.79947 201.202 13.5647 200.575 16.6796 197.525ZM10.4986 189.357C18.6714 159.332 47.6719 95.3606 147.054 65.618C152.356 64.0338 155.979 59.1654 155.979 53.6432C155.998 44.4149 155.998 25.6923 155.998 12.8348C155.998 11.9745 156.467 11.1815 157.219 10.7655C157.971 10.3504 158.898 10.3777 159.631 10.8376L276.208 84.3016C278.405 85.689 279.772 88.0838 279.831 90.6821C279.89 93.2795 278.649 95.7367 276.521 97.2293C247.305 117.669 185.546 160.882 159.719 178.948C158.996 179.455 158.049 179.517 157.268 179.11C156.487 178.704 155.998 177.895 155.998 177.013V131.605C155.998 125.062 150.94 119.623 144.398 119.129C144.31 119.122 144.222 119.118 144.134 119.116C126.598 118.718 77.4631 124.056 10.4986 189.357Z" fill="black"/>
</svg>
