<?xml version="1.0" encoding="UTF-8"?>
<svg id="Layer_1" data-name="Layer 1" xmlns="http://www.w3.org/2000/svg" viewBox="0 0 80 80">
  <path d="m72.04,35.97l-8.49-1.9c-.57-2.29-1.48-4.48-2.71-6.53l4.66-7.36c.25-.4.19-.91-.14-1.25l-4.31-4.31c-.33-.33-.85-.39-1.25-.14l-7.36,4.67c-2.02-1.21-4.21-2.13-6.53-2.71l-1.9-8.49c-.1-.46-.51-.78-.98-.78h-6.1c-.47,0-.88.33-.98.78l-1.9,8.49c-2.32.59-4.51,1.5-6.53,2.71l-7.36-4.67c-.4-.25-.91-.19-1.25.14l-4.31,4.31c-.33.33-.39.85-.14,1.25l4.66,7.36c-1.22,2.05-2.13,4.24-2.71,6.53l-8.49,1.9c-.46.1-.78.51-.78.98v6.1c0,.47.33.88.78.98l8.49,1.9c.58,2.3,1.48,4.49,2.7,6.53l-4.66,7.36c-.25.4-.19.91.14,1.25l4.31,4.31c.33.33.85.39,1.25.14l7.36-4.66c2.05,1.22,4.24,2.13,6.53,2.71l1.9,8.49c.1.46.51.78.98.78h6.1c.47,0,.88-.33.98-.78l1.9-8.49c2.3-.58,4.49-1.48,6.53-2.7l7.36,4.66c.4.25.91.19,1.25-.14l4.31-4.31c.33-.33.39-.85.14-1.25l-4.66-7.36c1.22-2.05,2.13-4.24,2.71-6.53l8.49-1.9c.46-.1.78-.51.78-.98v-6.1c0-.47-.33-.88-.78-.98Zm-1.22,6.27l-8.32,1.86c-.38.08-.68.38-.76.76-.55,2.49-1.54,4.87-2.92,7.06-.21.33-.21.75,0,1.07l4.57,7.21-3.17,3.17-7.21-4.57c-.33-.21-.75-.21-1.08,0-2.17,1.38-4.55,2.37-7.06,2.92-.38.08-.68.38-.76.76l-1.86,8.32h-4.49l-1.86-8.32c-.08-.38-.38-.68-.76-.76-2.49-.55-4.87-1.54-7.06-2.92-.33-.21-.75-.21-1.07,0l-7.21,4.57-3.17-3.17,4.57-7.21c.21-.33.21-.75,0-1.08-1.38-2.17-2.37-4.55-2.92-7.06-.08-.38-.38-.68-.76-.76l-8.32-1.86v-4.49l8.32-1.86c.38-.08.68-.38.76-.76.55-2.49,1.54-4.87,2.92-7.06.21-.33.21-.75,0-1.07l-4.57-7.21,3.17-3.17,7.21,4.58c.33.21.75.21,1.08,0,2.15-1.37,4.53-2.36,7.06-2.94.38-.09.67-.38.76-.76l1.86-8.32h4.49l1.86,8.32c.08.38.38.67.76.76,2.54.58,4.91,1.56,7.06,2.94.33.21.75.21,1.08,0l7.21-4.58,3.17,3.17-4.57,7.21c-.21.33-.21.75,0,1.07,1.39,2.19,2.37,4.57,2.92,7.06.08.38.38.68.76.76l8.32,1.86v4.49Z"/>
  <path d="m71.39,70.39h-21.5c-.55,0-1,.45-1,1s.45,1,1,1h21.5c.55,0,1-.45,1-1s-.45-1-1-1Z"/>
  <path d="m71.39,66.09h-5.73c-.55,0-1,.45-1,1s.45,1,1,1h5.73c.55,0,1-.45,1-1s-.45-1-1-1Z"/>
  <path d="m29.82,70.39H8.32c-.55,0-1,.45-1,1s.45,1,1,1h21.5c.55,0,1-.45,1-1s-.45-1-1-1Z"/>
  <path d="m8.32,68.1h5.73c.55,0,1-.45,1-1s-.45-1-1-1h-5.73c-.55,0-1,.45-1,1s.45,1,1,1Z"/>
  <path d="m53.6,52.1s.04-.05.07-.07c2.93-3.33,4.54-7.55,4.54-12.02,0-4.86-1.89-9.43-5.33-12.87-3.44-3.44-8.01-5.33-12.87-5.33s-9.43,1.89-12.87,5.33c-7.1,7.1-7.1,18.65,0,25.75,3.44,3.44,8.01,5.33,12.87,5.33,4.47,0,8.7-1.6,12.03-4.54.02-.02.05-.04.07-.06.11-.09.21-.19.31-.29.03-.03.06-.05.09-.08.13-.12.25-.24.37-.36,0,0,0,0,0,0,0,0,0,0,0,0s0,0,0,0c.12-.12.24-.25.36-.37.03-.03.06-.06.08-.09.1-.1.19-.21.28-.31Zm-25.06-.64c-6.32-6.32-6.32-16.59,0-22.91,3.06-3.06,7.13-4.74,11.45-4.74s8.39,1.68,11.45,4.74c3.06,3.06,4.74,7.13,4.74,11.45,0,2.55-.58,5-1.69,7.21l-6.56-6.56c.71-3.19-.26-6.54-2.58-8.87-1.81-1.81-4.22-2.81-6.79-2.81-1.49,0-2.97.35-4.29,1.01-.29.14-.49.42-.54.74-.05.32.05.64.28.87l4.96,4.96-2.64,2.64-4.89-4.89c-.23-.23-.56-.34-.89-.28-.32.06-.6.27-.73.57-1.65,3.63-.87,7.96,1.95,10.78,1.81,1.81,4.22,2.81,6.79,2.81h0c.7,0,1.4-.08,2.08-.23l6.56,6.56c-2.21,1.1-4.67,1.69-7.21,1.69-4.33,0-8.39-1.68-11.45-4.74Zm10.02-5.29h0c-2.03,0-3.94-.79-5.37-2.22-1.87-1.87-2.61-4.58-2.03-7.09l4.46,4.46c.19.19.44.29.71.29s.52-.11.71-.29l4.05-4.05c.19-.19.29-.44.29-.71s-.11-.52-.29-.71l-4.58-4.58c.66-.19,1.36-.28,2.05-.28,2.03,0,3.93.79,5.37,2.22,1.95,1.95,2.69,4.82,1.93,7.48,0,0,0,0,0,0-.35,1.23-1.02,2.36-1.93,3.26-.91.91-2.04,1.57-3.26,1.93,0,0,0,0,0,0-.68.2-1.39.3-2.11.3Zm4.24,1.02c.08-.04.16-.08.24-.12.03-.02.06-.03.09-.05.11-.06.21-.12.32-.18,0,0,.02-.01.02-.02.1-.06.19-.12.28-.18.03-.02.06-.04.09-.06.08-.05.15-.1.22-.15.03-.02.06-.04.08-.06.1-.07.2-.14.29-.22,0,0,0,0,0,0,.09-.07.18-.15.27-.22.03-.02.05-.05.08-.07.07-.06.14-.12.21-.18.03-.02.05-.05.07-.07.09-.08.18-.17.26-.25.09-.09.17-.18.25-.27.02-.02.04-.05.06-.07.06-.07.13-.14.19-.21.02-.02.04-.05.06-.07.16-.19.31-.38.45-.58.02-.02.03-.05.05-.07.06-.08.11-.16.16-.24.02-.03.03-.05.05-.08.07-.1.13-.2.19-.31,0,0,0,0,0,0,.06-.11.12-.22.18-.32.01-.02.03-.05.04-.07.05-.09.09-.17.13-.26,0-.02.02-.03.02-.05l6.25,6.25c-.59.88-1.26,1.7-2.01,2.45-.75.75-1.57,1.42-2.45,2.01l-6.25-6.25s.04-.02.06-.03Z"/>
</svg>