<?xml version="1.0" encoding="UTF-8"?>
<svg id="Layer_1" data-name="Layer 1" xmlns="http://www.w3.org/2000/svg" viewBox="0 0 80 80">
  <path d="m23.12,7.5h-12.66c-1.63,0-2.95,1.33-2.95,2.95v12.66c0,1.63,1.33,2.95,2.95,2.95h12.66c1.63,0,2.95-1.33,2.95-2.95v-12.66c0-1.63-1.33-2.95-2.95-2.95Zm1.27,15.62c0,.7-.57,1.27-1.27,1.27h-12.66c-.7,0-1.27-.57-1.27-1.27v-12.66c0-.7.57-1.27,1.27-1.27h12.66c.7,0,1.27.57,1.27,1.27v12.66Z"/>
  <path d="m46.33,7.5h-12.66c-1.63,0-2.95,1.33-2.95,2.95v12.66c0,1.63,1.33,2.95,2.95,2.95h12.66c1.63,0,2.95-1.33,2.95-2.95v-12.66c0-1.63-1.33-2.95-2.95-2.95Zm1.27,15.62c0,.7-.57,1.27-1.27,1.27h-12.66c-.7,0-1.27-.57-1.27-1.27v-12.66c0-.7.57-1.27,1.27-1.27h12.66c.7,0,1.27.57,1.27,1.27v12.66Z"/>
  <path d="m69.55,7.5h-12.66c-1.63,0-2.95,1.33-2.95,2.95v12.66c0,1.63,1.33,2.95,2.95,2.95h12.66c1.63,0,2.95-1.33,2.95-2.95v-12.66c0-1.63-1.33-2.95-2.95-2.95Zm1.27,15.62c0,.7-.57,1.27-1.27,1.27h-12.66c-.7,0-1.27-.57-1.27-1.27v-12.66c0-.7.57-1.27,1.27-1.27h12.66c.7,0,1.27.57,1.27,1.27v12.66Z"/>
  <path d="m23.12,30.71h-12.66c-1.63,0-2.95,1.33-2.95,2.95v12.66c0,1.63,1.33,2.95,2.95,2.95h12.66c1.63,0,2.95-1.33,2.95-2.95v-12.66c0-1.63-1.33-2.95-2.95-2.95Zm1.27,15.62c0,.7-.57,1.27-1.27,1.27h-12.66c-.7,0-1.27-.57-1.27-1.27v-12.66c0-.7.57-1.27,1.27-1.27h12.66c.7,0,1.27.57,1.27,1.27v12.66Z"/>
  <path d="m46.33,30.71h-12.66c-1.63,0-2.95,1.33-2.95,2.95v12.66c0,1.63,1.33,2.95,2.95,2.95h12.66c1.63,0,2.95-1.33,2.95-2.95v-12.66c0-1.63-1.33-2.95-2.95-2.95Zm1.27,15.62c0,.7-.57,1.27-1.27,1.27h-12.66c-.7,0-1.27-.57-1.27-1.27v-12.66c0-.7.57-1.27,1.27-1.27h12.66c.7,0,1.27.57,1.27,1.27v12.66Z"/>
  <path d="m69.55,30.71h-12.66c-1.63,0-2.95,1.33-2.95,2.95v12.66c0,1.63,1.33,2.95,2.95,2.95h12.66c1.63,0,2.95-1.33,2.95-2.95v-12.66c0-1.63-1.33-2.95-2.95-2.95Zm1.27,15.62c0,.7-.57,1.27-1.27,1.27h-12.66c-.7,0-1.27-.57-1.27-1.27v-12.66c0-.7.57-1.27,1.27-1.27h12.66c.7,0,1.27.57,1.27,1.27v12.66Z"/>
  <path d="m23.12,53.93h-12.66c-1.63,0-2.95,1.33-2.95,2.95v12.66c0,1.63,1.33,2.95,2.95,2.95h12.66c1.63,0,2.95-1.33,2.95-2.95v-12.66c0-1.63-1.33-2.95-2.95-2.95Zm1.27,15.62c0,.7-.57,1.27-1.27,1.27h-12.66c-.7,0-1.27-.57-1.27-1.27v-12.66c0-.7.57-1.27,1.27-1.27h12.66c.7,0,1.27.57,1.27,1.27v12.66Z"/>
  <path d="m46.33,53.93h-12.66c-1.63,0-2.95,1.33-2.95,2.95v12.66c0,1.63,1.33,2.95,2.95,2.95h12.66c1.63,0,2.95-1.33,2.95-2.95v-12.66c0-1.63-1.33-2.95-2.95-2.95Zm1.27,15.62c0,.7-.57,1.27-1.27,1.27h-12.66c-.7,0-1.27-.57-1.27-1.27v-12.66c0-.7.57-1.27,1.27-1.27h12.66c.7,0,1.27.57,1.27,1.27v12.66Z"/>
  <path d="m69.55,53.93h-12.66c-1.63,0-2.95,1.33-2.95,2.95v12.66c0,1.63,1.33,2.95,2.95,2.95h12.66c1.63,0,2.95-1.33,2.95-2.95v-12.66c0-1.63-1.33-2.95-2.95-2.95Zm1.27,15.62c0,.7-.57,1.27-1.27,1.27h-12.66c-.7,0-1.27-.57-1.27-1.27v-12.66c0-.7.57-1.27,1.27-1.27h12.66c.7,0,1.27.57,1.27,1.27v12.66Z"/>
</svg>