<?xml version="1.0" encoding="UTF-8"?>
<svg id="Layer_1" data-name="Layer 1" xmlns="http://www.w3.org/2000/svg" viewBox="0 0 80 80">
  <path d="m71.85,39.09c-.65-.39-1.31-.77-1.98-1.14-.45-.25-.61-.57-.49-1.09.33-1.55-.35-2.87-1.73-3.59-.24-.12-.45-.41-.54-.67-.4-1.09-.68-2.23-1.14-3.29-3.62-8.34-9.79-13.82-18.52-16.4-.27-.08-.58-.33-.71-.58-.7-1.33-2.06-2.03-3.55-1.71-.56.12-.88-.04-1.14-.52-.36-.67-.74-1.33-1.14-1.98-.5-.82-1.29-.82-1.79,0-.39.63-.76,1.27-1.11,1.92-.28.53-.63.69-1.24.56-1.4-.3-2.79.35-3.4,1.62-.22.47-.53.63-.98.75-2.86.78-5.51,2.02-7.97,3.67-.57.38-.72.92-.4,1.4.31.47.87.56,1.45.18,2.62-1.73,5.44-2.97,8.5-3.69.51-.12.81-.39.93-.91.24-1.01.73-1.31,1.76-1.12,1.21.23,2.21-.21,2.86-1.28.16-.26.31-.52.49-.81.1.14.15.19.17.24.73,1.49,1.83,2.2,3.54,1.81.64-.15,1.26.26,1.34.87.11.83.6,1.1,1.33,1.28,4.49,1.11,8.4,3.29,11.73,6.49,3.68,3.53,6.13,7.78,7.34,12.73.13.54.35.92.94,1.06,1.02.23,1.31.72,1.11,1.75-.23,1.16.22,2.2,1.23,2.82.28.17.56.33.87.52-.13.1-.18.14-.23.17-1.48.73-2.22,1.81-1.83,3.53.15.64-.25,1.28-.86,1.36-.86.11-1.13.63-1.3,1.38-.53,2.25-1.38,4.39-2.55,6.39-3.79,6.52-9.33,10.76-16.65,12.63-.53.14-.93.33-1.07.92-.24,1.03-.73,1.33-1.74,1.13-1.2-.24-2.22.21-2.86,1.26-.16.26-.31.52-.49.83-.11-.15-.17-.21-.2-.28-.72-1.48-1.81-2.15-3.5-1.77-.68.15-1.28-.27-1.37-.92-.11-.77-.55-1.06-1.24-1.22-4.5-1.1-8.41-3.28-11.75-6.46-3.7-3.53-6.18-7.79-7.4-12.77-.14-.56-.38-.95-1-1.07-.92-.18-1.25-.73-1.07-1.67.25-1.3-.18-2.27-1.31-2.95-.24-.15-.48-.3-.74-.47.12-.09.17-.14.22-.17,1.48-.73,2.2-1.83,1.81-3.54-.15-.67.28-1.26.94-1.36.77-.11,1.04-.58,1.2-1.26.95-3.93,2.75-7.44,5.37-10.52.75-.88,1.63-1.66,2.39-2.54.22-.25.35-.69.29-1.01-.05-.25-.43-.61-.68-.62-.35-.01-.78.18-1.04.42-3.93,3.63-6.6,8.04-8.05,13.19-.07.25-.32.53-.56.66-1.31.69-2.04,2.04-1.72,3.49.14.65-.09.97-.61,1.28-.85.5-1.66,1.06-2.49,1.59v.76c.86.55,1.72,1.12,2.59,1.65.46.28.63.59.51,1.15-.33,1.53.37,2.86,1.76,3.57.22.11.44.38.52.62,3.08,10.09,9.66,16.67,19.75,19.74.24.07.5.29.62.52.71,1.37,2.03,2.09,3.51,1.77.61-.13.94.04,1.24.56.51.86,1.08,1.69,1.62,2.54h.76c.25-.33.52-.65.74-1,.34-.54.65-1.09.95-1.65.24-.43.55-.57,1.05-.47,1.6.33,2.89-.33,3.63-1.76.11-.21.35-.41.57-.48,10.14-3.06,16.74-9.65,19.81-19.79.07-.24.3-.5.52-.61,1.38-.72,2.05-2.05,1.73-3.59-.11-.53.05-.85.5-1.09.67-.37,1.33-.75,1.98-1.14.86-.52.86-1.31,0-1.83Z"/>
  <path d="m48.04,60.19c-1.95.85-4.03,1.25-6.14,1.49-.69.08-1.02.51-.92,1.11.09.55.52.85,1.19.76,1.03-.14,2.06-.25,3.07-.48,12.51-2.9,20.37-15,17.97-27.63-2.42-12.73-15.13-21.21-27.87-18.61-11.04,2.26-18.92,11.88-19.09,23.16.19,1.55.26,3.12.57,4.65,2.14,10.34,10.36,17.76,20.87,18.9.81.09,1.26-.19,1.33-.8.06-.6-.28-.96-1.05-1.08-.13-.02-.25-.03-.38-.05-1.18-.23-2.39-.36-3.54-.7-10.91-3.17-17.44-13.79-15.4-24.96,2.11-11.57,13.58-19.49,25.13-17.35,11.35,2.1,19.12,12.36,17.78,23.78-1,8.51-5.68,14.41-13.52,17.82Z"/>
</svg>