<?xml version="1.0" encoding="UTF-8"?>
<svg id="Layer_1" data-name="Layer 1" xmlns="http://www.w3.org/2000/svg" viewBox="0 0 80 80">
  <path d="m60.58,17.07c-6.57-7.34-14.84-10.37-24.58-9.06-6.76.91-12.47,4.06-16.78,9.35-7.1,8.72-8.47,18.36-3.96,28.72,2.19,5.03,5.51,9.31,9.2,13.32,3.59,3.91,7.61,7.36,11.55,10.91,1,.9,2.02,1.71,3.38,1.97h1.26c.86-.42,1.86-.68,2.55-1.29,4.27-3.74,8.57-7.45,12.42-11.63,3.69-4.01,6.94-8.32,9.19-13.33,1.59-3.53,2.55-7.21,2.52-11.09-.06-6.77-2.22-12.81-6.75-17.87Zm.53,27.95c-2.49,5.23-6.06,9.68-10.15,13.7-3.28,3.22-6.75,6.26-10.14,9.37-.6.55-.98.56-1.55.05-4.68-4.19-9.49-8.25-13.59-13.04-3.13-3.66-5.86-7.56-7.62-12.09-1.52-3.91-2.02-7.94-1.2-12.06,1.74-8.71,6.77-14.72,15.04-17.99,2.61-1.03,5.34-1.42,9.01-1.49,8.72.45,15.96,4.72,20.27,13.39,3.31,6.66,3.13,13.45-.06,20.16Z"/>
  <path d="m40,15.78c-10.71,0-19.43,8.71-19.43,19.43s8.71,19.42,19.43,19.42,19.42-8.71,19.42-19.42-8.71-19.43-19.42-19.43Zm0,1.23c10.03,0,18.19,8.16,18.19,18.19,0,4.17-1.43,8.01-3.8,11.09v-2.87c0-.34-.29-.62-.57-.62h-2.01c.38-1.01.53-2.11.53-3.21,0-4.98-6.37-6.8-9.48-11.49v-.86c0-.33-.29-.62-.62-.62s-.62.29-.62.62v.91c-3.16,4.74-9.58,6.42-9.58,11.44,0,1.1.19,2.15.53,3.21h-1.58v-14.08c0-1.48-1.2-2.68-2.68-2.68s-2.68,1.2-2.68,2.68v17.57c-2.37-3.07-3.8-6.91-3.8-11.09,0-10.03,8.16-18.19,18.19-18.19Zm1.84,23.39h-5.17v-.81c0-4.07,3.4-5.7,5.55-9.86,1.58,3.02,3.83,4.79,4.88,7.09h-7.66c-.33,0-.62.29-.62.62s.29.62.62.62h8.14c.14.48.19,1.01.19,1.58,0,1.1-.14,2.15-.38,3.21h-10.34c-.1-.38-.19-.81-.24-1.2h5.03c.33,0,.62-.29.62-.62s-.34-.62-.62-.62Zm-6.42-.81v.81h-2.15c-.05-.24-.05-.53-.05-.81.05-2.44,2.06-4.02,4.4-5.84.19-.14.43-.34.62-.53-1.48,1.82-2.82,3.59-2.82,6.37Zm.38,3.21h-1.92c-.14-.38-.29-.81-.38-1.2h2.06c.05.38.14.81.24,1.2Zm10.29-9.62c1.48,1.2,3.06,2.35,4.02,3.64h-1.68c-.53-1.34-1.39-2.49-2.35-3.64Zm2.68,4.84h2.01c.19.48.34,1.01.34,1.58,0,1.1-.19,2.15-.62,3.21h-1.91c.24-1.01.38-2.11.38-3.21-.05-.57-.1-1.1-.19-1.58Zm-18.91-7.76v4.79h-3.02v-4.79h3.02Zm-3.02-1.24v-.29c0-.81.67-1.48,1.48-1.48s1.48.67,1.48,1.48v.29h-2.97Zm3.02,7.23v1.2h-3.02v-1.2h3.02Zm-3.02,11.51v-9.11h3.02v11.67c-1.1-.74-2.1-1.6-3.02-2.56Zm9.62,1.42c-.1-.19-.14-.38-.14-.62,0-.48.86-.91,1.53-1.58.67.67,1.53,1.1,1.53,1.58,0,.19-.05.43-.14.62-.19.38.1.81.48.86v3.35c-1.28-.02-2.53-.17-3.73-.44v-2.91c.43-.05.67-.48.48-.86Zm8.62,0c-.1-.19-.14-.38-.14-.62,0-.48.86-.91,1.53-1.58.67.67,1.53,1.1,1.53,1.58,0,.19-.05.43-.14.62-.19.38.1.81.48.86v1.32c-1.18.61-2.43,1.09-3.73,1.43v-2.75c.43-.05.67-.48.48-.86Zm4.5,1.46v-1.17c0-.24-.14-.48-.38-.57v-.29c0-.91-.67-1.44-1.24-1.91-.38-.29-.72-.57-.96-.96-.24-.38-.77-.38-1.01,0-.24.38-.62.67-1.01.96-.57.48-1.24,1.01-1.24,1.87v.29c-.24.1-.38.29-.38.57v3.66c-.78.15-1.58.23-2.39.28v-3.89c0-.24-.14-.48-.38-.57v-.29c0-.91-.67-1.44-1.24-1.91-.38-.29-.72-.57-.96-.96-.14-.29-.48-.29-.48-.29-.19,0-.38.1-.53.29-.24.38-.62.67-1.01.96-.57.48-1.24,1.01-1.24,1.87v.29c-.24.1-.38.29-.38.57v3.21c-1.26-.38-2.46-.89-3.59-1.52v-4.7h3.4c.34,0,.62-.29.62-.62s-.29-.62-.62-.62h-3.4v-1.15h21.97v1.2h-3.59c-.33,0-.62.29-.62.62s.29.62.62.62h3.64v1.26c-1.07,1.12-2.27,2.11-3.59,2.93Z"/>
</svg>