<?xml version="1.0" encoding="UTF-8"?>
<svg id="Layer_1" data-name="Layer 1" xmlns="http://www.w3.org/2000/svg" viewBox="0 0 80 80">
  <path d="m32.29,44.01c.23,0,.47,0,.7-.03.54-.08.83-.41.81-.96-.01-.52-.3-.82-.82-.89-.25-.03-.51-.03-.76-.03-6.77,0-13.54,0-20.31,0-1.74,0-2.52-.78-2.52-2.52,0-9.22,0-18.44,0-27.67,0-1.74.77-2.51,2.51-2.51,9.18,0,18.36,0,27.54,0,1.92,0,2.65.73,2.65,2.64,0,6.75,0,13.5,0,20.24,0,.25,0,.51.03.76.08.48.39.74.88.76.48.02.81-.22.94-.69.04-.16.05-.33.05-.5,0-7,.02-14,0-21,0-2.06-1.15-3.46-3.13-4.01-.08-.02-.15-.07-.23-.1H10.8c-1.13.36-2.14.89-2.74,1.98-.23.42-.38.88-.56,1.32v29.83c.59,2.36,2.3,3.43,4.93,3.4,6.62-.08,13.24-.03,19.86-.03Z"/>
  <path d="m72.5,40.38c0-2.74-1.64-4.38-4.38-4.39-2.45,0-4.91,0-7.36,0-.23,0-.47,0-.69.07-.44.13-.66.45-.65.9,0,.46.24.77.68.88.24.06.5.05.76.05,2.41,0,4.82,0,7.24,0,1.73,0,2.5.78,2.5,2.53,0,9.2,0,18.41,0,27.61,0,1.81-.76,2.56-2.59,2.56-9.16,0-18.32,0-27.48,0-1.88,0-2.63-.74-2.63-2.6,0-9.16,0-18.32,0-27.48,0-1.87.74-2.62,2.61-2.62,5.06,0,10.11,0,15.17,0,.27,0,.55,0,.82-.05.48-.1.79-.46.71-.9-.06-.33-.39-.65-.67-.88-.14-.12-.45-.07-.68-.07-5.18,0-10.37,0-15.55,0-2.66,0-4.31,1.66-4.31,4.33,0,9.29,0,18.57,0,27.86,0,2.66,1.67,4.31,4.32,4.32,9.29,0,18.57,0,27.86,0,2.65,0,4.32-1.67,4.32-4.32,0-4.65,0-9.31,0-13.96s0-9.22,0-13.84Z"/>
  <path d="m34.93,17.68c-.17-.02-.34,0-.51,0-2.33,0-4.65,0-6.98,0h-.7c-.16-.81.29-2.02-1.02-1.99-1.22.03-.84,1.18-.97,1.99h-.7c-2.35,0-4.7,0-7.04,0-.25,0-.58-.04-.73.1-.27.25-.56.59-.6.93-.05.45.29.78.77.85.21.03.42.02.63.02,4.27,0,8.55,0,12.82,0,.22,0,.44.02.71.03-1.08,3.28-2.67,6.19-4.86,8.82-1.51-1.81-2.69-3.71-3.65-5.74-.4-.85-.85-1.11-1.43-.85-.6.27-.74.85-.27,1.67.97,1.7,2,3.38,3.03,5.04.29.46.66.87,1.09,1.42-.25.2-.49.38-.72.56-1.49,1.15-2.96,2.31-4.46,3.44-.4.3-.74.59-.62,1.13.15.7.9,1,1.56.51,1.69-1.26,3.34-2.58,5-3.88.16-.13.3-.27.47-.42.18.17.33.33.49.46,1.65,1.28,3.29,2.58,4.96,3.83.55.41,1.14.28,1.44-.19.31-.48.15-1.01-.43-1.4-.42-.28-.87-.52-1.27-.84-1.33-1.05-2.65-2.13-3.94-3.17.1-.21.11-.25.14-.28,2.41-2.92,4.22-6.16,5.36-9.78.05-.17.33-.35.52-.37.61-.05,1.23,0,1.84-.02.58-.02.94-.35.97-.88.03-.55-.32-.95-.91-1.01Z"/>
  <path d="m55.63,45.24c-.29-.78-.71-1.1-1.38-1.09-.68.02-1.08.4-1.31,1.01-2.24,5.9-4.49,11.8-6.73,17.7-.27.71-.09,1.2.48,1.43.55.22,1.03-.05,1.3-.76.4-1.04.81-2.09,1.18-3.14.14-.4.34-.54.78-.54,2.85.02,5.71.02,8.56,0,.44,0,.67.11.82.56.38,1.12.81,2.22,1.25,3.32.21.54.7.74,1.18.58.52-.18.75-.66.59-1.22-.05-.18-.12-.36-.19-.54-1.01-2.67-2.01-5.33-3.02-8-1.17-3.1-2.34-6.2-3.52-9.3Zm-5.51,12.68c1.38-3.63,2.74-7.21,4.15-10.91,1.39,3.7,2.74,7.26,4.11,10.91h-8.27Z"/>
  <path d="m29.49,56.63c-.55-.4-1.12-.34-1.45.12-.32.46-.22.97.3,1.38.49.39,1,.76,1.51,1.14-.01.04-.03.09-.04.13-.93,0-1.85,0-2.77,0-3.75-.01-6.42-2.68-6.43-6.44,0-1.86,0-3.72,0-5.58,0-.78-.31-1.18-.91-1.2-.63-.02-.99.41-.99,1.19,0,1.99-.02,3.97,0,5.96.06,4.02,3.07,7.39,7.05,7.87,1.15.14,2.32.07,3.48.1.19,0,.38,0,.58,0-.49.52-1,.89-1.49,1.28-.5.4-.59.94-.25,1.38.34.43.85.51,1.35.15,1.33-.97,2.65-1.96,3.96-2.96.64-.49.62-1.15-.02-1.64-1.27-.98-2.56-1.94-3.85-2.89Z"/>
  <path d="m50.51,23.37c.52.39,1.07.34,1.42-.08.37-.45.27-1-.27-1.43-.49-.39-1-.76-1.5-1.14.02-.04.03-.09.05-.13.91,0,1.81,0,2.72,0,3.81,0,6.47,2.65,6.49,6.45,0,1.86,0,3.72,0,5.59,0,.77.33,1.17.93,1.18.6,0,.97-.41.97-1.15,0-2.01.03-4.02,0-6.03-.07-3.71-2.66-6.95-6.28-7.69-1.33-.27-2.73-.18-4.1-.25-.24-.01-.48,0-.75,0,.04-.12.04-.14.06-.15.47-.36.94-.72,1.41-1.08.54-.43.66-.97.31-1.43-.35-.47-.88-.51-1.45-.09-1.28.94-2.55,1.89-3.81,2.85-.7.53-.69,1.18.02,1.73,1.26.96,2.53,1.91,3.81,2.86Z"/>
</svg>