<?xml version="1.0" encoding="UTF-8"?>
<svg id="Layer_1" data-name="Layer 1" xmlns="http://www.w3.org/2000/svg" viewBox="0 0 80 80">
  <path d="m64.63,31.37c-.9-.81-1.18-1.49-1.11-2.7.39-7.37-6.08-13.18-13.39-12.12-.35.05-.53-.02-.73-.3-1.38-1.89-3.18-3.26-5.39-4.03-.94-.32-1.93-.48-2.9-.71h-2.22c-1.07.27-2.17.47-3.2.84-2.09.76-3.77,2.1-5.08,3.89-.2.27-.37.36-.73.31-7.3-1.07-13.72,4.71-13.44,12.09.02.55.29,1.18.1,1.63-.19.45-.82.71-1.22,1.09-2.1,1.93-3.32,4.32-3.69,7.14-.02.13-.07.25-.1.37v2.22c.03.12.08.25.1.37.37,2.85,1.56,5.32,3.76,7.16.92.77,1.15,1.47,1.09,2.66-.4,7.39,6.09,13.21,13.42,12.13.34-.05.5.04.68.29,4.46,5.96,13.09,6.41,18.07.89.8-.89,1.47-1.15,2.66-1.08,7.37.39,13.18-6.07,12.13-13.38-.05-.34.01-.53.29-.73,5.93-4.44,6.41-13.06.91-18.03Zm-5.22,16.66c1.39,3.58,1.11,6.91-1.65,9.69-2.77,2.78-6.09,3.1-9.72,1.69-1.54,3.51-4.09,5.68-8.01,5.69-3.92.01-6.5-2.12-8.08-5.69-3.62,1.4-6.94,1.1-9.71-1.68-2.77-2.78-3.06-6.1-1.66-9.7-3.54-1.56-5.69-4.12-5.69-8.04,0-3.92,2.15-6.48,5.69-8.04-1.4-3.6-1.11-6.92,1.66-9.7,2.77-2.78,6.1-3.08,9.71-1.67,1.55-3.52,4.11-5.68,8.03-5.69,3.92,0,6.49,2.13,8.06,5.69,3.58-1.4,6.91-1.12,9.69,1.65,2.78,2.77,3.1,6.09,1.68,9.72,3.55,1.51,5.65,4.1,5.66,8.01,0,3.91-2.06,6.52-5.66,8.07Z"/>
  <path d="m45.01,35.01v.69c0,4,0,8.01,0,12.01,0,.22,0,.45,0,.67-.04,1.04-.79,1.71-1.84,1.63-.93-.07-1.5-.78-1.51-1.86,0-4.17,0-8.34,0-12.51v-.64h-3.34v.63c0,2.35,0,4.71,0,7.06,0,1.85,0,3.71,0,5.56,0,1-.6,1.68-1.49,1.76-1.08.09-1.84-.61-1.85-1.73-.01-2.21,0-4.41,0-6.62,0-.8,0-1.6-.09-2.38-.33-2.6-2.45-4.36-5.1-4.28-2.6.07-4.64,1.96-4.8,4.55-.1,1.75-.04,3.52-.05,5.28,0,.05.04.1.06.15h3.28c0-.22,0-.42,0-.62,0-1.43-.01-2.85,0-4.28.01-1.04.67-1.73,1.62-1.75.97-.02,1.67.67,1.72,1.72,0,.17,0,.33,0,.5,0,2.65-.02,5.3.01,7.95.03,2.02,1.02,3.51,2.83,4.37,1.8.86,3.56.69,5.2-.49.12-.08.24-.16.35-.25.79.66,1.66,1.11,2.67,1.21,3.18.32,5.66-1.9,5.67-5.09.02-4.24,0-8.49,0-12.73,0-.16-.02-.32-.03-.51h-3.32Z"/>
  <path d="m55.08,35h-3.33v18.39c.92,0,1.81-.03,2.69.01.52.02.65-.14.65-.65-.02-5.73-.01-11.46-.01-17.18v-.57Z"/>
  <path d="m43.37,28.27c-.85.02-1.4-.49-1.77-1.63h-3.24c-.33,1.14-.8,1.58-1.66,1.61-.9.03-1.38-.4-1.81-1.61h-3.24c0,.14-.02.22-.01.29.14,1.92,1.08,3.33,2.8,4.16,1.77.86,3.52.72,5.14-.43.3-.21.47-.27.8-.02,2.64,1.97,6.53.82,7.67-2.28.2-.53.25-1.12.38-1.72h-3.35c-.32,1.11-.87,1.62-1.71,1.64Z"/>
  <path d="m41.62,19.92h-3.27v3.28h3.27v-3.28Z"/>
</svg>