<?xml version="1.0" encoding="UTF-8"?>
<svg id="Layer_1" data-name="Layer 1" xmlns="http://www.w3.org/2000/svg" viewBox="0 0 80 80">
  <defs>
    <style>
      .cls-1 {
        fill-rule: evenodd;
      }
    </style>
  </defs>
  <path class="cls-1" d="m25.35,24.51c3.83-3.13,6.58-5.36,8.91-6.83,2.29-1.44,4-2.03,5.74-2.03s3.45.59,5.74,2.03c2.34,1.47,5.08,3.71,8.91,6.83l1.63,1.33c4.12,3.36,5.74,4.73,6.7,6.5.18.33.34.66.48,1,.77,1.87.8,3.99.8,9.31s0,9.01-.35,11.9c-.34,2.85-.99,4.61-2.1,5.95-.42.51-.89.97-1.39,1.39-1.34,1.12-3.1,1.76-5.95,2.1-1.28.15-2.72.24-4.38.29v-8.94c0-5.57-4.52-10.09-10.09-10.09s-10.09,4.52-10.09,10.09v8.94c-1.66-.05-3.11-.13-4.38-.29-2.85-.34-4.61-.99-5.95-2.1-.51-.42-.97-.89-1.39-1.39-1.12-1.34-1.76-3.1-2.1-5.95-.34-2.9-.35-6.66-.35-11.9s.03-7.44.8-9.31c.14-.34.3-.68.48-1,.96-1.77,2.58-3.14,6.7-6.5l1.63-1.33Zm8.38,39.84c1.15,0,2.38,0,3.7,0h5.14c1.33,0,2.56,0,3.7,0v-8.99c0-3.46-2.81-6.27-6.27-6.27s-6.27,2.81-6.27,6.27v8.99Zm6.27-52.52c-2.73,0-5.15.96-7.78,2.62-2.56,1.61-5.48,4-9.19,7.02l-1.73,1.42-.33.27c-3.68,3-5.96,4.86-7.32,7.38-.24.44-.46.9-.65,1.36-1.09,2.65-1.09,5.59-1.09,10.34v.42s0,.13,0,.13c0,5.09,0,9.08.37,12.23.38,3.22,1.18,5.8,2.96,7.94.57.69,1.2,1.32,1.89,1.89,2.14,1.78,4.72,2.57,7.94,2.96,3.15.37,7.14.37,12.23.37h5.39c5.09,0,9.08,0,12.23-.37,3.22-.38,5.8-1.18,7.94-2.96.69-.57,1.32-1.2,1.89-1.89,1.78-2.14,2.57-4.72,2.96-7.94.37-3.15.37-7.14.37-12.23h0v-.55h0c0-4.75,0-7.69-1.09-10.34-.19-.47-.41-.92-.65-1.36-1.36-2.52-3.64-4.38-7.32-7.38l-.33-.27-1.73-1.42c-3.71-3.03-6.64-5.41-9.19-7.02-2.62-1.65-5.05-2.62-7.78-2.62Z"/>
</svg>