<?xml version="1.0" encoding="UTF-8"?>
<svg id="Layer_1" data-name="Layer 1" xmlns="http://www.w3.org/2000/svg" viewBox="0 0 60 60">
  <path d="m32.84,50.43c-.11.51-.18.96-.29,1.39-1.06,3.99-4.66,6.82-8.8,6.83-1.57,0-3.2.06-4.69-.34-3.93-1.05-6.11-3.81-6.84-7.87-.18,0-.4,0-.61,0-1.82,0-3.65-.01-5.47,0-1.41.01-2.51-.53-3.2-1.78-.68-1.23-.52-2.43.22-3.6.71-1.1,1.39-2.22,2.08-3.33.96-1.53,1.43-3.2,1.42-5.01-.01-4.3-.05-8.61,0-12.91.08-6.91,3.25-11.89,9.49-14.88.41-.19.47-.43.45-.8-.11-1.78.27-3.42,1.51-4.78,1.63-1.81,4.1-2.48,6.38-1.64,2.4.88,3.83,2.64,3.9,5.2.04,1.36.34,2.22,1.7,2.6.38.11.72.39,1.06.61.58.37.73.92.42,1.41-.31.48-.88.6-1.46.24-1.54-.96-3.2-1.63-4.98-1.99-7.48-1.5-15.03,3.68-16.26,11.21-.15.91-.22,1.83-.23,2.75-.02,4.28-.03,8.57,0,12.85.01,2.3-.58,4.4-1.82,6.34-.68,1.07-1.33,2.16-2.02,3.23-.34.53-.43,1.06-.11,1.62.31.53.8.7,1.4.7,10.96,0,21.92,0,32.88,0,.62,0,1.14-.17,1.45-.73.31-.56.18-1.1-.15-1.62-.69-1.09-1.36-2.19-2.04-3.29-.41-.66-.34-1.24.16-1.57.54-.35,1.08-.16,1.52.55.69,1.11,1.38,2.23,2.07,3.34.72,1.16.82,2.36.15,3.55-.67,1.19-1.74,1.74-3.11,1.73-2.05-.01-4.09,0-6.18,0Zm-1.98.03H14.28c.01.16,0,.28.03.4.69,2.88,2.41,4.85,5.29,5.55,1.34.33,2.8.31,4.21.26,3.07-.11,5.24-1.65,6.51-4.44.25-.54.35-1.15.54-1.77ZM18.61,8.05c2.63-.64,5.25-.59,7.88-.02.13-1.87-.44-3.29-1.99-4.18-1.42-.81-2.87-.75-4.23.19-1.37.95-1.85,2.32-1.67,4.01Zm12.53,21.6c-.87-.09-1.55-.18-2.23-.24-1.97-.16-1.99-.17-2.07-2.13-.06-1.68-.12-3.36-.17-5.04-.02-.85.21-1.14,1.06-1.29.81-.14,1.61-.28,2.42-.4.49-.07.57-.24.24-.62-.55-.64-1.08-1.29-1.61-1.94-.51-.62-.5-1.03.05-1.62,1.35-1.46,2.7-2.92,4.06-4.37.52-.55.93-.6,1.57-.16.71.49,1.41.98,2.1,1.49.38.28.53.19.57-.27.07-.86.15-1.71.24-2.57.07-.72.36-1.03,1.09-1.06,2.03-.09,4.05-.16,6.08-.22.75-.02,1.06.26,1.19,1.02.13.79.26,1.58.39,2.36.03.19.11.37.21.7.61-.5,1.12-.92,1.63-1.35q1.56-1.3,3.06.07c1.2,1.11,2.4,2.23,3.6,3.35.63.59.67,1,.17,1.71-.47.67-.95,1.34-1.43,2-.28.39-.23.57.28.61.84.06,1.67.15,2.51.23.74.07,1.09.39,1.12,1.12.09,2.03.16,4.05.22,6.08.02.69-.3,1.04-1,1.16-.79.13-1.57.26-2.36.39-.68.11-.73.22-.3.74.51.62,1.03,1.22,1.53,1.85.5.62.49,1.04-.05,1.63-1.35,1.46-2.7,2.92-4.06,4.37-.52.55-.94.59-1.57.16-.67-.47-1.33-.95-2.01-1.42-.52-.36-.63-.31-.69.34-.08.84-.14,1.67-.24,2.51-.08.68-.41.97-1.09,1-1.98.08-3.97.16-5.95.23-.81.03-1.15-.26-1.3-1.07-.15-.83-.29-1.65-.41-2.48-.07-.48-.25-.51-.6-.22-.66.55-1.32,1.11-1.98,1.65-.59.48-1.01.47-1.58-.05-1.46-1.34-2.92-2.7-4.37-4.05-.59-.55-.62-.95-.16-1.61.56-.8,1.13-1.6,1.82-2.57Zm22.3,2.36c-.58-.71-1.12-1.38-1.68-2.03-.36-.42-.46-.85-.23-1.36.1-.22.2-.45.26-.69.18-.75.66-1.06,1.4-1.14.76-.08,1.52-.25,2.18-.37v-4.63c-.59-.06-1.08-.11-1.56-.16-2.19-.22-1.74-.02-2.57-1.69-.27-.54-.25-.99.11-1.48.51-.68.99-1.38,1.5-2.1-1.15-1.07-2.26-2.09-3.39-3.14-.7.58-1.37,1.11-2.02,1.67-.44.38-.9.45-1.42.21-.18-.09-.37-.18-.57-.22-.79-.15-1.1-.67-1.19-1.42-.09-.76-.25-1.52-.37-2.18h-4.63c-.06.61-.13,1.12-.16,1.62-.11,1.78-.11,1.77-1.73,2.54-.5.24-.93.21-1.37-.12-.69-.51-1.4-1-2.14-1.52-1.06,1.14-2.1,2.26-3.15,3.39.39.47.69.95,1.1,1.31.94.85,1.1,1.76.51,2.89-.27.52-.57.86-1.16.95-.82.12-1.65.27-2.39.4v4.64c.61.06,1.09.1,1.58.15,2.11.24,1.7-.04,2.55,1.71.27.54.22,1-.14,1.48-.5.67-.97,1.36-1.47,2.08,1.15,1.06,2.26,2.1,3.39,3.14.47-.39.92-.69,1.28-1.08.84-.91,1.72-1.14,2.88-.55.58.3.91.62.99,1.25.11.8.27,1.6.39,2.31h4.63c.06-.65.16-1.2.14-1.74-.03-1.2.41-1.98,1.63-2.38.64-.21,1.11-.24,1.64.18.64.5,1.32.94,2,1.42,1.07-1.15,2.08-2.24,3.15-3.39Zm-11.32.89c-4.72-.05-8.37-3.75-8.31-8.43.05-4.56,3.8-8.17,8.42-8.13,4.49.04,8.17,3.79,8.14,8.3-.03,4.56-3.77,8.32-8.24,8.27Zm-.05-1.99c3.46.02,6.29-2.77,6.33-6.26.05-3.47-2.78-6.31-6.31-6.35-3.43-.03-6.28,2.77-6.31,6.2-.03,3.57,2.73,6.38,6.29,6.41Z"/>
</svg>