<?xml version="1.0" encoding="UTF-8"?>
<svg id="Layer_1" data-name="Layer 1" xmlns="http://www.w3.org/2000/svg" viewBox="0 0 28 28">
  <defs>
    <style>
      .cls-1 {
        fill: #000;
        stroke-width: 0px;
      }
    </style>
  </defs>
  <path class="cls-1" d="M17.22.9c-.72-.17-1.47-.23-2.21-.35-.08-.01-.15-.03-.23-.05h-1.58c-.51.07-1.03.12-1.54.21-2.83.49-5.25,1.77-7.27,3.81-1.92,1.94-3.15,4.26-3.66,6.95-.09.48-.13.97-.19,1.46-.01.09-.03.19-.05.28v1.58c.07.51.12,1.02.21,1.53.55,3.13,2.03,5.73,4.4,7.83,2.01,1.78,4.36,2.87,7.03,3.21,4.19.53,7.88-.6,11-3.45,2.19-1.99,3.55-4.48,4.11-7.39,1.36-7.01-3.11-13.97-10.03-15.62ZM13.99,25.83c-6.53-.01-11.81-5.29-11.81-11.82,0-6.53,5.31-11.84,11.83-11.83,6.53.01,11.81,5.29,11.81,11.82,0,6.53-5.31,11.84-11.83,11.83Z"/>
  <path class="cls-1" d="M10.12,18.49h1.75v-8.97h-1.75v8.97Z"/>
  <path class="cls-1" d="M16.12,18.49h1.77v-8.98h-1.77v8.98Z"/>
</svg>