<?xml version="1.0" encoding="UTF-8"?>
<svg id="Layer_1" data-name="Layer 1" xmlns="http://www.w3.org/2000/svg" viewBox="0 0 80 80">
  <defs>
    <style>
      .cls-1 {
        fill: #000;
        stroke-width: 0px;
      }
    </style>
  </defs>
  <path class="cls-1" d="M75.74,11.74c0-1.37.02-2.74,0-4.11-.05-2.94-1.74-5.34-4.37-6.26-.4-.14-.82-.24-1.23-.37H16.17s-.07.08-.11.1c-3.7,1.04-5.38,3.24-5.38,7.08,0,6.93,0,13.87,0,20.8,0,.23-.01.46,0,.69.06.74.58,1.24,1.29,1.24.71,0,1.23-.49,1.29-1.23.02-.23,0-.46,0-.69,0-7.01,0-14.02,0-21.03,0-2.77,1.58-4.35,4.34-4.35,17.04,0,34.09,0,51.13,0,2.81,0,4.38,1.57,4.38,4.4,0,16.46,0,32.92,0,49.38,0,.27-.03.53-.05.86h-.92c-2.64,0-5.28-.02-7.93,0-3.99.05-6.72,2.82-6.74,6.8,0,2.64,0,5.28,0,7.93v.89h-.91c-3.12,0-6.25,0-9.37,0-.84,0-1.4.54-1.41,1.28,0,.74.55,1.27,1.39,1.31.15,0,.3,0,.46,0,3.53,0,7.06-.02,10.59.01.77,0,1.34-.23,1.89-.78,4.89-4.92,9.79-9.82,14.71-14.71.65-.64.91-1.32.9-2.22-.02-15.67-.01-31.35-.01-47.02ZM60.13,71.75c0-2.43-.09-4.89.03-7.34.09-1.97,1.63-3.45,3.55-3.52,2.38-.08,4.77-.03,7.15-.03.06,0,.13.05.13.05-3.61,3.6-7.22,7.21-10.86,10.85Z"/>
  <path class="cls-1" d="M54.36,54.86c1.07-4.83.74-9.55-1.63-13.99-2.5-4.68-7.24-8.25-14.07-6.97-3.44.64-6.43,2.11-9.09,4.51-2.14-1.96-4.54-3.33-7.27-4.1-5.93-1.67-10.94-.2-14.44,4.38-3.3,4.31-4.11,9.26-3.35,14.5.9,6.24,3.78,11.52,8.15,16,4.61,4.72,10.24,7.75,16.46,9.76.35.11.81.04,1.18-.07,3.93-1.28,7.65-2.99,11.05-5.36,6.62-4.62,11.24-10.66,13-18.65ZM30.01,76.23c-.24.08-.56.09-.8,0-6.82-2.33-12.79-5.93-17.18-11.79-3.42-4.56-5.32-9.67-5.14-15.44.07-2.26.6-4.42,1.6-6.45,2.6-5.26,7.17-7.32,12.83-5.81,2.71.73,5.05,2.1,7.01,4.1,1,1.02,1.53,1.01,2.54-.02,2.8-2.83,6.2-4.37,10.17-4.57,3.57-.18,6.32,1.43,8.39,4.24,2.07,2.8,2.86,6.01,2.89,9.79-.18,5.95-2.56,11.34-6.69,16.01-4.25,4.81-9.62,7.87-15.63,9.93Z"/>
  <path class="cls-1" d="M66.85,11.36c.59-.11.95-.47,1.03-1.07.08-.62-.15-1.12-.74-1.35-.29-.12-.64-.14-.97-.14-12.72,0-25.44,0-38.17,0-.2,0-.41,0-.61.03-.69.13-1.13.69-1.1,1.35.04.67.53,1.15,1.24,1.21.25.02.51.01.76.01,6.27,0,12.54,0,18.82,0s12.59,0,18.89,0c.28,0,.56.02.84-.03Z"/>
  <path class="cls-1" d="M57.78,19.15c.67-.13,1.01-.59,1.02-1.24,0-.61-.31-1.07-.93-1.23-.27-.07-.55-.08-.83-.08-9.65,0-19.3,0-28.95,0-.28,0-.56,0-.83.08-.66.17-.98.64-.95,1.29.03.65.41,1.09,1.08,1.19.3.05.61.04.91.04,4.75,0,9.5,0,14.25,0s9.55,0,14.32,0c.3,0,.61,0,.91-.05Z"/>
  <path class="cls-1" d="M47.82,24.43c-3.25,0-6.5,0-9.75,0-3.2,0-6.4,0-9.6,0-.33,0-.66-.01-.99.02-.67.07-1.13.55-1.18,1.19-.04.64.36,1.18,1.01,1.33.27.06.55.06.83.06,6.58,0,13.15,0,19.73,0,.33,0,.67-.01.97-.12.6-.2.89-.67.84-1.3-.05-.62-.41-1.04-1.04-1.15-.27-.05-.56-.04-.84-.04Z"/>
  <path class="cls-1" d="M70.53,37.42c0-2.31,0-4.62,0-6.93,0-.63.01-1.27,0-1.9-.02-1-.47-1.54-1.28-1.56-.84-.01-1.3.55-1.32,1.59,0,.03,0,.05,0,.08,0,5.81,0,11.62,0,17.43,0,.1,0,.2,0,.3.06.87.56,1.38,1.32,1.37.75,0,1.23-.53,1.28-1.4.01-.2,0-.41,0-.61,0-2.79,0-5.58,0-8.37Z"/>
  <path class="cls-1" d="M67.96,54.48c.08.71.61,1.15,1.3,1.12.71-.03,1.18-.41,1.22-1.11.06-.96.06-1.93,0-2.89-.04-.7-.61-1.18-1.26-1.18-.65,0-1.2.47-1.27,1.17-.05.48,0,.96,0,1.44,0,0,0,0,0,0,0,.48-.04.97.01,1.44Z"/>
  <path class="cls-1" d="M19.76,11.38c.43.02.86,0,1.29,0,.46,0,.91.02,1.37,0,.73-.04,1.2-.51,1.24-1.19.04-.68-.37-1.3-1.06-1.35-1.01-.07-2.03-.07-3.04,0-.68.05-1.13.72-1.07,1.36.06.66.56,1.14,1.27,1.18Z"/>
  <path class="cls-1" d="M19.74,27.01c.45.04.91,0,1.37,0h0c.46,0,.92.03,1.37-.01.76-.08,1.21-.62,1.19-1.32-.02-.71-.5-1.21-1.27-1.24-.86-.03-1.72-.03-2.59,0-.79.03-1.33.57-1.33,1.28,0,.67.51,1.22,1.25,1.29Z"/>
  <path class="cls-1" d="M19.7,19.18c.45.04.91,0,1.37,0,0,0,0,0,0-.01.51,0,1.02.05,1.52-.01.66-.08,1.03-.5,1.08-1.17.05-.66-.34-1.26-1-1.31-1.03-.08-2.08-.08-3.11-.01-.65.04-1.09.66-1.07,1.28.02.66.5,1.18,1.21,1.24Z"/>
</svg>