<?xml version="1.0" encoding="UTF-8"?>
<svg id="Layer_1" data-name="Layer 1" xmlns="http://www.w3.org/2000/svg" viewBox="0 0 80 80">
  <path d="m32.87,40.8c-1.6-.68-3.12-1.34-4.65-1.99-1.17-.5-2.35-1-3.52-1.5-.43-.18-.47-.27-.35-.73.28-1.09.45-2.2.38-3.34-.02-.33.1-.49.43-.54,1.29-.22,2.58-.47,3.87-.7.09-.02.19-.03.28,0,1.84.51,3.73.76,5.62,1.03,2.02.29,3.72,1.21,4.98,2.86.03.04.05.08.1.14.62-.88,1.38-1.55,2.27-2.06,1.09-.63,2.29-.89,3.53-1.07,1.56-.23,3.1-.56,4.66-.85.18-.03.37-.04.55-.01,1.16.21,2.32.45,3.48.65.37.06.48.24.53.6.17,1.1.38,2.19.6,3.28.11.56.11.61-.41.82-2.55,1.08-5.11,2.16-7.66,3.24-.12.05-.23.1-.36.16.3.21.64.38.87.63.29.31.49.7.74,1.05.07.09.16.21.26.23,1.15.22,1.94.94,2.54,1.89.16.25.36.38.63.5.42.2.84.43,1.18.73.47.42.56,1.09.3,1.54-.31.53-.85.76-1.51.6-.32-.08-.63-.19-.92-.33-3.07-1.49-6.14-3-9.21-4.49-.12-.06-.3-.06-.42-.01-.47.18-.92.4-1.4.57-.18.06-.42.06-.59,0-.45-.16-.88-.38-1.33-.55-.13-.05-.33-.06-.45,0-2.88,1.38-5.75,2.77-8.63,4.16-.48.23-.97.46-1.47.65-.18.07-.42.06-.62.02-1-.21-1.35-1.1-.77-1.95.33-.49.82-.77,1.36-.94.29-.09.46-.25.62-.5.61-.95,1.39-1.67,2.55-1.88.08-.01.18-.08.21-.15.3-.82.88-1.36,1.71-1.76Zm-7.41-6.96c0,.19.02.34,0,.48-.07.41.12.58.48.74,4.54,1.97,9.07,3.95,13.6,5.94.32.14.57.13.88,0,3.74-1.64,7.48-3.26,11.23-4.88.96-.42,1.92-.84,2.89-1.26-.06-.38-.12-.73-.18-1.12-.1.05-.17.08-.25.11-1.03.47-2.04,1.01-3.1,1.39-1.5.53-3.05.91-4.55,1.41-2.25.76-4.39,1.76-6.16,3.4-.24.22-.47.23-.7-.02-.18-.2-.39-.38-.59-.55-1.05-.9-2.22-1.59-3.47-2.17-1.81-.84-3.67-1.55-5.64-1.89-1.51-.26-2.93-.7-4.25-1.48-.05-.03-.1-.04-.2-.09Zm-.38,2.83c.1.05.18.08.25.12,4.79,2.05,9.59,4.1,14.39,6.14.16.07.39.06.55-.01,3.36-1.41,6.72-2.84,10.08-4.26,1.43-.61,2.87-1.21,4.29-1.83.1-.04.24-.18.23-.27-.04-.32-.13-.63-.2-.97-.15.06-.26.11-.36.15-4.63,2.01-9.27,4.02-13.9,6.04-.32.14-.58.14-.89,0-4.33-1.91-8.68-3.8-13.01-5.7-.37-.16-.75-.32-1.16-.5-.1.37-.18.71-.28,1.07Zm28.5-3.27l-.03-.15c-.87-.17-1.74-.34-2.62-.49-.15-.03-.32.02-.48.04-1.65.29-3.29.62-4.94.86-1.49.22-2.82.74-3.96,1.73-.78.68-1.37,1.44-1.2,2.57.04.24,0,.49,0,.74,0,.08.02.17.03.29,1.77-1.4,3.72-2.33,5.8-3.02,1.29-.43,2.61-.74,3.89-1.18,1.19-.41,2.34-.92,3.51-1.39Zm-27.52-.1c.79.48,1.54.81,2.33,1.01.94.24,1.9.38,2.84.64,3.01.82,5.87,1.97,8.31,3.99.01.01.04,0,.11,0,0-.62.01-1.23,0-1.85,0-.18-.06-.37-.15-.52-1.11-1.64-2.71-2.53-4.63-2.81-1.84-.27-3.68-.5-5.48-.98-.12-.03-.26-.04-.38-.01-.94.17-1.88.34-2.94.53Zm11.16,9.37c-1.1-.47-2.1-.9-3.12-1.33-.1-.04-.23-.04-.34-.02-1,.19-1.72.7-1.99,1.73-.06.24-.21.31-.44.36-.39.08-.8.18-1.15.36-.58.31-.98.82-1.3,1.4-.16.29-.35.46-.67.54-.31.08-.61.24-.88.41-.38.25-.55.67-.41.92.14.25.5.33.95.15.39-.15.75-.37,1.13-.56,1.86-.9,3.72-1.8,5.58-2.7.85-.41,1.7-.82,2.63-1.27Zm5.56,0c.2.1.33.16.46.23,2.81,1.38,5.62,2.75,8.44,4.12.23.11.48.19.72.25.27.07.57.05.66-.23.06-.19,0-.53-.14-.66-.31-.27-.67-.51-1.06-.64-.36-.12-.59-.3-.78-.63-.57-.95-1.31-1.67-2.51-1.73-.12,0-.3-.2-.34-.34-.28-1.03-1-1.54-1.99-1.73-.09-.02-.19-.03-.27,0-1.04.43-2.08.87-3.19,1.34Zm29.14,2.95c-.64-.47-1.29-.94-1.9-1.44-2.68-2.22-2.69-6.08-.03-8.31.56-.47,1.16-.89,1.74-1.33.81-.61.9-.92.59-1.87-.6-1.84-1.19-3.67-1.79-5.51-.4-1.23-.55-1.35-1.82-1.36-1.63-.02-3.26-.01-4.74-.91-.54-.33-1.16-.07-1.44.45-.28.51-.15,1.16.4,1.46.71.38,1.46.77,2.24.94,1.06.23,2.16.26,3.31.39.37,1.13.77,2.33,1.16,3.53q.43,1.32-.69,2.18c-.14.11-.27.22-.4.33-2.91,2.41-3.62,6.47-1.71,9.72.7,1.2,1.74,2.05,2.83,2.87.16.12.33.43.29.59-.47,1.56-.99,3.1-1.5,4.69-.5,0-.97-.01-1.44,0-4.15.12-7.28,3.07-7.59,7.13-.1,1.29.24,2.51.61,3.73.06.21,0,.59-.15.7-1.28.97-2.59,1.91-3.9,2.86-.58-.39-1.12-.78-1.68-1.12-2.86-1.77-6.43-1.48-8.99.72-1.31,1.12-2.04,2.58-2.5,4.2-.13.45-.35.61-.82.59-.99-.04-1.98-.01-2.97-.01q-1.61,0-2.16-1.48c-1.79-4.85-7.17-6.63-11.51-3.81-.46.3-.91.62-1.36.93-1.04-.75-2.03-1.47-3.02-2.19q-1.17-.85-.76-2.28c1.29-4.49-1.29-8.89-5.77-9.77-.94-.18-1.92-.17-2.95-.25-.5-1.52-1.02-3.08-1.5-4.66-.04-.13.12-.38.25-.5.57-.49,1.21-.9,1.74-1.43,3.31-3.34,2.87-8.56-.95-11.52q-1.13-.88-.69-2.24c.39-1.19.79-2.39,1.18-3.59.51,0,.97.01,1.42,0,4.15-.11,7.29-3.05,7.61-7.11.1-1.29-.24-2.51-.6-3.73-.06-.2-.05-.57.08-.67,1.31-1,2.65-1.95,3.97-2.91.59.4,1.12.78,1.66,1.12,2.86,1.78,6.44,1.49,8.99-.7,1.14-.98,1.86-2.23,2.34-3.64.39-1.15.4-1.15,1.62-1.15h2.39q1.56,0,2.1,1.47c1.78,4.85,7.16,6.65,11.5,3.83.46-.3.91-.62,1.37-.94,1.17.85,2.27,1.71,3.44,2.47.67.43.76.85.5,1.57-.6,1.65-.72,3.36-.14,5.05.13.36.44.78.77.93.81.36,1.64-.41,1.38-1.3-.48-1.61-.25-3.14.3-4.66.1-.28.19-.57.27-.86.22-.76.09-1.14-.55-1.62-1.7-1.24-3.4-2.48-5.11-3.71-.66-.47-1.04-.47-1.7-.02-.69.47-1.36.99-2.07,1.42-2.79,1.69-6.4.53-7.67-2.47-.3-.71-.47-1.48-.8-2.17-.2-.44-.57-.81-.87-1.21h-7.48c-.3.4-.65.77-.87,1.21-.25.51-.38,1.09-.57,1.64-1.28,3.6-5.17,4.88-8.33,2.73-.53-.36-1.05-.74-1.58-1.11-.72-.5-1.09-.5-1.81.02-1.67,1.21-3.34,2.42-5.01,3.64-.71.52-.83.87-.58,1.71.24.82.53,1.64.71,2.47.71,3.12-1.6,6.2-4.8,6.41-.86.06-1.72.07-2.58.08-.65,0-1.05.32-1.25.91-.67,2.06-1.33,4.13-2.01,6.18-.21.64-.04,1.13.49,1.52.67.5,1.36.98,2,1.53,2.54,2.16,2.55,5.98,0,8.14-.62.53-1.29.99-1.94,1.49-.66.51-.78.84-.53,1.61.65,2.02,1.31,4.04,1.96,6.06.21.65.62.99,1.33.99.86,0,1.72.02,2.58.08,3.11.21,5.43,3.29,4.76,6.33-.19.88-.49,1.73-.75,2.6-.2.65-.09,1.17.49,1.58,1.75,1.25,3.48,2.52,5.21,3.79.56.41,1.1.39,1.66,0,.63-.45,1.25-.91,1.9-1.33,2.92-1.88,6.68-.65,7.94,2.59.29.74.53,1.5.78,2.25.2.6.61.9,1.26.9,2.17,0,4.34,0,6.51,0,.67,0,1.08-.31,1.29-.95.22-.67.44-1.34.69-2.01,1.3-3.5,5.13-4.74,8.22-2.66.55.37,1.09.77,1.64,1.15.73.5,1.1.51,1.81,0,1.67-1.21,3.34-2.42,5.01-3.64.74-.54.84-.87.57-1.77-.23-.78-.5-1.56-.68-2.35-.74-3.19,1.56-6.27,4.84-6.49.81-.05,1.63-.08,2.45-.07.7,0,1.13-.31,1.34-.97.66-2.04,1.31-4.09,1.98-6.12.21-.64.06-1.13-.48-1.53Zm-31.93,15.89c-11.85,0-21.5-9.64-21.5-21.5s9.65-21.5,21.5-21.5,21.5,9.64,21.5,21.5-9.65,21.5-21.5,21.5Zm0-42c-11.3,0-20.5,9.2-20.5,20.5s9.2,20.5,20.5,20.5,20.5-9.2,20.5-20.5-9.2-20.5-20.5-20.5Z"/>
</svg>