<svg width="60" height="60" viewBox="0 0 60 60" fill="none" xmlns="http://www.w3.org/2000/svg">
<path d="M28.7699 23.9401C28.9532 23.812 29.0882 23.6261 29.1535 23.4122C29.2188 23.1983 29.2104 22.9687 29.1299 22.7601C29.0494 22.5535 28.9026 22.3796 28.7126 22.2656C28.5225 22.1515 28.2999 22.1039 28.0799 22.1301C25.0997 22.4891 22.2807 23.6792 19.9449 25.5644C17.609 27.4496 15.8506 29.9539 14.8706 32.791C13.8905 35.6282 13.7283 38.6838 14.4024 41.6088C15.0766 44.5338 16.56 47.2102 18.6831 49.3321C20.8062 51.454 23.4834 52.9359 26.4088 53.6084C29.3341 54.281 32.3897 54.117 35.2263 53.1354C38.0629 52.1537 40.5662 50.3939 42.4501 48.057C44.334 45.7201 45.5225 42.9004 45.8799 39.9201C45.9091 39.6967 45.8622 39.4701 45.7466 39.2768C45.6309 39.0835 45.4535 38.9349 45.2428 38.855C45.0322 38.7752 44.8008 38.7688 44.5861 38.8368C44.3714 38.9049 44.186 39.0435 44.0599 39.2301C43.1471 40.5639 41.9517 41.6803 40.5585 42.4997C39.1654 43.3191 37.6088 43.8215 35.9995 43.971C34.3901 44.1206 32.7676 43.9137 31.2473 43.365C29.7271 42.8163 28.3464 41.9393 27.2035 40.7964C26.0606 39.6535 25.1837 38.2729 24.635 36.7526C24.0863 35.2323 23.8793 33.6098 24.0289 32.0005C24.1784 30.3911 24.6808 28.8345 25.5002 27.4414C26.3196 26.0482 27.436 24.8528 28.7699 23.9401ZM21.9999 33.0001C21.9955 35.4377 22.6766 37.8274 23.9655 39.8964C25.2543 41.9655 27.0988 43.6305 29.2886 44.7014C31.4784 45.7723 33.9251 46.206 36.3496 45.9529C38.774 45.6998 41.0785 44.7701 42.9999 43.2701C42.1236 45.4028 40.7342 47.2861 38.955 48.7527C37.1758 50.2193 35.062 51.2237 32.8012 51.6768C30.5404 52.1299 28.2028 52.0176 25.9958 51.3498C23.7889 50.6821 21.7811 49.4796 20.1507 47.8492C18.5203 46.2188 17.3178 44.211 16.6501 42.0041C15.9824 39.7972 15.8701 37.4595 16.3231 35.1987C16.7762 32.9379 17.7806 30.8241 19.2472 29.0449C20.7138 27.2657 22.5971 25.8763 24.7299 25.0001C22.9541 27.2882 21.9933 30.1037 21.9999 33.0001Z" fill="black"/>
<path d="M45.9999 27.07C45.9419 26.8922 45.8353 26.7343 45.6921 26.6141C45.5489 26.4939 45.375 26.4163 45.1899 26.39L41.5499 25.86L39.9199 22.56C39.838 22.3909 39.7101 22.2483 39.551 22.1485C39.3918 22.0488 39.2077 21.9958 39.0199 21.9958C38.832 21.9958 38.648 22.0488 38.4888 22.1485C38.3296 22.2483 38.2018 22.3909 38.1199 22.56L36.4899 25.86L32.8499 26.39C32.6648 26.4163 32.4908 26.4939 32.3476 26.6141C32.2045 26.7343 32.0978 26.8922 32.0399 27.07C31.9881 27.2445 31.9849 27.4299 32.0307 27.6061C32.0765 27.7824 32.1696 27.9427 32.2999 28.07L34.9299 30.64L34.3099 34.27C34.2742 34.4574 34.2929 34.6512 34.3637 34.8284C34.4346 35.0056 34.5547 35.1588 34.7099 35.27C34.8611 35.3781 35.0394 35.4419 35.2249 35.4542C35.4104 35.4666 35.5956 35.427 35.7599 35.34L38.9999 33.63L42.2599 35.34C42.4002 35.4191 42.5587 35.4605 42.7199 35.46C42.9317 35.4607 43.1383 35.3942 43.3099 35.27C43.465 35.1588 43.5851 35.0056 43.656 34.8284C43.7269 34.6512 43.7456 34.4574 43.7099 34.27L43.0899 30.64L45.7199 28.07C45.8536 27.9449 45.9505 27.7855 45.9999 27.6092C46.0492 27.4328 46.0492 27.2463 45.9999 27.07ZM41.3099 29.6C41.1959 29.7133 41.111 29.8525 41.0622 30.0057C41.0135 30.1589 41.0024 30.3216 41.0299 30.48L41.3999 32.63L39.4599 31.63C39.3194 31.5511 39.161 31.5097 38.9999 31.5097C38.8388 31.5097 38.6804 31.5511 38.5399 31.63L36.5999 32.63L36.9999 30.48C37.0274 30.3216 37.0163 30.1589 36.9675 30.0057C36.9188 29.8525 36.8338 29.7133 36.7199 29.6L35.1499 28.08L37.3099 27.76C37.4719 27.7374 37.6259 27.6755 37.7584 27.5796C37.8909 27.4837 37.9978 27.3568 38.0699 27.21L39.0699 25.26L40.0699 27.21C40.1419 27.3568 40.2489 27.4837 40.3814 27.5796C40.5139 27.6755 40.6679 27.7374 40.8299 27.76L42.9899 28.08L41.3099 29.6Z" fill="black"/>
<path d="M57 5H51V3C51 2.20435 50.6839 1.44129 50.1213 0.87868C49.5587 0.316071 48.7956 2.38419e-07 48 2.38419e-07C47.2044 2.38419e-07 46.4413 0.316071 45.8787 0.87868C45.3161 1.44129 45 2.20435 45 3V5H39V3C39 2.20435 38.6839 1.44129 38.1213 0.87868C37.5587 0.316071 36.7956 0 36 0C35.2044 0 34.4413 0.316071 33.8787 0.87868C33.3161 1.44129 33 2.20435 33 3V5H27V3C27 2.20435 26.6839 1.44129 26.1213 0.87868C25.5587 0.316071 24.7956 0 24 0C23.2044 0 22.4413 0.316071 21.8787 0.87868C21.3161 1.44129 21 2.20435 21 3V5H15V3C15 2.20435 14.6839 1.44129 14.1213 0.87868C13.5587 0.316071 12.7956 0 12 0C11.2044 0 10.4413 0.316071 9.87868 0.87868C9.31607 1.44129 9 2.20435 9 3V5H3C2.20435 5 1.44129 5.31607 0.87868 5.87868C0.316071 6.44129 0 7.20435 0 8V23C0 23.2652 0.105357 23.5196 0.292893 23.7071C0.48043 23.8946 0.734784 24 1 24C1.26522 24 1.51957 23.8946 1.70711 23.7071C1.89464 23.5196 2 23.2652 2 23V18H58V49C58 49.2652 58.1054 49.5196 58.2929 49.7071C58.4804 49.8946 58.7348 50 59 50C59.2652 50 59.5196 49.8946 59.7071 49.7071C59.8946 49.5196 60 49.2652 60 49V8C60 7.20435 59.6839 6.44129 59.1213 5.87868C58.5587 5.31607 57.7956 5 57 5ZM47 3C47 2.73478 47.1054 2.48043 47.2929 2.29289C47.4804 2.10536 47.7348 2 48 2C48.2652 2 48.5196 2.10536 48.7071 2.29289C48.8946 2.48043 49 2.73478 49 3V9C49 9.26522 48.8946 9.51957 48.7071 9.70711C48.5196 9.89464 48.2652 10 48 10C47.7348 10 47.4804 9.89464 47.2929 9.70711C47.1054 9.51957 47 9.26522 47 9V3ZM35 3C35 2.73478 35.1054 2.48043 35.2929 2.29289C35.4804 2.10536 35.7348 2 36 2C36.2652 2 36.5196 2.10536 36.7071 2.29289C36.8946 2.48043 37 2.73478 37 3V9C37 9.26522 36.8946 9.51957 36.7071 9.70711C36.5196 9.89464 36.2652 10 36 10C35.7348 10 35.4804 9.89464 35.2929 9.70711C35.1054 9.51957 35 9.26522 35 9V3ZM23 3C23 2.73478 23.1054 2.48043 23.2929 2.29289C23.4804 2.10536 23.7348 2 24 2C24.2652 2 24.5196 2.10536 24.7071 2.29289C24.8946 2.48043 25 2.73478 25 3V9C25 9.26522 24.8946 9.51957 24.7071 9.70711C24.5196 9.89464 24.2652 10 24 10C23.7348 10 23.4804 9.89464 23.2929 9.70711C23.1054 9.51957 23 9.26522 23 9V3ZM11 3C11 2.73478 11.1054 2.48043 11.2929 2.29289C11.4804 2.10536 11.7348 2 12 2C12.2652 2 12.5196 2.10536 12.7071 2.29289C12.8946 2.48043 13 2.73478 13 3V9C13 9.26522 12.8946 9.51957 12.7071 9.70711C12.5196 9.89464 12.2652 10 12 10C11.7348 10 11.4804 9.89464 11.2929 9.70711C11.1054 9.51957 11 9.26522 11 9V3ZM2 16V8C2 7.73478 2.10536 7.48043 2.29289 7.29289C2.48043 7.10536 2.73478 7 3 7H9V9C9 9.79565 9.31607 10.5587 9.87868 11.1213C10.4413 11.6839 11.2044 12 12 12C12.7956 12 13.5587 11.6839 14.1213 11.1213C14.6839 10.5587 15 9.79565 15 9V7H21V9C21 9.79565 21.3161 10.5587 21.8787 11.1213C22.4413 11.6839 23.2044 12 24 12C24.7956 12 25.5587 11.6839 26.1213 11.1213C26.6839 10.5587 27 9.79565 27 9V7H33V9C33 9.79565 33.3161 10.5587 33.8787 11.1213C34.4413 11.6839 35.2044 12 36 12C36.7956 12 37.5587 11.6839 38.1213 11.1213C38.6839 10.5587 39 9.79565 39 9V7H45V9C45 9.79565 45.3161 10.5587 45.8787 11.1213C46.4413 11.6839 47.2044 12 48 12C48.7956 12 49.5587 11.6839 50.1213 11.1213C50.6839 10.5587 51 9.79565 51 9V7H57C57.2652 7 57.5196 7.10536 57.7071 7.29289C57.8946 7.48043 58 7.73478 58 8V16H2Z" fill="black"/>
<path d="M59 52C58.7348 52 58.4804 52.1054 58.2929 52.2929C58.1054 52.4804 58 52.7348 58 53V57C58 57.2652 57.8946 57.5196 57.7071 57.7071C57.5196 57.8946 57.2652 58 57 58H3C2.73478 58 2.48043 57.8946 2.29289 57.7071C2.10536 57.5196 2 57.2652 2 57V27C2 26.7348 1.89464 26.4804 1.70711 26.2929C1.51957 26.1054 1.26522 26 1 26C0.734784 26 0.48043 26.1054 0.292893 26.2929C0.105357 26.4804 0 26.7348 0 27V57C0 57.7956 0.316071 58.5587 0.87868 59.1213C1.44129 59.6839 2.20435 60 3 60H57C57.7956 60 58.5587 59.6839 59.1213 59.1213C59.6839 58.5587 60 57.7956 60 57V53C60 52.7348 59.8946 52.4804 59.7071 52.2929C59.5196 52.1054 59.2652 52 59 52Z" fill="black"/>
</svg>
