<?xml version="1.0" encoding="UTF-8"?>
<svg id="Layer_1" data-name="Layer 1" xmlns="http://www.w3.org/2000/svg" viewBox="0 0 60 60">
  <defs>
    <style>
      .cls-1 {
        fill: #232f3e;
      }
    </style>
  </defs>
  <path class="cls-1" d="m57.66,40.07c-.92-2.42-3.48-3.66-6.05-2.92-4.3,1.25-8.6,2.51-12.89,3.8-.34.1-.69.35-.91.64-1.7,2.21-3.85,3.65-6.66,4-1.46.18-2.89-.04-4.29-.46-.42-.13-.6-.45-.48-.88.12-.39.43-.55.83-.48.21.04.42.11.62.16,3.39.82,6.23-.06,8.5-2.73.24-.28.3-.54.17-.9-.73-2.01-2.1-3.4-4.12-4.05-3.11-.99-6.25-1.91-9.39-2.83-.31-.09-.71-.07-1.02.03-2.34.77-4.67,1.58-7.01,2.36-.39.13-.5.3-.5.7.02,2.31.01,4.63.01,6.94s.02,4.51-.02,6.76c0,.57.16.8.72.95,5.37,1.44,10.74,2.86,16.08,4.4,1.41.41,2.58.29,3.91-.32,6.6-3.02,13.26-5.92,19.88-8.9,2.49-1.12,3.56-3.79,2.62-6.28Z"/>
  <path class="cls-1" d="m20.94,16.22c.87.64,1.75,1.26,2.62,1.9.77.57.96,1.14.67,2.05-.32,1.03-.67,2.04-1,3.07-.44,1.39-.07,2.66,1.02,3.46,1.11.82,2.45.81,3.66-.06.88-.63,1.74-1.27,2.62-1.9.78-.56,1.37-.56,2.16,0,.86.61,1.71,1.24,2.57,1.86,1.24.89,2.57.92,3.7.09,1.09-.81,1.46-2.08,1-3.52-.32-1.01-.66-2.01-.98-3.01-.29-.91-.09-1.48.68-2.04.85-.63,1.71-1.24,2.57-1.87,1.22-.9,1.65-2.13,1.23-3.44-.43-1.32-1.5-2.08-3-2.09-1.08-.01-2.16,0-3.23,0-.92,0-1.4-.35-1.7-1.23-.34-1.02-.67-2.04-1.01-3.07-.48-1.44-1.5-2.22-2.9-2.21-1.4,0-2.42.78-2.9,2.22-.35,1.06-.68,2.12-1.05,3.18-.26.74-.77,1.1-1.55,1.11-.57.01-1.14,0-1.71,0-.57,0-1.14,0-1.71,0-1.44.03-2.52.8-2.94,2.1-.42,1.3.02,2.55,1.19,3.41Z"/>
  <path class="cls-1" d="m12.02,33.3c-3,0-6,0-8.99,0-.8,0-1.02.22-1.02,1,0,5.9,0,11.79,0,17.69,0,.76.21.96.99.96,3.02,0,6.03,0,9.05,0,.84,0,1.02-.19,1.02-1.05,0-2.92,0-5.84,0-8.76s0-5.88,0-8.82c0-.82-.21-1.04-1.04-1.04Zm-3.52,5.14c-.33.04-.66,0-.99,0-.31,0-.63.03-.93,0-.4-.05-.64-.31-.63-.71,0-.4.25-.66.66-.68.62-.02,1.25-.02,1.87,0,.41.01.65.28.66.68,0,.4-.23.67-.63.71Z"/>
</svg>