<svg width="17" height="18" viewBox="0 0 17 18" fill="none" xmlns="http://www.w3.org/2000/svg">
<g clip-path="url(#clip0_1347_436)">
<path fill-rule="evenodd" clip-rule="evenodd" d="M9.39267 17.8183C12.949 17.4199 15.7991 14.5771 16.2047 11.0208C16.737 6.37079 13.1228 2.41251 8.59232 2.36181V0.275835C8.59232 0.159948 8.44746 0.0983822 8.34968 0.170812L4.0546 3.32512C3.98217 3.37945 3.98217 3.48447 4.0546 3.53879L8.34968 6.6931C8.44746 6.76553 8.59232 6.70035 8.59232 6.58808V4.50573C11.7756 4.55643 14.3251 7.2653 14.1078 10.5029C13.9231 13.2878 11.6525 15.5476 8.86755 15.7251C5.91604 15.9134 3.40636 13.8057 2.95729 11.0172C2.874 10.4993 2.42131 10.1226 1.89982 10.1226C1.25157 10.1226 0.744565 10.6985 0.845967 11.3395C1.47611 15.3122 5.14467 18.2927 9.39267 17.8183Z" fill="#00AAF0"/>
</g>
<defs>
<clipPath id="clip0_1347_436">
<rect width="16" height="18" fill="white" transform="translate(0.5)"/>
</clipPath>
</defs>
</svg>
