<svg width="21" height="20" viewBox="0 0 21 20" fill="none" xmlns="http://www.w3.org/2000/svg">
<path fill-rule="evenodd" clip-rule="evenodd" d="M0.857448 16.1795C0.884437 16.0831 0.872871 15.9495 0.825318 15.8621C0.164723 14.6553 -0.0987444 13.3726 0.0336317 12.0026C0.338225 8.82943 3.09756 6.26673 6.28744 6.22175C6.60103 6.21732 6.91524 6.24342 7.22712 6.26933C7.3677 6.28101 7.50781 6.29265 7.64718 6.30143C7.66161 6.19539 7.67497 6.08733 7.68848 5.97802L7.68849 5.97801C7.71953 5.72698 7.75138 5.46932 7.79884 5.21415C8.45815 1.70297 12.0272 -0.637385 15.5062 0.1543C19.7821 1.12849 21.8885 5.8182 19.7757 9.65324C19.7281 9.74064 19.714 9.87301 19.741 9.96941C19.8708 10.4392 20.0044 10.9079 20.1381 11.3767C20.2717 11.8455 20.4054 12.3143 20.5352 12.784C20.5776 12.9382 20.6085 13.1156 20.5763 13.2672C20.4799 13.7325 19.9774 13.9304 19.5405 13.6849C18.7591 13.2454 17.9802 12.8007 17.2052 12.3496C17.078 12.2763 16.9803 12.2738 16.8492 12.3355C16.0331 12.7197 15.1746 12.9331 14.2711 12.9344C13.9747 12.9344 13.6776 12.9147 13.3775 12.8949L13.3775 12.8949C13.2366 12.8856 13.095 12.8762 12.9525 12.8688C12.9377 12.9768 12.9244 13.0857 12.9111 13.1952C12.8815 13.4374 12.8516 13.6819 12.8047 13.9227C12.0053 18.0379 7.55465 20.3102 3.75301 18.5417C3.61164 18.4762 3.50882 18.4865 3.37773 18.5636C2.95502 18.8097 2.53071 19.0519 2.10635 19.2941L2.10571 19.2944C1.77036 19.4858 1.43498 19.6772 1.10035 19.8706C0.852307 20.0146 0.604262 20.0531 0.344651 19.9105C0.0593355 19.7524 -0.0640451 19.4401 0.0323452 19.0944C0.13556 18.7275 0.239872 18.3611 0.344177 17.9946L0.344182 17.9946C0.516515 17.3892 0.688832 16.7838 0.856162 16.1769L0.857448 16.1795ZM13.3214 11.5001C14.4305 11.6864 15.5011 11.5168 16.4894 10.9719C16.8891 10.7521 17.2271 10.738 17.6088 10.9899C17.8536 11.1519 18.1117 11.294 18.3884 11.4464L18.3885 11.4464C18.5156 11.5164 18.6467 11.5886 18.7822 11.6659C18.7356 11.5006 18.692 11.3395 18.6493 11.1817C18.5505 10.8171 18.4566 10.4705 18.3427 10.1313C18.218 9.75863 18.2707 9.45532 18.4763 9.1186C20.3758 6.02254 18.4789 1.98058 14.8829 1.43822C12.0734 1.0141 9.42077 3.0293 9.08533 5.84519C8.75888 8.58267 10.5916 11.0426 13.3201 11.5001H13.3214ZM1.97811 17.2974L1.97809 17.2975L1.97796 17.298C1.94425 17.4183 1.91054 17.5386 1.87661 17.6588C1.86698 17.6925 1.85985 17.7267 1.85053 17.7715L1.85052 17.7715C1.84493 17.7984 1.83854 17.8291 1.83035 17.8657C1.96368 17.7897 2.09363 17.717 2.22074 17.6459C2.51513 17.4812 2.79435 17.325 3.06543 17.1563C3.39316 16.9519 3.69004 16.9558 4.0319 17.1421C6.4121 18.4428 9.34622 17.6703 10.7869 15.3698C11.3139 14.5267 11.5683 13.6065 11.5555 12.6105C11.5529 12.4653 11.5118 12.3882 11.3717 12.3188C9.52872 11.4037 8.33734 9.95655 7.84125 7.95292C7.80912 7.82311 7.75 7.76657 7.62276 7.73444C4.87371 7.034 1.9383 8.94895 1.46149 11.7507C1.2353 13.0835 1.47177 14.3198 2.1992 15.4585C2.34571 15.6873 2.38041 15.9135 2.30202 16.1744V16.1705C2.18909 16.5443 2.08355 16.9211 1.97811 17.2974ZM12.847 4.48926H12.8471C13.0303 4.49004 13.2151 4.49082 13.4021 4.49082V3.96132C13.4021 3.90965 13.4018 3.85799 13.4014 3.80632C13.4006 3.68577 13.3998 3.56522 13.4034 3.44466C13.4175 3.04239 13.7478 2.74166 14.1398 2.76736C14.4971 2.79178 14.7708 3.08095 14.7786 3.45494C14.783 3.69091 14.7819 3.92627 14.7808 4.16524C14.7803 4.27248 14.7798 4.38045 14.7798 4.48953C14.9657 4.48953 15.1484 4.48904 15.329 4.48855L15.3295 4.48854C15.7296 4.48745 16.1193 4.48639 16.5097 4.49082C16.8991 4.49596 17.1934 4.80055 17.1934 5.17712C17.1934 5.5524 16.8966 5.85185 16.5097 5.86599C16.4308 5.86854 16.3518 5.86772 16.2699 5.86687H16.2699C16.2278 5.86643 16.1849 5.86599 16.1409 5.86599C16.047 6.82732 15.7553 7.69355 15.1757 8.47752C15.3595 8.54435 15.5188 8.60219 15.6782 8.65874C16.0406 8.78726 16.236 9.14583 16.1344 9.49412C16.0239 9.87197 15.6576 10.0905 15.2759 9.96579C14.9238 9.85141 14.5806 9.70232 14.2439 9.54681C14.1244 9.49155 14.0447 9.49798 13.9303 9.55067C13.6052 9.69975 13.2787 9.84884 12.9394 9.95808C12.5243 10.0917 12.1542 9.87968 12.0449 9.48641C11.9434 9.12269 12.1554 8.77184 12.5513 8.64074C12.6577 8.60496 12.7627 8.56573 12.877 8.52304C12.9187 8.50747 12.9616 8.49144 13.0063 8.47495C12.4215 7.68584 12.1362 6.81832 12.0398 5.8647C11.9937 5.8647 11.9493 5.8653 11.9059 5.86589C11.8223 5.86702 11.7428 5.86809 11.6632 5.8647C11.3792 5.85185 11.171 5.71433 11.0515 5.45986C10.8394 5.00747 11.1684 4.49725 11.6812 4.48953L11.6838 4.4921C12.0692 4.48597 12.4546 4.4876 12.847 4.48926ZM14.0871 7.61772C14.4894 7.09593 14.6655 6.51502 14.7503 5.88013H13.4381C13.5036 6.51245 13.7003 7.08308 14.0871 7.61772ZM6.1124 9.66631C5.80009 9.66888 5.59189 9.83852 5.46979 10.1226L5.46851 10.1251C5.31542 10.4824 5.16227 10.8397 5.00911 11.197C4.48465 12.4206 3.96011 13.6443 3.43789 14.8688C3.40766 14.9384 3.38918 15.0126 3.37548 15.0676C3.36996 15.0898 3.36521 15.1089 3.36078 15.1233C3.36206 15.4973 3.58054 15.7723 3.89671 15.8507C4.1923 15.924 4.51489 15.7839 4.65626 15.4973C4.79249 15.221 4.91073 14.9356 5.0264 14.6503C5.07267 14.5372 5.12407 14.4845 5.25774 14.4871C5.83222 14.4961 6.40671 14.4948 6.9812 14.4871C7.11229 14.4845 7.17012 14.5321 7.2151 14.6478C7.31792 14.9074 7.42973 15.1644 7.54411 15.4189C7.71762 15.8044 8.10575 15.9664 8.46561 15.8096C8.82289 15.6541 8.97198 15.2582 8.80619 14.8688C8.35637 13.8141 7.90427 12.7605 7.45218 11.707C7.22611 11.1802 7.00005 10.6534 6.77428 10.1264C6.64833 9.83338 6.4337 9.66245 6.1124 9.66631ZM6.36877 12.6843C6.42868 12.8247 6.48726 12.962 6.5468 13.1017H5.69342C5.73959 12.9941 5.78507 12.8883 5.83081 12.7819C5.92385 12.5655 6.018 12.3464 6.12139 12.1043C6.20957 12.3113 6.29031 12.5005 6.36877 12.6843Z" fill="#232F3F"/>
</svg>
