<?xml version="1.0" encoding="UTF-8"?>
<svg id="Layer_1" data-name="Layer 1" xmlns="http://www.w3.org/2000/svg" viewBox="0 0 60 60">
  <defs>
    <style>
      .cls-1 {
        fill: #232f3e;
      }
    </style>
  </defs>
  <path class="cls-1" d="m39.32,9.47c0-1.17.02-2.31,0-3.46-.02-.85.26-1.53,1.03-1.93.79-.41,1.49-.19,2.17.32,4.85,3.64,9.7,7.27,14.55,10.91,1.17.88,1.26,2.06.23,3.08-4.88,4.88-9.76,9.76-14.64,14.64-.71.7-1.46.9-2.21.55-.81-.38-1.14-1.05-1.13-1.94.02-1.28,0-2.56,0-3.96-1.16-.12-2.29-.31-3.42-.35-5.92-.2-10.79,2.19-14.97,6.19-3.94,3.78-6.34,8.49-7.98,13.63-.21.67-.39,1.34-.59,2.01-.28.92-1.14,1.47-2.06,1.34-.9-.13-1.58-.86-1.58-1.81,0-12.28,3.74-23.07,12.77-31.7,4.45-4.25,9.77-6.75,15.93-7.39.61-.06,1.23-.1,1.91-.15Z"/>
  <path class="cls-1" d="m29.99,58c-7.37,0-14.74,0-22.11,0-.73,0-1.48-.05-2.2-.21-2.07-.46-3.29-1.83-3.58-3.94-.07-.54-.11-1.08-.11-1.63,0-14.8,0-29.59,0-44.39,0-3.44,2.39-5.82,5.83-5.82,7.33,0,14.66,0,21.99,0,1.5,0,2.45,1.29,1.89,2.58-.35.8-.99,1.15-1.86,1.15-2.68,0-5.37,0-8.05,0-4.59,0-9.18,0-13.77,0-.25,0-.51,0-.76.02-.93.09-1.44.6-1.54,1.53-.03.25-.02.5-.02.76,0,14.64,0,29.28,0,43.92,0,.25,0,.51.02.76.09.93.6,1.44,1.53,1.53.25.03.51.02.76.02,14.64,0,29.28,0,43.93,0,.25,0,.51,0,.76-.02.93-.1,1.44-.6,1.53-1.53.03-.27.02-.54.02-.82,0-7.17,0-14.35,0-21.52,0-.34.02-.71.13-1.03.27-.82,1.13-1.31,1.98-1.2.84.11,1.53.83,1.61,1.68.01.15,0,.31,0,.47,0,7.31,0,14.62,0,21.93,0,.69-.06,1.4-.21,2.08-.45,2.04-1.8,3.27-3.88,3.57-.61.09-1.24.12-1.86.12-7.35,0-14.7,0-22.05,0Z"/>
</svg>